G04 EAGLE Gerber RS-274X export*
G75*
%MOMM*%
%FSLAX34Y34*%
%LPD*%
%IN*%
%IPPOS*%
%AMOC8*
5,1,8,0,0,1.08239X$1,22.5*%
G01*
%ADD10C,0.254000*%


D10*
X6000Y202672D02*
X6038Y201800D01*
X6152Y200936D01*
X6341Y200084D01*
X6603Y199252D01*
X6937Y198446D01*
X7340Y197672D01*
X7808Y196936D01*
X8340Y196244D01*
X8929Y195601D01*
X63071Y141459D01*
X63660Y140816D01*
X64192Y140124D01*
X64660Y139388D01*
X65063Y138614D01*
X65397Y137808D01*
X65659Y136976D01*
X65848Y136124D01*
X65962Y135259D01*
X66000Y134388D01*
X66000Y40000D01*
X66114Y37385D01*
X66456Y34791D01*
X67022Y32235D01*
X67809Y29739D01*
X68811Y27321D01*
X70019Y25000D01*
X71425Y22793D01*
X73019Y20716D01*
X74787Y18787D01*
X76716Y17019D01*
X78793Y15425D01*
X81000Y14019D01*
X83321Y12811D01*
X85739Y11809D01*
X88235Y11022D01*
X90791Y10456D01*
X93385Y10114D01*
X96000Y10000D01*
X336000Y10000D01*
X338615Y10114D01*
X341209Y10456D01*
X343765Y11022D01*
X346261Y11809D01*
X348679Y12811D01*
X351000Y14019D01*
X353207Y15425D01*
X355284Y17019D01*
X357213Y18787D01*
X358981Y20716D01*
X360575Y22793D01*
X361981Y25000D01*
X363189Y27321D01*
X364191Y29739D01*
X364978Y32235D01*
X365544Y34791D01*
X365886Y37385D01*
X366000Y40000D01*
X366000Y70000D01*
X510500Y70000D01*
X510500Y40000D01*
X510614Y37385D01*
X510956Y34791D01*
X511522Y32235D01*
X512309Y29739D01*
X513311Y27321D01*
X514519Y25000D01*
X515925Y22793D01*
X517519Y20716D01*
X519287Y18787D01*
X521216Y17019D01*
X523293Y15425D01*
X525500Y14019D01*
X527821Y12811D01*
X530239Y11809D01*
X532735Y11022D01*
X535291Y10456D01*
X537885Y10114D01*
X540500Y10000D01*
X780500Y10000D01*
X783115Y10114D01*
X785709Y10456D01*
X788265Y11022D01*
X790761Y11809D01*
X793179Y12811D01*
X795500Y14019D01*
X797707Y15425D01*
X799784Y17019D01*
X801713Y18787D01*
X803481Y20716D01*
X805075Y22793D01*
X806481Y25000D01*
X807689Y27321D01*
X808691Y29739D01*
X809478Y32235D01*
X810044Y34791D01*
X810386Y37385D01*
X810500Y40000D01*
X810500Y134388D01*
X810538Y135259D01*
X810652Y136124D01*
X810841Y136976D01*
X811103Y137808D01*
X811437Y138614D01*
X811840Y139388D01*
X812308Y140123D01*
X812840Y140816D01*
X813429Y141459D01*
X867571Y195601D01*
X868160Y196244D01*
X868692Y196936D01*
X869160Y197672D01*
X869563Y198446D01*
X869897Y199252D01*
X870159Y200084D01*
X870348Y200936D01*
X870462Y201800D01*
X870500Y202672D01*
X870500Y480000D01*
X870386Y482615D01*
X870044Y485209D01*
X869478Y487765D01*
X868691Y490261D01*
X867689Y492679D01*
X866481Y495000D01*
X865075Y497207D01*
X863481Y499284D01*
X861713Y501213D01*
X859784Y502981D01*
X857707Y504575D01*
X855500Y505981D01*
X853179Y507189D01*
X850761Y508191D01*
X848265Y508978D01*
X845709Y509544D01*
X843115Y509886D01*
X840500Y510000D01*
X480500Y510000D01*
X477885Y509886D01*
X475291Y509544D01*
X472735Y508978D01*
X470239Y508191D01*
X467821Y507189D01*
X465500Y505981D01*
X463293Y504575D01*
X461216Y502981D01*
X459287Y501213D01*
X457519Y499284D01*
X455925Y497207D01*
X454519Y495000D01*
X453311Y492679D01*
X452309Y490261D01*
X451522Y487765D01*
X450956Y485209D01*
X450614Y482615D01*
X450500Y480000D01*
X450500Y460000D01*
X426000Y460000D01*
X426000Y480000D01*
X425886Y482615D01*
X425544Y485209D01*
X424978Y487765D01*
X424191Y490261D01*
X423189Y492679D01*
X421981Y495000D01*
X420575Y497207D01*
X418981Y499284D01*
X417213Y501213D01*
X415284Y502981D01*
X413207Y504575D01*
X411000Y505981D01*
X408679Y507189D01*
X406261Y508191D01*
X403765Y508978D01*
X401209Y509544D01*
X398615Y509886D01*
X396000Y510000D01*
X36000Y510000D01*
X33385Y509886D01*
X30791Y509544D01*
X28235Y508978D01*
X25739Y508191D01*
X23321Y507189D01*
X21000Y505981D01*
X18793Y504575D01*
X16716Y502981D01*
X14787Y501213D01*
X13019Y499284D01*
X11425Y497207D01*
X10019Y495000D01*
X8811Y492679D01*
X7809Y490261D01*
X7022Y487765D01*
X6456Y485209D01*
X6114Y482615D01*
X6000Y480000D01*
X6000Y202672D01*
X366000Y90000D02*
X510500Y90000D01*
X510500Y134388D01*
X510462Y135259D01*
X510348Y136124D01*
X510159Y136976D01*
X509897Y137808D01*
X509563Y138614D01*
X509160Y139388D01*
X508692Y140124D01*
X508160Y140816D01*
X507571Y141459D01*
X453429Y195601D01*
X452840Y196244D01*
X452308Y196936D01*
X451840Y197672D01*
X451437Y198446D01*
X451103Y199252D01*
X450841Y200084D01*
X450652Y200936D01*
X450538Y201800D01*
X450500Y202672D01*
X450500Y212672D01*
X426000Y212672D01*
X426000Y202672D01*
X425962Y201800D01*
X425848Y200936D01*
X425659Y200084D01*
X425397Y199252D01*
X425063Y198446D01*
X424660Y197672D01*
X424192Y196936D01*
X423660Y196244D01*
X423071Y195601D01*
X368929Y141459D01*
X368340Y140816D01*
X367808Y140123D01*
X367340Y139388D01*
X366937Y138614D01*
X366603Y137808D01*
X366341Y136976D01*
X366152Y136124D01*
X366038Y135259D01*
X366000Y134388D01*
X366000Y90000D01*
X426000Y232672D02*
X450500Y232672D01*
X450500Y440000D01*
X426000Y440000D01*
X426000Y232672D01*
X51000Y479464D02*
X51000Y480536D01*
X50924Y481604D01*
X50771Y482665D01*
X50543Y483712D01*
X50241Y484740D01*
X49867Y485744D01*
X49422Y486719D01*
X48908Y487659D01*
X48329Y488560D01*
X47687Y489418D01*
X46985Y490228D01*
X46228Y490985D01*
X45418Y491687D01*
X44560Y492329D01*
X43659Y492908D01*
X42719Y493422D01*
X41744Y493867D01*
X40740Y494241D01*
X39712Y494543D01*
X38665Y494771D01*
X37604Y494924D01*
X36536Y495000D01*
X35464Y495000D01*
X34396Y494924D01*
X33335Y494771D01*
X32288Y494543D01*
X31260Y494241D01*
X30256Y493867D01*
X29281Y493422D01*
X28341Y492908D01*
X27440Y492329D01*
X26582Y491687D01*
X25772Y490985D01*
X25015Y490228D01*
X24313Y489418D01*
X23671Y488560D01*
X23092Y487659D01*
X22578Y486719D01*
X22133Y485744D01*
X21759Y484740D01*
X21457Y483712D01*
X21229Y482665D01*
X21076Y481604D01*
X21000Y480536D01*
X21000Y479464D01*
X21076Y478396D01*
X21229Y477335D01*
X21457Y476288D01*
X21759Y475260D01*
X22133Y474256D01*
X22578Y473281D01*
X23092Y472341D01*
X23671Y471440D01*
X24313Y470582D01*
X25015Y469772D01*
X25772Y469015D01*
X26582Y468313D01*
X27440Y467671D01*
X28341Y467092D01*
X29281Y466578D01*
X30256Y466133D01*
X31260Y465759D01*
X32288Y465457D01*
X33335Y465229D01*
X34396Y465076D01*
X35464Y465000D01*
X36536Y465000D01*
X37604Y465076D01*
X38665Y465229D01*
X39712Y465457D01*
X40740Y465759D01*
X41744Y466133D01*
X42719Y466578D01*
X43659Y467092D01*
X44560Y467671D01*
X45418Y468313D01*
X46228Y469015D01*
X46985Y469772D01*
X47687Y470582D01*
X48329Y471440D01*
X48908Y472341D01*
X49422Y473281D01*
X49867Y474256D01*
X50241Y475260D01*
X50543Y476288D01*
X50771Y477335D01*
X50924Y478396D01*
X51000Y479464D01*
X411000Y479464D02*
X411000Y480536D01*
X410924Y481604D01*
X410771Y482665D01*
X410543Y483712D01*
X410241Y484740D01*
X409867Y485744D01*
X409422Y486719D01*
X408908Y487659D01*
X408329Y488560D01*
X407687Y489418D01*
X406985Y490228D01*
X406228Y490985D01*
X405418Y491687D01*
X404560Y492329D01*
X403659Y492908D01*
X402719Y493422D01*
X401744Y493867D01*
X400740Y494241D01*
X399712Y494543D01*
X398665Y494771D01*
X397604Y494924D01*
X396536Y495000D01*
X395464Y495000D01*
X394396Y494924D01*
X393335Y494771D01*
X392288Y494543D01*
X391260Y494241D01*
X390256Y493867D01*
X389281Y493422D01*
X388341Y492908D01*
X387440Y492329D01*
X386582Y491687D01*
X385772Y490985D01*
X385015Y490228D01*
X384313Y489418D01*
X383671Y488560D01*
X383092Y487659D01*
X382578Y486719D01*
X382133Y485744D01*
X381759Y484740D01*
X381457Y483712D01*
X381229Y482665D01*
X381076Y481604D01*
X381000Y480536D01*
X381000Y479464D01*
X381076Y478396D01*
X381229Y477335D01*
X381457Y476288D01*
X381759Y475260D01*
X382133Y474256D01*
X382578Y473281D01*
X383092Y472341D01*
X383671Y471440D01*
X384313Y470582D01*
X385015Y469772D01*
X385772Y469015D01*
X386582Y468313D01*
X387440Y467671D01*
X388341Y467092D01*
X389281Y466578D01*
X390256Y466133D01*
X391260Y465759D01*
X392288Y465457D01*
X393335Y465229D01*
X394396Y465076D01*
X395464Y465000D01*
X396536Y465000D01*
X397604Y465076D01*
X398665Y465229D01*
X399712Y465457D01*
X400740Y465759D01*
X401744Y466133D01*
X402719Y466578D01*
X403659Y467092D01*
X404560Y467671D01*
X405418Y468313D01*
X406228Y469015D01*
X406985Y469772D01*
X407687Y470582D01*
X408329Y471440D01*
X408908Y472341D01*
X409422Y473281D01*
X409867Y474256D01*
X410241Y475260D01*
X410543Y476288D01*
X410771Y477335D01*
X410924Y478396D01*
X411000Y479464D01*
X111000Y39464D02*
X111000Y40536D01*
X110924Y41604D01*
X110771Y42665D01*
X110543Y43712D01*
X110241Y44740D01*
X109867Y45744D01*
X109422Y46719D01*
X108908Y47659D01*
X108329Y48560D01*
X107687Y49418D01*
X106985Y50228D01*
X106228Y50985D01*
X105418Y51687D01*
X104560Y52329D01*
X103659Y52908D01*
X102719Y53422D01*
X101744Y53867D01*
X100740Y54241D01*
X99712Y54543D01*
X98665Y54771D01*
X97604Y54924D01*
X96536Y55000D01*
X95464Y55000D01*
X94396Y54924D01*
X93335Y54771D01*
X92288Y54543D01*
X91260Y54241D01*
X90256Y53867D01*
X89281Y53422D01*
X88341Y52908D01*
X87440Y52329D01*
X86582Y51687D01*
X85772Y50985D01*
X85015Y50228D01*
X84313Y49418D01*
X83671Y48560D01*
X83092Y47659D01*
X82578Y46719D01*
X82133Y45744D01*
X81759Y44740D01*
X81457Y43712D01*
X81229Y42665D01*
X81076Y41604D01*
X81000Y40536D01*
X81000Y39464D01*
X81076Y38396D01*
X81229Y37335D01*
X81457Y36288D01*
X81759Y35260D01*
X82133Y34256D01*
X82578Y33281D01*
X83092Y32341D01*
X83671Y31440D01*
X84313Y30582D01*
X85015Y29772D01*
X85772Y29015D01*
X86582Y28313D01*
X87440Y27671D01*
X88341Y27092D01*
X89281Y26578D01*
X90256Y26133D01*
X91260Y25759D01*
X92288Y25457D01*
X93335Y25229D01*
X94396Y25076D01*
X95464Y25000D01*
X96536Y25000D01*
X97604Y25076D01*
X98665Y25229D01*
X99712Y25457D01*
X100740Y25759D01*
X101744Y26133D01*
X102719Y26578D01*
X103659Y27092D01*
X104560Y27671D01*
X105418Y28313D01*
X106228Y29015D01*
X106985Y29772D01*
X107687Y30582D01*
X108329Y31440D01*
X108908Y32341D01*
X109422Y33281D01*
X109867Y34256D01*
X110241Y35260D01*
X110543Y36288D01*
X110771Y37335D01*
X110924Y38396D01*
X111000Y39464D01*
X351000Y39464D02*
X351000Y40536D01*
X350924Y41604D01*
X350771Y42665D01*
X350543Y43712D01*
X350241Y44740D01*
X349867Y45744D01*
X349422Y46719D01*
X348908Y47659D01*
X348329Y48560D01*
X347687Y49418D01*
X346985Y50228D01*
X346228Y50985D01*
X345418Y51687D01*
X344560Y52329D01*
X343659Y52908D01*
X342719Y53422D01*
X341744Y53867D01*
X340740Y54241D01*
X339712Y54543D01*
X338665Y54771D01*
X337604Y54924D01*
X336536Y55000D01*
X335464Y55000D01*
X334396Y54924D01*
X333335Y54771D01*
X332288Y54543D01*
X331260Y54241D01*
X330256Y53867D01*
X329281Y53422D01*
X328341Y52908D01*
X327440Y52329D01*
X326582Y51687D01*
X325772Y50985D01*
X325015Y50228D01*
X324313Y49418D01*
X323671Y48560D01*
X323092Y47659D01*
X322578Y46719D01*
X322133Y45744D01*
X321759Y44740D01*
X321457Y43712D01*
X321229Y42665D01*
X321076Y41604D01*
X321000Y40536D01*
X321000Y39464D01*
X321076Y38396D01*
X321229Y37335D01*
X321457Y36288D01*
X321759Y35260D01*
X322133Y34256D01*
X322578Y33281D01*
X323092Y32341D01*
X323671Y31440D01*
X324313Y30582D01*
X325015Y29772D01*
X325772Y29015D01*
X326582Y28313D01*
X327440Y27671D01*
X328341Y27092D01*
X329281Y26578D01*
X330256Y26133D01*
X331260Y25759D01*
X332288Y25457D01*
X333335Y25229D01*
X334396Y25076D01*
X335464Y25000D01*
X336536Y25000D01*
X337604Y25076D01*
X338665Y25229D01*
X339712Y25457D01*
X340740Y25759D01*
X341744Y26133D01*
X342719Y26578D01*
X343659Y27092D01*
X344560Y27671D01*
X345418Y28313D01*
X346228Y29015D01*
X346985Y29772D01*
X347687Y30582D01*
X348329Y31440D01*
X348908Y32341D01*
X349422Y33281D01*
X349867Y34256D01*
X350241Y35260D01*
X350543Y36288D01*
X350771Y37335D01*
X350924Y38396D01*
X351000Y39464D01*
X855500Y479464D02*
X855500Y480536D01*
X855424Y481604D01*
X855271Y482665D01*
X855043Y483712D01*
X854741Y484740D01*
X854367Y485744D01*
X853922Y486719D01*
X853408Y487659D01*
X852829Y488560D01*
X852187Y489418D01*
X851485Y490228D01*
X850728Y490985D01*
X849918Y491687D01*
X849060Y492329D01*
X848159Y492908D01*
X847219Y493422D01*
X846244Y493867D01*
X845240Y494241D01*
X844212Y494543D01*
X843165Y494771D01*
X842104Y494924D01*
X841036Y495000D01*
X839964Y495000D01*
X838896Y494924D01*
X837835Y494771D01*
X836788Y494543D01*
X835760Y494241D01*
X834756Y493867D01*
X833781Y493422D01*
X832841Y492908D01*
X831940Y492329D01*
X831082Y491687D01*
X830272Y490985D01*
X829515Y490228D01*
X828813Y489418D01*
X828171Y488560D01*
X827592Y487659D01*
X827078Y486719D01*
X826633Y485744D01*
X826259Y484740D01*
X825957Y483712D01*
X825729Y482665D01*
X825576Y481604D01*
X825500Y480536D01*
X825500Y479464D01*
X825576Y478396D01*
X825729Y477335D01*
X825957Y476288D01*
X826259Y475260D01*
X826633Y474256D01*
X827078Y473281D01*
X827592Y472341D01*
X828171Y471440D01*
X828813Y470582D01*
X829515Y469772D01*
X830272Y469015D01*
X831082Y468313D01*
X831940Y467671D01*
X832841Y467092D01*
X833781Y466578D01*
X834756Y466133D01*
X835760Y465759D01*
X836788Y465457D01*
X837835Y465229D01*
X838896Y465076D01*
X839964Y465000D01*
X841036Y465000D01*
X842104Y465076D01*
X843165Y465229D01*
X844212Y465457D01*
X845240Y465759D01*
X846244Y466133D01*
X847219Y466578D01*
X848159Y467092D01*
X849060Y467671D01*
X849918Y468313D01*
X850728Y469015D01*
X851485Y469772D01*
X852187Y470582D01*
X852829Y471440D01*
X853408Y472341D01*
X853922Y473281D01*
X854367Y474256D01*
X854741Y475260D01*
X855043Y476288D01*
X855271Y477335D01*
X855424Y478396D01*
X855500Y479464D01*
X555500Y39464D02*
X555500Y40536D01*
X555424Y41604D01*
X555271Y42665D01*
X555043Y43712D01*
X554741Y44740D01*
X554367Y45744D01*
X553922Y46719D01*
X553408Y47659D01*
X552829Y48560D01*
X552187Y49418D01*
X551485Y50228D01*
X550728Y50985D01*
X549918Y51687D01*
X549060Y52329D01*
X548159Y52908D01*
X547219Y53422D01*
X546244Y53867D01*
X545240Y54241D01*
X544212Y54543D01*
X543165Y54771D01*
X542104Y54924D01*
X541036Y55000D01*
X539964Y55000D01*
X538896Y54924D01*
X537835Y54771D01*
X536788Y54543D01*
X535760Y54241D01*
X534756Y53867D01*
X533781Y53422D01*
X532841Y52908D01*
X531940Y52329D01*
X531082Y51687D01*
X530272Y50985D01*
X529515Y50228D01*
X528813Y49418D01*
X528171Y48560D01*
X527592Y47659D01*
X527078Y46719D01*
X526633Y45744D01*
X526259Y44740D01*
X525957Y43712D01*
X525729Y42665D01*
X525576Y41604D01*
X525500Y40536D01*
X525500Y39464D01*
X525576Y38396D01*
X525729Y37335D01*
X525957Y36288D01*
X526259Y35260D01*
X526633Y34256D01*
X527078Y33281D01*
X527592Y32341D01*
X528171Y31440D01*
X528813Y30582D01*
X529515Y29772D01*
X530272Y29015D01*
X531082Y28313D01*
X531940Y27671D01*
X532841Y27092D01*
X533781Y26578D01*
X534756Y26133D01*
X535760Y25759D01*
X536788Y25457D01*
X537835Y25229D01*
X538896Y25076D01*
X539964Y25000D01*
X541036Y25000D01*
X542104Y25076D01*
X543165Y25229D01*
X544212Y25457D01*
X545240Y25759D01*
X546244Y26133D01*
X547219Y26578D01*
X548159Y27092D01*
X549060Y27671D01*
X549918Y28313D01*
X550728Y29015D01*
X551485Y29772D01*
X552187Y30582D01*
X552829Y31440D01*
X553408Y32341D01*
X553922Y33281D01*
X554367Y34256D01*
X554741Y35260D01*
X555043Y36288D01*
X555271Y37335D01*
X555424Y38396D01*
X555500Y39464D01*
X795500Y39464D02*
X795500Y40536D01*
X795424Y41604D01*
X795271Y42665D01*
X795043Y43712D01*
X794741Y44740D01*
X794367Y45744D01*
X793922Y46719D01*
X793408Y47659D01*
X792829Y48560D01*
X792187Y49418D01*
X791485Y50228D01*
X790728Y50985D01*
X789918Y51687D01*
X789060Y52329D01*
X788159Y52908D01*
X787219Y53422D01*
X786244Y53867D01*
X785240Y54241D01*
X784212Y54543D01*
X783165Y54771D01*
X782104Y54924D01*
X781036Y55000D01*
X779964Y55000D01*
X778896Y54924D01*
X777835Y54771D01*
X776788Y54543D01*
X775760Y54241D01*
X774756Y53867D01*
X773781Y53422D01*
X772841Y52908D01*
X771940Y52329D01*
X771082Y51687D01*
X770272Y50985D01*
X769515Y50228D01*
X768813Y49418D01*
X768171Y48560D01*
X767592Y47659D01*
X767078Y46719D01*
X766633Y45744D01*
X766259Y44740D01*
X765957Y43712D01*
X765729Y42665D01*
X765576Y41604D01*
X765500Y40536D01*
X765500Y39464D01*
X765576Y38396D01*
X765729Y37335D01*
X765957Y36288D01*
X766259Y35260D01*
X766633Y34256D01*
X767078Y33281D01*
X767592Y32341D01*
X768171Y31440D01*
X768813Y30582D01*
X769515Y29772D01*
X770272Y29015D01*
X771082Y28313D01*
X771940Y27671D01*
X772841Y27092D01*
X773781Y26578D01*
X774756Y26133D01*
X775760Y25759D01*
X776788Y25457D01*
X777835Y25229D01*
X778896Y25076D01*
X779964Y25000D01*
X781036Y25000D01*
X782104Y25076D01*
X783165Y25229D01*
X784212Y25457D01*
X785240Y25759D01*
X786244Y26133D01*
X787219Y26578D01*
X788159Y27092D01*
X789060Y27671D01*
X789918Y28313D01*
X790728Y29015D01*
X791485Y29772D01*
X792187Y30582D01*
X792829Y31440D01*
X793408Y32341D01*
X793922Y33281D01*
X794367Y34256D01*
X794741Y35260D01*
X795043Y36288D01*
X795271Y37335D01*
X795424Y38396D01*
X795500Y39464D01*
X495500Y479464D02*
X495500Y480536D01*
X495424Y481604D01*
X495271Y482665D01*
X495043Y483712D01*
X494741Y484740D01*
X494367Y485744D01*
X493922Y486719D01*
X493408Y487659D01*
X492829Y488560D01*
X492187Y489418D01*
X491485Y490228D01*
X490728Y490985D01*
X489918Y491687D01*
X489060Y492329D01*
X488159Y492908D01*
X487219Y493422D01*
X486244Y493867D01*
X485240Y494241D01*
X484212Y494543D01*
X483165Y494771D01*
X482104Y494924D01*
X481036Y495000D01*
X479964Y495000D01*
X478896Y494924D01*
X477835Y494771D01*
X476788Y494543D01*
X475760Y494241D01*
X474756Y493867D01*
X473781Y493422D01*
X472841Y492908D01*
X471940Y492329D01*
X471082Y491687D01*
X470272Y490985D01*
X469515Y490228D01*
X468813Y489418D01*
X468171Y488560D01*
X467592Y487659D01*
X467078Y486719D01*
X466633Y485744D01*
X466259Y484740D01*
X465957Y483712D01*
X465729Y482665D01*
X465576Y481604D01*
X465500Y480536D01*
X465500Y479464D01*
X465576Y478396D01*
X465729Y477335D01*
X465957Y476288D01*
X466259Y475260D01*
X466633Y474256D01*
X467078Y473281D01*
X467592Y472341D01*
X468171Y471440D01*
X468813Y470582D01*
X469515Y469772D01*
X470272Y469015D01*
X471082Y468313D01*
X471940Y467671D01*
X472841Y467092D01*
X473781Y466578D01*
X474756Y466133D01*
X475760Y465759D01*
X476788Y465457D01*
X477835Y465229D01*
X478896Y465076D01*
X479964Y465000D01*
X481036Y465000D01*
X482104Y465076D01*
X483165Y465229D01*
X484212Y465457D01*
X485240Y465759D01*
X486244Y466133D01*
X487219Y466578D01*
X488159Y467092D01*
X489060Y467671D01*
X489918Y468313D01*
X490728Y469015D01*
X491485Y469772D01*
X492187Y470582D01*
X492829Y471440D01*
X493408Y472341D01*
X493922Y473281D01*
X494367Y474256D01*
X494741Y475260D01*
X495043Y476288D01*
X495271Y477335D01*
X495424Y478396D01*
X495500Y479464D01*
M02*
