G04 EAGLE Gerber RS-274X export*
G75*
%MOMM*%
%FSLAX34Y34*%
%LPD*%
%INSolderpaste Bottom*%
%IPPOS*%
%AMOC8*
5,1,8,0,0,1.08239X$1,22.5*%
G01*
%ADD10R,1.270000X2.060000*%
%ADD11R,1.000000X0.350000*%
%ADD12C,0.130000*%
%ADD13R,1.100000X1.000000*%
%ADD14R,1.000000X1.100000*%
%ADD15C,0.300000*%


D10*
X104688Y157163D03*
X139788Y157163D03*
D11*
X187650Y274188D03*
X187650Y280688D03*
X187650Y287188D03*
X187650Y293688D03*
X187650Y300188D03*
X187650Y306688D03*
X187650Y313188D03*
X244150Y313188D03*
X244150Y306688D03*
X244150Y300188D03*
X244150Y293688D03*
X244150Y287188D03*
X244150Y280688D03*
X244150Y274188D03*
D12*
X193300Y68600D02*
X181500Y68600D01*
X181500Y72500D01*
X193300Y72500D01*
X193300Y68600D01*
X193300Y69835D02*
X181500Y69835D01*
X181500Y71070D02*
X193300Y71070D01*
X193300Y72305D02*
X181500Y72305D01*
X181500Y76600D02*
X193300Y76600D01*
X181500Y76600D02*
X181500Y80500D01*
X193300Y80500D01*
X193300Y76600D01*
X193300Y77835D02*
X181500Y77835D01*
X181500Y79070D02*
X193300Y79070D01*
X193300Y80305D02*
X181500Y80305D01*
X181500Y84600D02*
X193300Y84600D01*
X181500Y84600D02*
X181500Y88500D01*
X193300Y88500D01*
X193300Y84600D01*
X193300Y85835D02*
X181500Y85835D01*
X181500Y87070D02*
X193300Y87070D01*
X193300Y88305D02*
X181500Y88305D01*
X181500Y92600D02*
X193300Y92600D01*
X181500Y92600D02*
X181500Y96500D01*
X193300Y96500D01*
X193300Y92600D01*
X193300Y93835D02*
X181500Y93835D01*
X181500Y95070D02*
X193300Y95070D01*
X193300Y96305D02*
X181500Y96305D01*
X238500Y92600D02*
X250300Y92600D01*
X238500Y92600D02*
X238500Y96500D01*
X250300Y96500D01*
X250300Y92600D01*
X250300Y93835D02*
X238500Y93835D01*
X238500Y95070D02*
X250300Y95070D01*
X250300Y96305D02*
X238500Y96305D01*
X238500Y84600D02*
X250300Y84600D01*
X238500Y84600D02*
X238500Y88500D01*
X250300Y88500D01*
X250300Y84600D01*
X250300Y85835D02*
X238500Y85835D01*
X238500Y87070D02*
X250300Y87070D01*
X250300Y88305D02*
X238500Y88305D01*
X238500Y76600D02*
X250300Y76600D01*
X238500Y76600D02*
X238500Y80500D01*
X250300Y80500D01*
X250300Y76600D01*
X250300Y77835D02*
X238500Y77835D01*
X238500Y79070D02*
X250300Y79070D01*
X250300Y80305D02*
X238500Y80305D01*
X238500Y68600D02*
X250300Y68600D01*
X238500Y68600D02*
X238500Y72500D01*
X250300Y72500D01*
X250300Y68600D01*
X250300Y69835D02*
X238500Y69835D01*
X238500Y71070D02*
X250300Y71070D01*
X250300Y72305D02*
X238500Y72305D01*
D13*
X226450Y110331D03*
X243450Y110331D03*
D14*
X262731Y70081D03*
X262731Y87081D03*
D13*
X188350Y110331D03*
X205350Y110331D03*
X187094Y53975D03*
X170094Y53975D03*
D14*
X169069Y70081D03*
X169069Y87081D03*
D13*
X224400Y53975D03*
X207400Y53975D03*
X261706Y53975D03*
X244706Y53975D03*
D15*
X122850Y498062D02*
X115850Y498062D01*
X122850Y498062D02*
X122850Y491062D01*
X115850Y491062D01*
X115850Y498062D01*
X115850Y493912D02*
X122850Y493912D01*
X122850Y496762D02*
X115850Y496762D01*
X115850Y480522D02*
X122850Y480522D01*
X122850Y473522D01*
X115850Y473522D01*
X115850Y480522D01*
X115850Y476372D02*
X122850Y476372D01*
X122850Y479222D02*
X115850Y479222D01*
X106975Y498062D02*
X99975Y498062D01*
X106975Y498062D02*
X106975Y491062D01*
X99975Y491062D01*
X99975Y498062D01*
X99975Y493912D02*
X106975Y493912D01*
X106975Y496762D02*
X99975Y496762D01*
X99975Y480522D02*
X106975Y480522D01*
X106975Y473522D01*
X99975Y473522D01*
X99975Y480522D01*
X99975Y476372D02*
X106975Y476372D01*
X106975Y479222D02*
X99975Y479222D01*
D10*
X198350Y157163D03*
X233450Y157163D03*
X291219Y157163D03*
X326319Y157163D03*
X55650Y342106D03*
X20550Y342106D03*
X55650Y311150D03*
X20550Y311150D03*
X55650Y280194D03*
X20550Y280194D03*
X55650Y249238D03*
X20550Y249238D03*
X55650Y218281D03*
X20550Y218281D03*
X55650Y373063D03*
X20550Y373063D03*
X549188Y157163D03*
X584288Y157163D03*
D11*
X632150Y274188D03*
X632150Y280688D03*
X632150Y287188D03*
X632150Y293688D03*
X632150Y300188D03*
X632150Y306688D03*
X632150Y313188D03*
X688650Y313188D03*
X688650Y306688D03*
X688650Y300188D03*
X688650Y293688D03*
X688650Y287188D03*
X688650Y280688D03*
X688650Y274188D03*
D12*
X637800Y68600D02*
X626000Y68600D01*
X626000Y72500D01*
X637800Y72500D01*
X637800Y68600D01*
X637800Y69835D02*
X626000Y69835D01*
X626000Y71070D02*
X637800Y71070D01*
X637800Y72305D02*
X626000Y72305D01*
X626000Y76600D02*
X637800Y76600D01*
X626000Y76600D02*
X626000Y80500D01*
X637800Y80500D01*
X637800Y76600D01*
X637800Y77835D02*
X626000Y77835D01*
X626000Y79070D02*
X637800Y79070D01*
X637800Y80305D02*
X626000Y80305D01*
X626000Y84600D02*
X637800Y84600D01*
X626000Y84600D02*
X626000Y88500D01*
X637800Y88500D01*
X637800Y84600D01*
X637800Y85835D02*
X626000Y85835D01*
X626000Y87070D02*
X637800Y87070D01*
X637800Y88305D02*
X626000Y88305D01*
X626000Y92600D02*
X637800Y92600D01*
X626000Y92600D02*
X626000Y96500D01*
X637800Y96500D01*
X637800Y92600D01*
X637800Y93835D02*
X626000Y93835D01*
X626000Y95070D02*
X637800Y95070D01*
X637800Y96305D02*
X626000Y96305D01*
X683000Y92600D02*
X694800Y92600D01*
X683000Y92600D02*
X683000Y96500D01*
X694800Y96500D01*
X694800Y92600D01*
X694800Y93835D02*
X683000Y93835D01*
X683000Y95070D02*
X694800Y95070D01*
X694800Y96305D02*
X683000Y96305D01*
X683000Y84600D02*
X694800Y84600D01*
X683000Y84600D02*
X683000Y88500D01*
X694800Y88500D01*
X694800Y84600D01*
X694800Y85835D02*
X683000Y85835D01*
X683000Y87070D02*
X694800Y87070D01*
X694800Y88305D02*
X683000Y88305D01*
X683000Y76600D02*
X694800Y76600D01*
X683000Y76600D02*
X683000Y80500D01*
X694800Y80500D01*
X694800Y76600D01*
X694800Y77835D02*
X683000Y77835D01*
X683000Y79070D02*
X694800Y79070D01*
X694800Y80305D02*
X683000Y80305D01*
X683000Y68600D02*
X694800Y68600D01*
X683000Y68600D02*
X683000Y72500D01*
X694800Y72500D01*
X694800Y68600D01*
X694800Y69835D02*
X683000Y69835D01*
X683000Y71070D02*
X694800Y71070D01*
X694800Y72305D02*
X683000Y72305D01*
D13*
X670950Y110331D03*
X687950Y110331D03*
D14*
X707231Y70081D03*
X707231Y87081D03*
D13*
X632850Y110331D03*
X649850Y110331D03*
X631594Y53975D03*
X614594Y53975D03*
D14*
X613569Y70081D03*
X613569Y87081D03*
D13*
X668900Y53975D03*
X651900Y53975D03*
X706206Y53975D03*
X689206Y53975D03*
D15*
X567350Y498062D02*
X560350Y498062D01*
X567350Y498062D02*
X567350Y491062D01*
X560350Y491062D01*
X560350Y498062D01*
X560350Y493912D02*
X567350Y493912D01*
X567350Y496762D02*
X560350Y496762D01*
X560350Y480522D02*
X567350Y480522D01*
X567350Y473522D01*
X560350Y473522D01*
X560350Y480522D01*
X560350Y476372D02*
X567350Y476372D01*
X567350Y479222D02*
X560350Y479222D01*
X551475Y498062D02*
X544475Y498062D01*
X551475Y498062D02*
X551475Y491062D01*
X544475Y491062D01*
X544475Y498062D01*
X544475Y493912D02*
X551475Y493912D01*
X551475Y496762D02*
X544475Y496762D01*
X544475Y480522D02*
X551475Y480522D01*
X551475Y473522D01*
X544475Y473522D01*
X544475Y480522D01*
X544475Y476372D02*
X551475Y476372D01*
X551475Y479222D02*
X544475Y479222D01*
D10*
X642850Y157163D03*
X677950Y157163D03*
X735719Y157163D03*
X770819Y157163D03*
X500150Y342106D03*
X465050Y342106D03*
X500150Y311150D03*
X465050Y311150D03*
X500150Y280194D03*
X465050Y280194D03*
X500150Y249238D03*
X465050Y249238D03*
X500150Y218281D03*
X465050Y218281D03*
X500150Y373063D03*
X465050Y373063D03*
M02*
