G04 EAGLE Gerber RS-274X export*
G75*
%MOMM*%
%FSLAX34Y34*%
%LPD*%
%INBottom Copper*%
%IPPOS*%
%AMOC8*
5,1,8,0,0,1.08239X$1,22.5*%
G01*
%ADD10R,1.270000X2.060000*%
%ADD11R,1.000000X0.350000*%
%ADD12C,0.130000*%
%ADD13R,1.100000X1.000000*%
%ADD14R,1.000000X1.100000*%
%ADD15C,0.300000*%
%ADD16C,1.422400*%
%ADD17C,1.676400*%
%ADD18C,1.524000*%
%ADD19C,0.654800*%
%ADD20C,1.500000*%
%ADD21C,0.700000*%
%ADD22C,1.000000*%
%ADD23C,0.600000*%
%ADD24C,0.804800*%
%ADD25C,0.609600*%
%ADD26C,0.500000*%
%ADD27C,0.800000*%

G36*
X744546Y136821D02*
X744546Y136821D01*
X744554Y136820D01*
X744643Y136841D01*
X744732Y136859D01*
X744739Y136864D01*
X744747Y136866D01*
X744821Y136920D01*
X744896Y136972D01*
X744901Y136979D01*
X744908Y136984D01*
X744954Y137062D01*
X745003Y137139D01*
X745005Y137148D01*
X745009Y137155D01*
X745037Y137319D01*
X745037Y177301D01*
X761206Y177301D01*
X761219Y177303D01*
X761231Y177301D01*
X761315Y177323D01*
X761401Y177340D01*
X761412Y177348D01*
X761424Y177351D01*
X761559Y177447D01*
X763941Y179828D01*
X763948Y179839D01*
X763958Y179846D01*
X764002Y179921D01*
X764050Y179994D01*
X764053Y180006D01*
X764059Y180017D01*
X764087Y180181D01*
X764087Y196501D01*
X764084Y196514D01*
X764086Y196526D01*
X764065Y196610D01*
X764047Y196696D01*
X764040Y196707D01*
X764037Y196719D01*
X763941Y196854D01*
X763551Y197244D01*
X763551Y201219D01*
X763941Y201608D01*
X763947Y201619D01*
X763958Y201626D01*
X764002Y201701D01*
X764050Y201774D01*
X764053Y201786D01*
X764059Y201797D01*
X764087Y201961D01*
X764087Y202199D01*
X764588Y202701D01*
X764826Y202701D01*
X764839Y202703D01*
X764851Y202701D01*
X764935Y202723D01*
X765021Y202740D01*
X765032Y202748D01*
X765044Y202751D01*
X765179Y202847D01*
X766362Y204030D01*
X770338Y204030D01*
X771888Y202480D01*
X771904Y202469D01*
X771915Y202454D01*
X772039Y202380D01*
X772054Y202370D01*
X772056Y202370D01*
X772058Y202368D01*
X772253Y202291D01*
X772351Y202066D01*
X772356Y202058D01*
X772358Y202053D01*
X772359Y202048D01*
X772456Y201912D01*
X773149Y201219D01*
X773149Y200332D01*
X773153Y200313D01*
X773150Y200294D01*
X773185Y200153D01*
X773188Y200137D01*
X773189Y200135D01*
X773190Y200133D01*
X773836Y198645D01*
X773842Y198636D01*
X773845Y198626D01*
X773941Y198491D01*
X779903Y192528D01*
X779914Y192521D01*
X779921Y192511D01*
X779996Y192467D01*
X780069Y192418D01*
X780081Y192416D01*
X780092Y192410D01*
X780256Y192382D01*
X787400Y192382D01*
X787408Y192384D01*
X787417Y192382D01*
X787505Y192403D01*
X787595Y192422D01*
X787602Y192426D01*
X787610Y192428D01*
X787683Y192482D01*
X787759Y192534D01*
X787763Y192541D01*
X787770Y192546D01*
X787817Y192625D01*
X787866Y192702D01*
X787867Y192710D01*
X787872Y192717D01*
X787899Y192881D01*
X787899Y206375D01*
X787897Y206387D01*
X787899Y206400D01*
X787877Y206484D01*
X787860Y206570D01*
X787853Y206580D01*
X787849Y206592D01*
X787753Y206728D01*
X776641Y217841D01*
X776630Y217848D01*
X776623Y217858D01*
X776548Y217902D01*
X776475Y217950D01*
X776462Y217953D01*
X776452Y217959D01*
X776288Y217987D01*
X750888Y217987D01*
X750875Y217984D01*
X750863Y217986D01*
X750778Y217965D01*
X750693Y217947D01*
X750682Y217940D01*
X750670Y217937D01*
X750534Y217841D01*
X740216Y207522D01*
X740209Y207511D01*
X740199Y207504D01*
X740154Y207429D01*
X740106Y207356D01*
X740104Y207344D01*
X740097Y207333D01*
X740070Y207169D01*
X740070Y198143D01*
X695532Y198143D01*
X693254Y200421D01*
X693243Y200428D01*
X693236Y200438D01*
X693161Y200482D01*
X693088Y200531D01*
X693076Y200533D01*
X693065Y200539D01*
X692901Y200567D01*
X692485Y200567D01*
X686324Y206728D01*
X686313Y206735D01*
X686306Y206745D01*
X686231Y206790D01*
X686158Y206838D01*
X686145Y206840D01*
X686135Y206847D01*
X685971Y206874D01*
X672086Y206874D01*
X672060Y206869D01*
X672033Y206871D01*
X671931Y206843D01*
X671891Y206835D01*
X671884Y206830D01*
X671873Y206827D01*
X670059Y205971D01*
X669989Y205919D01*
X669915Y205869D01*
X669908Y205858D01*
X669900Y205852D01*
X669879Y205816D01*
X669829Y205745D01*
X669389Y205587D01*
X669367Y205573D01*
X669341Y205566D01*
X669254Y205504D01*
X669219Y205484D01*
X669214Y205476D01*
X669205Y205470D01*
X669003Y205268D01*
X667085Y203350D01*
X606760Y203350D01*
X603382Y206728D01*
X603371Y206735D01*
X603364Y206745D01*
X603289Y206789D01*
X603216Y206838D01*
X603204Y206840D01*
X603193Y206847D01*
X603029Y206874D01*
X554244Y206874D01*
X549187Y211931D01*
X563769Y226513D01*
X573881Y226513D01*
X573894Y226516D01*
X573906Y226514D01*
X573990Y226535D01*
X574076Y226553D01*
X574087Y226560D01*
X574099Y226563D01*
X574234Y226659D01*
X602663Y255088D01*
X645906Y255088D01*
X651316Y249678D01*
X651326Y249671D01*
X651334Y249661D01*
X651409Y249617D01*
X651482Y249568D01*
X651494Y249566D01*
X651505Y249560D01*
X651669Y249532D01*
X660400Y249532D01*
X660412Y249535D01*
X660425Y249533D01*
X660509Y249554D01*
X660595Y249572D01*
X660605Y249579D01*
X660617Y249582D01*
X660753Y249678D01*
X661547Y250472D01*
X661554Y250483D01*
X661564Y250490D01*
X661608Y250565D01*
X661657Y250638D01*
X661659Y250650D01*
X661665Y250661D01*
X661693Y250825D01*
X661693Y262731D01*
X661691Y262744D01*
X661692Y262756D01*
X661671Y262840D01*
X661653Y262926D01*
X661646Y262937D01*
X661643Y262949D01*
X661547Y263084D01*
X655197Y269434D01*
X655186Y269441D01*
X655179Y269451D01*
X655104Y269496D01*
X655031Y269544D01*
X655019Y269546D01*
X655008Y269553D01*
X654844Y269581D01*
X625181Y269581D01*
X625181Y328613D01*
X625179Y328621D01*
X625180Y328629D01*
X625159Y328718D01*
X625141Y328807D01*
X625136Y328814D01*
X625134Y328822D01*
X625080Y328896D01*
X625028Y328971D01*
X625021Y328976D01*
X625016Y328983D01*
X624938Y329029D01*
X624861Y329078D01*
X624853Y329080D01*
X624845Y329084D01*
X624681Y329112D01*
X604543Y329112D01*
X604543Y340312D01*
X675688Y411457D01*
X717142Y411457D01*
X717154Y411460D01*
X717166Y411458D01*
X717251Y411479D01*
X717336Y411497D01*
X717347Y411504D01*
X717359Y411507D01*
X717495Y411603D01*
X748066Y442174D01*
X748073Y442185D01*
X748083Y442192D01*
X748127Y442267D01*
X748175Y442340D01*
X748178Y442352D01*
X748184Y442363D01*
X748212Y442527D01*
X748212Y447633D01*
X749953Y447633D01*
X749961Y447634D01*
X749970Y447633D01*
X750058Y447654D01*
X750148Y447672D01*
X750155Y447677D01*
X750163Y447679D01*
X750236Y447733D01*
X750312Y447785D01*
X750316Y447792D01*
X750323Y447797D01*
X750370Y447875D01*
X750419Y447952D01*
X750420Y447961D01*
X750425Y447968D01*
X750452Y448132D01*
X750452Y475692D01*
X750451Y475700D01*
X750452Y475708D01*
X750431Y475797D01*
X750413Y475886D01*
X750408Y475893D01*
X750406Y475902D01*
X750352Y475975D01*
X750300Y476050D01*
X750293Y476055D01*
X750288Y476062D01*
X750210Y476108D01*
X750133Y476157D01*
X750124Y476159D01*
X750117Y476163D01*
X749953Y476191D01*
X736173Y476191D01*
X736161Y476188D01*
X736149Y476190D01*
X736064Y476169D01*
X735978Y476151D01*
X735968Y476144D01*
X735956Y476141D01*
X735820Y476045D01*
X734385Y474609D01*
X734378Y474599D01*
X734368Y474591D01*
X734323Y474516D01*
X734275Y474443D01*
X734273Y474431D01*
X734266Y474420D01*
X734239Y474256D01*
X734239Y456906D01*
X662487Y456906D01*
X662487Y500856D01*
X662485Y500865D01*
X662486Y500873D01*
X662465Y500961D01*
X662447Y501051D01*
X662442Y501058D01*
X662440Y501066D01*
X662387Y501139D01*
X662335Y501215D01*
X662328Y501220D01*
X662323Y501226D01*
X662244Y501273D01*
X662167Y501322D01*
X662159Y501324D01*
X662152Y501328D01*
X661988Y501356D01*
X637381Y501356D01*
X637373Y501354D01*
X637365Y501355D01*
X637276Y501334D01*
X637186Y501316D01*
X637179Y501311D01*
X637171Y501309D01*
X637098Y501255D01*
X637022Y501203D01*
X637018Y501196D01*
X637011Y501191D01*
X636965Y501113D01*
X636915Y501036D01*
X636914Y501028D01*
X636910Y501020D01*
X636882Y500856D01*
X636882Y449469D01*
X583993Y396581D01*
X508794Y396581D01*
X508781Y396578D01*
X508769Y396580D01*
X508685Y396558D01*
X508599Y396541D01*
X508588Y396534D01*
X508576Y396531D01*
X508441Y396434D01*
X494153Y382147D01*
X494146Y382136D01*
X494136Y382129D01*
X494092Y382054D01*
X494043Y381981D01*
X494041Y381969D01*
X494035Y381958D01*
X494007Y381794D01*
X494007Y202406D01*
X494010Y202394D01*
X494008Y202381D01*
X494029Y202297D01*
X494047Y202211D01*
X494054Y202201D01*
X494057Y202189D01*
X494153Y202053D01*
X540838Y155368D01*
X540838Y153988D01*
X540841Y153975D01*
X540839Y153963D01*
X540860Y153878D01*
X540878Y153793D01*
X540885Y153782D01*
X540888Y153770D01*
X540984Y153634D01*
X556066Y138553D01*
X556076Y138546D01*
X556084Y138536D01*
X556159Y138492D01*
X556232Y138443D01*
X556244Y138441D01*
X556255Y138435D01*
X556419Y138407D01*
X565150Y138407D01*
X565158Y138409D01*
X565167Y138407D01*
X565255Y138428D01*
X565345Y138447D01*
X565352Y138451D01*
X565360Y138453D01*
X565433Y138507D01*
X565509Y138559D01*
X565513Y138566D01*
X565520Y138571D01*
X565567Y138650D01*
X565616Y138727D01*
X565617Y138735D01*
X565622Y138742D01*
X565649Y138906D01*
X565649Y175713D01*
X614657Y175713D01*
X614657Y146844D01*
X614659Y146836D01*
X614657Y146827D01*
X614678Y146739D01*
X614697Y146649D01*
X614701Y146642D01*
X614703Y146634D01*
X614757Y146561D01*
X614809Y146485D01*
X614816Y146480D01*
X614821Y146474D01*
X614900Y146427D01*
X614977Y146378D01*
X614985Y146377D01*
X614992Y146372D01*
X615156Y146345D01*
X658813Y146345D01*
X658821Y146346D01*
X658829Y146345D01*
X658918Y146366D01*
X659007Y146384D01*
X659014Y146389D01*
X659022Y146391D01*
X659096Y146445D01*
X659171Y146497D01*
X659176Y146504D01*
X659183Y146509D01*
X659229Y146587D01*
X659278Y146664D01*
X659280Y146673D01*
X659284Y146680D01*
X659312Y146844D01*
X659312Y175713D01*
X704351Y175713D01*
X704351Y137319D01*
X704352Y137311D01*
X704351Y137302D01*
X704372Y137214D01*
X704390Y137124D01*
X704395Y137117D01*
X704397Y137109D01*
X704451Y137036D01*
X704503Y136960D01*
X704510Y136955D01*
X704515Y136949D01*
X704593Y136902D01*
X704670Y136853D01*
X704679Y136852D01*
X704686Y136847D01*
X704850Y136820D01*
X744538Y136820D01*
X744546Y136821D01*
G37*
G36*
X300046Y136821D02*
X300046Y136821D01*
X300054Y136820D01*
X300143Y136841D01*
X300232Y136859D01*
X300239Y136864D01*
X300247Y136866D01*
X300321Y136920D01*
X300396Y136972D01*
X300401Y136979D01*
X300408Y136984D01*
X300454Y137062D01*
X300503Y137139D01*
X300505Y137148D01*
X300509Y137155D01*
X300537Y137319D01*
X300537Y177301D01*
X316706Y177301D01*
X316719Y177303D01*
X316731Y177301D01*
X316815Y177323D01*
X316901Y177340D01*
X316912Y177348D01*
X316924Y177351D01*
X317059Y177447D01*
X319441Y179828D01*
X319448Y179839D01*
X319458Y179846D01*
X319502Y179921D01*
X319550Y179994D01*
X319553Y180006D01*
X319559Y180017D01*
X319587Y180181D01*
X319587Y196501D01*
X319584Y196514D01*
X319586Y196526D01*
X319565Y196610D01*
X319547Y196696D01*
X319540Y196707D01*
X319537Y196719D01*
X319441Y196854D01*
X319051Y197244D01*
X319051Y201219D01*
X319441Y201608D01*
X319447Y201619D01*
X319458Y201626D01*
X319502Y201701D01*
X319550Y201774D01*
X319553Y201786D01*
X319559Y201797D01*
X319587Y201961D01*
X319587Y202199D01*
X320088Y202701D01*
X320326Y202701D01*
X320339Y202703D01*
X320351Y202701D01*
X320435Y202723D01*
X320521Y202740D01*
X320532Y202748D01*
X320544Y202751D01*
X320679Y202847D01*
X321862Y204030D01*
X325838Y204030D01*
X327388Y202480D01*
X327404Y202469D01*
X327415Y202454D01*
X327539Y202380D01*
X327554Y202370D01*
X327556Y202370D01*
X327558Y202368D01*
X327753Y202291D01*
X327851Y202066D01*
X327856Y202058D01*
X327858Y202053D01*
X327859Y202048D01*
X327956Y201912D01*
X328649Y201219D01*
X328649Y200332D01*
X328653Y200313D01*
X328650Y200294D01*
X328685Y200153D01*
X328688Y200137D01*
X328689Y200135D01*
X328690Y200133D01*
X329336Y198645D01*
X329342Y198636D01*
X329345Y198626D01*
X329441Y198491D01*
X335403Y192528D01*
X335414Y192521D01*
X335421Y192511D01*
X335496Y192467D01*
X335569Y192418D01*
X335581Y192416D01*
X335592Y192410D01*
X335756Y192382D01*
X342900Y192382D01*
X342908Y192384D01*
X342917Y192382D01*
X343005Y192403D01*
X343095Y192422D01*
X343102Y192426D01*
X343110Y192428D01*
X343183Y192482D01*
X343259Y192534D01*
X343263Y192541D01*
X343270Y192546D01*
X343317Y192625D01*
X343366Y192702D01*
X343367Y192710D01*
X343372Y192717D01*
X343399Y192881D01*
X343399Y206375D01*
X343397Y206387D01*
X343399Y206400D01*
X343377Y206484D01*
X343360Y206570D01*
X343353Y206580D01*
X343349Y206592D01*
X343253Y206728D01*
X332141Y217841D01*
X332130Y217848D01*
X332123Y217858D01*
X332048Y217902D01*
X331975Y217950D01*
X331962Y217953D01*
X331952Y217959D01*
X331788Y217987D01*
X306388Y217987D01*
X306375Y217984D01*
X306363Y217986D01*
X306278Y217965D01*
X306193Y217947D01*
X306182Y217940D01*
X306170Y217937D01*
X306034Y217841D01*
X295716Y207522D01*
X295709Y207511D01*
X295699Y207504D01*
X295654Y207429D01*
X295606Y207356D01*
X295604Y207344D01*
X295597Y207333D01*
X295570Y207169D01*
X295570Y198143D01*
X251032Y198143D01*
X248754Y200421D01*
X248743Y200428D01*
X248736Y200438D01*
X248661Y200482D01*
X248588Y200531D01*
X248576Y200533D01*
X248565Y200539D01*
X248401Y200567D01*
X247985Y200567D01*
X241824Y206728D01*
X241813Y206735D01*
X241806Y206745D01*
X241731Y206790D01*
X241658Y206838D01*
X241645Y206840D01*
X241635Y206847D01*
X241471Y206874D01*
X227586Y206874D01*
X227560Y206869D01*
X227533Y206871D01*
X227431Y206843D01*
X227391Y206835D01*
X227384Y206830D01*
X227373Y206827D01*
X225559Y205971D01*
X225489Y205919D01*
X225415Y205869D01*
X225408Y205858D01*
X225400Y205852D01*
X225379Y205816D01*
X225329Y205745D01*
X224889Y205587D01*
X224867Y205573D01*
X224841Y205566D01*
X224754Y205504D01*
X224719Y205484D01*
X224714Y205476D01*
X224705Y205470D01*
X224503Y205268D01*
X222585Y203350D01*
X162260Y203350D01*
X158882Y206728D01*
X158871Y206735D01*
X158864Y206745D01*
X158789Y206789D01*
X158716Y206838D01*
X158704Y206840D01*
X158693Y206847D01*
X158529Y206874D01*
X109744Y206874D01*
X104687Y211931D01*
X119269Y226513D01*
X129381Y226513D01*
X129394Y226516D01*
X129406Y226514D01*
X129490Y226535D01*
X129576Y226553D01*
X129587Y226560D01*
X129599Y226563D01*
X129734Y226659D01*
X158163Y255088D01*
X201406Y255088D01*
X206816Y249678D01*
X206826Y249671D01*
X206834Y249661D01*
X206909Y249617D01*
X206982Y249568D01*
X206994Y249566D01*
X207005Y249560D01*
X207169Y249532D01*
X215900Y249532D01*
X215912Y249535D01*
X215925Y249533D01*
X216009Y249554D01*
X216095Y249572D01*
X216105Y249579D01*
X216117Y249582D01*
X216253Y249678D01*
X217047Y250472D01*
X217054Y250483D01*
X217064Y250490D01*
X217108Y250565D01*
X217157Y250638D01*
X217159Y250650D01*
X217165Y250661D01*
X217193Y250825D01*
X217193Y262731D01*
X217191Y262744D01*
X217192Y262756D01*
X217171Y262840D01*
X217153Y262926D01*
X217146Y262937D01*
X217143Y262949D01*
X217047Y263084D01*
X210697Y269434D01*
X210686Y269441D01*
X210679Y269451D01*
X210604Y269496D01*
X210531Y269544D01*
X210519Y269546D01*
X210508Y269553D01*
X210344Y269581D01*
X180681Y269581D01*
X180681Y328613D01*
X180679Y328621D01*
X180680Y328629D01*
X180659Y328718D01*
X180641Y328807D01*
X180636Y328814D01*
X180634Y328822D01*
X180580Y328896D01*
X180528Y328971D01*
X180521Y328976D01*
X180516Y328983D01*
X180438Y329029D01*
X180361Y329078D01*
X180353Y329080D01*
X180345Y329084D01*
X180181Y329112D01*
X160043Y329112D01*
X160043Y340312D01*
X231188Y411457D01*
X272642Y411457D01*
X272654Y411460D01*
X272666Y411458D01*
X272751Y411479D01*
X272836Y411497D01*
X272847Y411504D01*
X272859Y411507D01*
X272995Y411603D01*
X303566Y442174D01*
X303573Y442185D01*
X303583Y442192D01*
X303627Y442267D01*
X303675Y442340D01*
X303678Y442352D01*
X303684Y442363D01*
X303712Y442527D01*
X303712Y447633D01*
X305453Y447633D01*
X305461Y447634D01*
X305470Y447633D01*
X305558Y447654D01*
X305648Y447672D01*
X305655Y447677D01*
X305663Y447679D01*
X305736Y447733D01*
X305812Y447785D01*
X305816Y447792D01*
X305823Y447797D01*
X305870Y447875D01*
X305919Y447952D01*
X305920Y447961D01*
X305925Y447968D01*
X305952Y448132D01*
X305952Y475692D01*
X305951Y475700D01*
X305952Y475708D01*
X305931Y475797D01*
X305913Y475886D01*
X305908Y475893D01*
X305906Y475902D01*
X305852Y475975D01*
X305800Y476050D01*
X305793Y476055D01*
X305788Y476062D01*
X305710Y476108D01*
X305633Y476157D01*
X305624Y476159D01*
X305617Y476163D01*
X305453Y476191D01*
X291673Y476191D01*
X291661Y476188D01*
X291649Y476190D01*
X291564Y476169D01*
X291478Y476151D01*
X291468Y476144D01*
X291456Y476141D01*
X291320Y476045D01*
X289885Y474609D01*
X289878Y474599D01*
X289868Y474591D01*
X289823Y474516D01*
X289775Y474443D01*
X289773Y474431D01*
X289766Y474420D01*
X289739Y474256D01*
X289739Y456906D01*
X217987Y456906D01*
X217987Y500856D01*
X217985Y500865D01*
X217986Y500873D01*
X217965Y500961D01*
X217947Y501051D01*
X217942Y501058D01*
X217940Y501066D01*
X217887Y501139D01*
X217835Y501215D01*
X217828Y501220D01*
X217823Y501226D01*
X217744Y501273D01*
X217667Y501322D01*
X217659Y501324D01*
X217652Y501328D01*
X217488Y501356D01*
X192881Y501356D01*
X192873Y501354D01*
X192865Y501355D01*
X192776Y501334D01*
X192686Y501316D01*
X192679Y501311D01*
X192671Y501309D01*
X192598Y501255D01*
X192522Y501203D01*
X192518Y501196D01*
X192511Y501191D01*
X192465Y501113D01*
X192415Y501036D01*
X192414Y501028D01*
X192410Y501020D01*
X192382Y500856D01*
X192382Y449469D01*
X139493Y396581D01*
X64294Y396581D01*
X64281Y396578D01*
X64269Y396580D01*
X64185Y396558D01*
X64099Y396541D01*
X64088Y396534D01*
X64076Y396531D01*
X63941Y396434D01*
X49653Y382147D01*
X49646Y382136D01*
X49636Y382129D01*
X49592Y382054D01*
X49543Y381981D01*
X49541Y381969D01*
X49535Y381958D01*
X49507Y381794D01*
X49507Y202406D01*
X49510Y202394D01*
X49508Y202381D01*
X49529Y202297D01*
X49547Y202211D01*
X49554Y202201D01*
X49557Y202189D01*
X49653Y202053D01*
X96338Y155368D01*
X96338Y153988D01*
X96341Y153975D01*
X96339Y153963D01*
X96360Y153878D01*
X96378Y153793D01*
X96385Y153782D01*
X96388Y153770D01*
X96484Y153634D01*
X111566Y138553D01*
X111576Y138546D01*
X111584Y138536D01*
X111659Y138492D01*
X111732Y138443D01*
X111744Y138441D01*
X111755Y138435D01*
X111919Y138407D01*
X120650Y138407D01*
X120658Y138409D01*
X120667Y138407D01*
X120755Y138428D01*
X120845Y138447D01*
X120852Y138451D01*
X120860Y138453D01*
X120933Y138507D01*
X121009Y138559D01*
X121013Y138566D01*
X121020Y138571D01*
X121067Y138650D01*
X121116Y138727D01*
X121117Y138735D01*
X121122Y138742D01*
X121149Y138906D01*
X121149Y175713D01*
X170157Y175713D01*
X170157Y146844D01*
X170159Y146836D01*
X170157Y146827D01*
X170178Y146739D01*
X170197Y146649D01*
X170201Y146642D01*
X170203Y146634D01*
X170257Y146561D01*
X170309Y146485D01*
X170316Y146480D01*
X170321Y146474D01*
X170400Y146427D01*
X170477Y146378D01*
X170485Y146377D01*
X170492Y146372D01*
X170656Y146345D01*
X214313Y146345D01*
X214321Y146346D01*
X214329Y146345D01*
X214418Y146366D01*
X214507Y146384D01*
X214514Y146389D01*
X214522Y146391D01*
X214596Y146445D01*
X214671Y146497D01*
X214676Y146504D01*
X214683Y146509D01*
X214729Y146587D01*
X214778Y146664D01*
X214780Y146673D01*
X214784Y146680D01*
X214812Y146844D01*
X214812Y175713D01*
X259851Y175713D01*
X259851Y137319D01*
X259852Y137311D01*
X259851Y137302D01*
X259872Y137214D01*
X259890Y137124D01*
X259895Y137117D01*
X259897Y137109D01*
X259951Y137036D01*
X260003Y136960D01*
X260010Y136955D01*
X260015Y136949D01*
X260093Y136902D01*
X260170Y136853D01*
X260179Y136852D01*
X260186Y136847D01*
X260350Y136820D01*
X300038Y136820D01*
X300046Y136821D01*
G37*
G36*
X546860Y145199D02*
X546860Y145199D01*
X546853Y145209D01*
X546778Y145253D01*
X546705Y145301D01*
X546693Y145304D01*
X546682Y145310D01*
X546518Y145338D01*
X542206Y145338D01*
X541313Y146231D01*
X541313Y150543D01*
X541310Y150555D01*
X541312Y150568D01*
X541291Y150652D01*
X541273Y150738D01*
X541266Y150748D01*
X541263Y150760D01*
X541167Y150896D01*
X490243Y201819D01*
X490243Y381587D01*
X492129Y383473D01*
X492136Y383484D01*
X492146Y383491D01*
X492191Y383566D01*
X492239Y383639D01*
X492241Y383651D01*
X492248Y383662D01*
X492275Y383826D01*
X492275Y383994D01*
X493168Y384887D01*
X493336Y384887D01*
X493349Y384890D01*
X493361Y384888D01*
X493446Y384909D01*
X493531Y384927D01*
X493542Y384934D01*
X493554Y384937D01*
X493690Y385033D01*
X507413Y398757D01*
X582613Y398757D01*
X582625Y398760D01*
X582637Y398758D01*
X582722Y398779D01*
X582807Y398797D01*
X582818Y398804D01*
X582830Y398807D01*
X582966Y398903D01*
X634559Y450497D01*
X634566Y450508D01*
X634576Y450515D01*
X634621Y450590D01*
X634669Y450663D01*
X634671Y450675D01*
X634678Y450686D01*
X634706Y450850D01*
X634706Y491048D01*
X634704Y491056D01*
X634705Y491064D01*
X634684Y491153D01*
X634666Y491243D01*
X634661Y491250D01*
X634659Y491258D01*
X634605Y491331D01*
X634553Y491407D01*
X634546Y491411D01*
X634541Y491418D01*
X634463Y491464D01*
X634386Y491514D01*
X634378Y491515D01*
X634370Y491519D01*
X634206Y491547D01*
X608013Y491547D01*
X608004Y491545D01*
X607996Y491547D01*
X607908Y491526D01*
X607818Y491507D01*
X607811Y491503D01*
X607803Y491501D01*
X607729Y491447D01*
X607654Y491395D01*
X607649Y491388D01*
X607642Y491383D01*
X607596Y491304D01*
X607547Y491227D01*
X607545Y491219D01*
X607541Y491212D01*
X607513Y491048D01*
X607513Y462963D01*
X599868Y455318D01*
X569374Y455318D01*
X569365Y455316D01*
X569357Y455318D01*
X569269Y455297D01*
X569179Y455278D01*
X569172Y455274D01*
X569164Y455272D01*
X569090Y455218D01*
X569015Y455166D01*
X569010Y455159D01*
X569003Y455154D01*
X568957Y455076D01*
X568908Y454998D01*
X568906Y454990D01*
X568902Y454983D01*
X568874Y454819D01*
X568874Y453780D01*
X565931Y450836D01*
X561768Y450836D01*
X558825Y453780D01*
X558825Y454819D01*
X558823Y454827D01*
X558825Y454835D01*
X558804Y454924D01*
X558785Y455014D01*
X558780Y455021D01*
X558779Y455029D01*
X558725Y455102D01*
X558673Y455178D01*
X558666Y455182D01*
X558661Y455189D01*
X558582Y455235D01*
X558505Y455285D01*
X558497Y455286D01*
X558490Y455290D01*
X558326Y455318D01*
X497226Y455318D01*
X497138Y455300D01*
X497049Y455285D01*
X497040Y455280D01*
X497032Y455278D01*
X496999Y455256D01*
X496906Y455201D01*
X495499Y454021D01*
X485709Y450458D01*
X475291Y450458D01*
X465501Y454021D01*
X464094Y455201D01*
X464015Y455244D01*
X463938Y455290D01*
X463927Y455292D01*
X463920Y455296D01*
X463880Y455300D01*
X463774Y455318D01*
X463550Y455318D01*
X463538Y455316D01*
X463525Y455317D01*
X463441Y455296D01*
X463355Y455278D01*
X463345Y455271D01*
X463333Y455268D01*
X463197Y455172D01*
X454349Y446324D01*
X454342Y446313D01*
X454332Y446306D01*
X454287Y446231D01*
X454239Y446158D01*
X454237Y446146D01*
X454230Y446135D01*
X454203Y445971D01*
X454203Y443760D01*
X454205Y443748D01*
X454203Y443735D01*
X454225Y443651D01*
X454242Y443565D01*
X454249Y443555D01*
X454253Y443543D01*
X454349Y443407D01*
X455631Y442125D01*
X455631Y230547D01*
X454857Y229773D01*
X454850Y229762D01*
X454840Y229755D01*
X454796Y229680D01*
X454747Y229607D01*
X454745Y229595D01*
X454738Y229584D01*
X454711Y229420D01*
X454711Y215924D01*
X454713Y215912D01*
X454711Y215899D01*
X454733Y215815D01*
X454750Y215729D01*
X454757Y215719D01*
X454761Y215707D01*
X454857Y215571D01*
X455631Y214797D01*
X455631Y202672D01*
X455635Y202651D01*
X455633Y202623D01*
X455717Y201770D01*
X455729Y201732D01*
X455753Y201628D01*
X456405Y200053D01*
X456428Y200020D01*
X456481Y199927D01*
X457024Y199265D01*
X457041Y199251D01*
X457057Y199229D01*
X509550Y146736D01*
X511199Y145087D01*
X511418Y144868D01*
X512848Y143438D01*
X513327Y142959D01*
X515631Y137397D01*
X515631Y134406D01*
X515631Y106170D01*
X515633Y106158D01*
X515631Y106145D01*
X515653Y106061D01*
X515670Y105975D01*
X515677Y105965D01*
X515681Y105953D01*
X515777Y105817D01*
X534634Y86959D01*
X534645Y86952D01*
X534652Y86942D01*
X534727Y86898D01*
X534800Y86850D01*
X534813Y86847D01*
X534823Y86841D01*
X534988Y86813D01*
X606545Y86813D01*
X606553Y86815D01*
X606561Y86814D01*
X606650Y86835D01*
X606740Y86853D01*
X606747Y86858D01*
X606755Y86860D01*
X606828Y86914D01*
X606904Y86965D01*
X606908Y86972D01*
X606915Y86977D01*
X606961Y87056D01*
X607011Y87133D01*
X607012Y87141D01*
X607016Y87148D01*
X607044Y87313D01*
X607044Y93213D01*
X607937Y94106D01*
X616099Y94106D01*
X616111Y94108D01*
X616124Y94107D01*
X616208Y94128D01*
X616294Y94146D01*
X616304Y94153D01*
X616316Y94156D01*
X616452Y94252D01*
X626009Y103810D01*
X626014Y103817D01*
X626021Y103821D01*
X626069Y103899D01*
X626119Y103975D01*
X626121Y103984D01*
X626125Y103991D01*
X626139Y104081D01*
X626156Y104171D01*
X626154Y104179D01*
X626155Y104187D01*
X626132Y104275D01*
X626113Y104365D01*
X626108Y104372D01*
X626106Y104380D01*
X626009Y104516D01*
X625825Y104700D01*
X625825Y115963D01*
X626718Y116856D01*
X638849Y116856D01*
X638861Y116858D01*
X638874Y116857D01*
X638958Y116878D01*
X639044Y116896D01*
X639054Y116903D01*
X639066Y116906D01*
X639165Y116976D01*
X687188Y116976D01*
X687247Y116941D01*
X687320Y116892D01*
X687332Y116890D01*
X687343Y116884D01*
X687507Y116856D01*
X694082Y116856D01*
X694975Y115963D01*
X694975Y109389D01*
X694977Y109376D01*
X694975Y109364D01*
X694997Y109279D01*
X695014Y109194D01*
X695021Y109183D01*
X695025Y109171D01*
X695121Y109035D01*
X704942Y99215D01*
X704952Y99208D01*
X704960Y99198D01*
X705035Y99153D01*
X705108Y99105D01*
X705120Y99103D01*
X705131Y99096D01*
X705295Y99068D01*
X712547Y99068D01*
X712626Y99085D01*
X712706Y99095D01*
X712725Y99105D01*
X712742Y99108D01*
X712779Y99134D01*
X712853Y99173D01*
X712890Y99202D01*
X713912Y99072D01*
X713940Y99074D01*
X713975Y99068D01*
X715006Y99068D01*
X715039Y99035D01*
X715106Y98991D01*
X715170Y98941D01*
X715190Y98935D01*
X715205Y98925D01*
X715249Y98917D01*
X715329Y98893D01*
X718947Y98434D01*
X720175Y98279D01*
X720202Y98281D01*
X720237Y98275D01*
X723565Y98275D01*
X723768Y98072D01*
X723779Y98065D01*
X723786Y98055D01*
X723861Y98011D01*
X723934Y97962D01*
X723946Y97960D01*
X723957Y97953D01*
X724121Y97926D01*
X755650Y97926D01*
X755662Y97928D01*
X755675Y97926D01*
X755759Y97948D01*
X755845Y97965D01*
X755855Y97973D01*
X755867Y97976D01*
X756003Y98072D01*
X777434Y119503D01*
X777441Y119514D01*
X777451Y119521D01*
X777496Y119596D01*
X777544Y119669D01*
X777546Y119681D01*
X777553Y119692D01*
X777581Y119856D01*
X777581Y174625D01*
X777579Y174633D01*
X777580Y174642D01*
X777559Y174730D01*
X777541Y174820D01*
X777536Y174827D01*
X777534Y174835D01*
X777480Y174908D01*
X777428Y174984D01*
X777421Y174988D01*
X777416Y174995D01*
X777338Y175042D01*
X777261Y175091D01*
X777253Y175092D01*
X777245Y175097D01*
X777081Y175124D01*
X747713Y175124D01*
X747704Y175123D01*
X747696Y175124D01*
X747608Y175103D01*
X747518Y175085D01*
X747511Y175080D01*
X747503Y175078D01*
X747429Y175024D01*
X747354Y174972D01*
X747349Y174965D01*
X747342Y174960D01*
X747296Y174882D01*
X747247Y174805D01*
X747245Y174796D01*
X747241Y174789D01*
X747213Y174625D01*
X747213Y134643D01*
X702174Y134643D01*
X702174Y173038D01*
X702173Y173046D01*
X702174Y173054D01*
X702153Y173143D01*
X702135Y173232D01*
X702130Y173239D01*
X702128Y173247D01*
X702074Y173321D01*
X702022Y173396D01*
X702015Y173401D01*
X702010Y173408D01*
X701932Y173454D01*
X701855Y173503D01*
X701846Y173505D01*
X701839Y173509D01*
X701675Y173537D01*
X661988Y173537D01*
X661979Y173535D01*
X661971Y173536D01*
X661883Y173515D01*
X661793Y173497D01*
X661786Y173492D01*
X661778Y173490D01*
X661704Y173437D01*
X661629Y173385D01*
X661624Y173378D01*
X661617Y173373D01*
X661571Y173294D01*
X661522Y173217D01*
X661520Y173209D01*
X661516Y173202D01*
X661488Y173038D01*
X661488Y144168D01*
X612481Y144168D01*
X612481Y173038D01*
X612479Y173046D01*
X612480Y173054D01*
X612459Y173143D01*
X612441Y173232D01*
X612436Y173239D01*
X612434Y173247D01*
X612380Y173321D01*
X612328Y173396D01*
X612321Y173401D01*
X612316Y173408D01*
X612238Y173454D01*
X612161Y173503D01*
X612153Y173505D01*
X612145Y173509D01*
X611981Y173537D01*
X569119Y173537D01*
X569111Y173535D01*
X569102Y173536D01*
X569014Y173515D01*
X568924Y173497D01*
X568917Y173492D01*
X568909Y173490D01*
X568836Y173437D01*
X568760Y173385D01*
X568755Y173378D01*
X568749Y173373D01*
X568702Y173294D01*
X568653Y173217D01*
X568652Y173209D01*
X568647Y173202D01*
X568620Y173038D01*
X568620Y134643D01*
X557419Y134643D01*
X546871Y145192D01*
X546860Y145199D01*
G37*
G36*
X162053Y86815D02*
X162053Y86815D01*
X162061Y86814D01*
X162150Y86835D01*
X162240Y86853D01*
X162247Y86858D01*
X162255Y86860D01*
X162328Y86914D01*
X162404Y86965D01*
X162408Y86972D01*
X162415Y86977D01*
X162461Y87056D01*
X162511Y87133D01*
X162512Y87141D01*
X162516Y87148D01*
X162544Y87313D01*
X162544Y93213D01*
X163437Y94106D01*
X171599Y94106D01*
X171611Y94108D01*
X171624Y94107D01*
X171708Y94128D01*
X171794Y94146D01*
X171804Y94153D01*
X171816Y94156D01*
X171952Y94252D01*
X181509Y103810D01*
X181514Y103817D01*
X181521Y103821D01*
X181569Y103899D01*
X181619Y103975D01*
X181621Y103984D01*
X181625Y103991D01*
X181639Y104081D01*
X181656Y104171D01*
X181654Y104179D01*
X181655Y104187D01*
X181632Y104275D01*
X181613Y104365D01*
X181608Y104372D01*
X181606Y104380D01*
X181509Y104516D01*
X181325Y104700D01*
X181325Y115963D01*
X182218Y116856D01*
X194349Y116856D01*
X194361Y116858D01*
X194374Y116857D01*
X194458Y116878D01*
X194544Y116896D01*
X194554Y116903D01*
X194566Y116906D01*
X194665Y116976D01*
X242688Y116976D01*
X242747Y116941D01*
X242820Y116892D01*
X242832Y116890D01*
X242843Y116884D01*
X243007Y116856D01*
X249582Y116856D01*
X250475Y115963D01*
X250475Y109389D01*
X250477Y109376D01*
X250475Y109364D01*
X250497Y109279D01*
X250514Y109194D01*
X250521Y109183D01*
X250525Y109171D01*
X250621Y109035D01*
X260442Y99215D01*
X260452Y99208D01*
X260460Y99198D01*
X260535Y99153D01*
X260608Y99105D01*
X260620Y99103D01*
X260631Y99096D01*
X260795Y99068D01*
X268047Y99068D01*
X268126Y99085D01*
X268206Y99095D01*
X268225Y99105D01*
X268242Y99108D01*
X268279Y99134D01*
X268353Y99173D01*
X268390Y99202D01*
X269412Y99072D01*
X269440Y99074D01*
X269475Y99068D01*
X270506Y99068D01*
X270539Y99035D01*
X270606Y98991D01*
X270670Y98941D01*
X270690Y98935D01*
X270705Y98925D01*
X270749Y98917D01*
X270829Y98893D01*
X274447Y98434D01*
X275675Y98279D01*
X275702Y98281D01*
X275737Y98275D01*
X279065Y98275D01*
X279268Y98072D01*
X279279Y98065D01*
X279286Y98055D01*
X279361Y98011D01*
X279434Y97962D01*
X279446Y97960D01*
X279457Y97953D01*
X279621Y97926D01*
X311150Y97926D01*
X311162Y97928D01*
X311175Y97926D01*
X311259Y97948D01*
X311345Y97965D01*
X311355Y97973D01*
X311367Y97976D01*
X311503Y98072D01*
X332934Y119503D01*
X332941Y119514D01*
X332951Y119521D01*
X332996Y119596D01*
X333044Y119669D01*
X333046Y119681D01*
X333053Y119692D01*
X333081Y119856D01*
X333081Y174625D01*
X333079Y174633D01*
X333080Y174642D01*
X333059Y174730D01*
X333041Y174820D01*
X333036Y174827D01*
X333034Y174835D01*
X332980Y174908D01*
X332928Y174984D01*
X332921Y174988D01*
X332916Y174995D01*
X332838Y175042D01*
X332761Y175091D01*
X332753Y175092D01*
X332745Y175097D01*
X332581Y175124D01*
X303213Y175124D01*
X303204Y175123D01*
X303196Y175124D01*
X303108Y175103D01*
X303018Y175085D01*
X303011Y175080D01*
X303003Y175078D01*
X302929Y175024D01*
X302854Y174972D01*
X302849Y174965D01*
X302842Y174960D01*
X302796Y174882D01*
X302747Y174805D01*
X302745Y174796D01*
X302741Y174789D01*
X302713Y174625D01*
X302713Y134643D01*
X257674Y134643D01*
X257674Y173038D01*
X257673Y173046D01*
X257674Y173054D01*
X257653Y173143D01*
X257635Y173232D01*
X257630Y173239D01*
X257628Y173247D01*
X257574Y173321D01*
X257522Y173396D01*
X257515Y173401D01*
X257510Y173408D01*
X257432Y173454D01*
X257355Y173503D01*
X257346Y173505D01*
X257339Y173509D01*
X257175Y173537D01*
X217488Y173537D01*
X217479Y173535D01*
X217471Y173536D01*
X217383Y173515D01*
X217293Y173497D01*
X217286Y173492D01*
X217278Y173490D01*
X217204Y173437D01*
X217129Y173385D01*
X217124Y173378D01*
X217117Y173373D01*
X217071Y173294D01*
X217022Y173217D01*
X217020Y173209D01*
X217016Y173202D01*
X216988Y173038D01*
X216988Y144168D01*
X167981Y144168D01*
X167981Y173038D01*
X167979Y173046D01*
X167980Y173054D01*
X167959Y173143D01*
X167941Y173232D01*
X167936Y173239D01*
X167934Y173247D01*
X167880Y173321D01*
X167828Y173396D01*
X167821Y173401D01*
X167816Y173408D01*
X167738Y173454D01*
X167661Y173503D01*
X167653Y173505D01*
X167645Y173509D01*
X167481Y173537D01*
X124619Y173537D01*
X124611Y173535D01*
X124602Y173536D01*
X124514Y173515D01*
X124424Y173497D01*
X124417Y173492D01*
X124409Y173490D01*
X124336Y173437D01*
X124260Y173385D01*
X124255Y173378D01*
X124249Y173373D01*
X124202Y173294D01*
X124153Y173217D01*
X124152Y173209D01*
X124147Y173202D01*
X124120Y173038D01*
X124120Y134643D01*
X112919Y134643D01*
X102371Y145192D01*
X102360Y145199D01*
X102353Y145209D01*
X102278Y145253D01*
X102205Y145301D01*
X102193Y145304D01*
X102182Y145310D01*
X102018Y145338D01*
X97706Y145338D01*
X96813Y146231D01*
X96813Y150543D01*
X96810Y150555D01*
X96812Y150568D01*
X96791Y150652D01*
X96773Y150738D01*
X96766Y150748D01*
X96763Y150760D01*
X96667Y150896D01*
X45743Y201819D01*
X45743Y381587D01*
X47629Y383473D01*
X47636Y383484D01*
X47646Y383491D01*
X47691Y383566D01*
X47739Y383639D01*
X47741Y383651D01*
X47748Y383662D01*
X47775Y383826D01*
X47775Y383994D01*
X48668Y384887D01*
X48836Y384887D01*
X48849Y384890D01*
X48861Y384888D01*
X48946Y384909D01*
X49031Y384927D01*
X49042Y384934D01*
X49054Y384937D01*
X49190Y385033D01*
X62913Y398757D01*
X138113Y398757D01*
X138125Y398760D01*
X138137Y398758D01*
X138222Y398779D01*
X138307Y398797D01*
X138318Y398804D01*
X138330Y398807D01*
X138466Y398903D01*
X190059Y450497D01*
X190066Y450508D01*
X190076Y450515D01*
X190121Y450590D01*
X190169Y450663D01*
X190171Y450675D01*
X190178Y450686D01*
X190206Y450850D01*
X190206Y491048D01*
X190204Y491056D01*
X190205Y491064D01*
X190184Y491153D01*
X190166Y491243D01*
X190161Y491250D01*
X190159Y491258D01*
X190105Y491331D01*
X190053Y491407D01*
X190046Y491411D01*
X190041Y491418D01*
X189963Y491464D01*
X189886Y491514D01*
X189878Y491515D01*
X189870Y491519D01*
X189706Y491547D01*
X163513Y491547D01*
X163504Y491545D01*
X163496Y491547D01*
X163408Y491526D01*
X163318Y491507D01*
X163311Y491503D01*
X163303Y491501D01*
X163229Y491447D01*
X163154Y491395D01*
X163149Y491388D01*
X163142Y491383D01*
X163096Y491304D01*
X163047Y491227D01*
X163045Y491219D01*
X163041Y491212D01*
X163013Y491048D01*
X163013Y462963D01*
X155368Y455318D01*
X124874Y455318D01*
X124865Y455316D01*
X124857Y455318D01*
X124769Y455297D01*
X124679Y455278D01*
X124672Y455274D01*
X124664Y455272D01*
X124590Y455218D01*
X124515Y455166D01*
X124510Y455159D01*
X124503Y455154D01*
X124457Y455076D01*
X124408Y454998D01*
X124406Y454990D01*
X124402Y454983D01*
X124374Y454819D01*
X124374Y453780D01*
X121431Y450836D01*
X117268Y450836D01*
X114325Y453780D01*
X114325Y454819D01*
X114323Y454827D01*
X114325Y454835D01*
X114304Y454924D01*
X114285Y455014D01*
X114280Y455021D01*
X114279Y455029D01*
X114225Y455102D01*
X114173Y455178D01*
X114166Y455182D01*
X114161Y455189D01*
X114082Y455235D01*
X114005Y455285D01*
X113997Y455286D01*
X113990Y455290D01*
X113826Y455318D01*
X52726Y455318D01*
X52638Y455300D01*
X52549Y455285D01*
X52540Y455280D01*
X52532Y455278D01*
X52499Y455256D01*
X52406Y455201D01*
X50999Y454021D01*
X41209Y450458D01*
X30791Y450458D01*
X21001Y454021D01*
X19594Y455201D01*
X19515Y455244D01*
X19438Y455290D01*
X19427Y455292D01*
X19420Y455296D01*
X19380Y455300D01*
X19274Y455318D01*
X19050Y455318D01*
X19038Y455316D01*
X19025Y455317D01*
X18941Y455296D01*
X18855Y455278D01*
X18845Y455271D01*
X18833Y455268D01*
X18697Y455172D01*
X11277Y447752D01*
X11275Y447749D01*
X11273Y447748D01*
X11268Y447740D01*
X11260Y447734D01*
X11215Y447659D01*
X11167Y447586D01*
X11165Y447574D01*
X11158Y447563D01*
X11131Y447399D01*
X11131Y202672D01*
X11135Y202651D01*
X11133Y202623D01*
X11217Y201770D01*
X11229Y201732D01*
X11253Y201628D01*
X11905Y200053D01*
X11928Y200020D01*
X11981Y199927D01*
X12524Y199265D01*
X12541Y199251D01*
X12557Y199229D01*
X65050Y146736D01*
X66699Y145087D01*
X67501Y144285D01*
X68348Y143438D01*
X68827Y142959D01*
X71131Y137397D01*
X71131Y135489D01*
X71131Y106170D01*
X71133Y106158D01*
X71131Y106145D01*
X71153Y106061D01*
X71170Y105975D01*
X71177Y105965D01*
X71181Y105953D01*
X71277Y105817D01*
X90134Y86959D01*
X90145Y86952D01*
X90152Y86942D01*
X90227Y86898D01*
X90300Y86850D01*
X90313Y86847D01*
X90323Y86841D01*
X90488Y86813D01*
X162045Y86813D01*
X162053Y86815D01*
G37*
G36*
X742962Y301128D02*
X742962Y301128D01*
X742975Y301126D01*
X743059Y301148D01*
X743145Y301165D01*
X743155Y301173D01*
X743167Y301176D01*
X743303Y301272D01*
X752034Y310003D01*
X752041Y310014D01*
X752051Y310021D01*
X752096Y310096D01*
X752144Y310169D01*
X752146Y310181D01*
X752153Y310192D01*
X752181Y310356D01*
X752181Y323643D01*
X762353Y333816D01*
X762360Y333826D01*
X762370Y333834D01*
X762415Y333909D01*
X762463Y333982D01*
X762465Y333994D01*
X762472Y334005D01*
X762499Y334169D01*
X762499Y342900D01*
X762497Y342912D01*
X762499Y342925D01*
X762477Y343009D01*
X762460Y343095D01*
X762453Y343105D01*
X762449Y343117D01*
X762353Y343253D01*
X739334Y366272D01*
X739324Y366279D01*
X739316Y366289D01*
X739241Y366333D01*
X739168Y366382D01*
X739156Y366384D01*
X739145Y366390D01*
X738981Y366418D01*
X720932Y366418D01*
X718843Y368507D01*
X718843Y408781D01*
X718841Y408790D01*
X718843Y408798D01*
X718822Y408886D01*
X718803Y408976D01*
X718799Y408983D01*
X718797Y408991D01*
X718743Y409064D01*
X718691Y409140D01*
X718684Y409145D01*
X718679Y409151D01*
X718601Y409198D01*
X718523Y409247D01*
X718515Y409249D01*
X718508Y409253D01*
X718344Y409281D01*
X677863Y409281D01*
X677850Y409278D01*
X677838Y409280D01*
X677753Y409258D01*
X677668Y409241D01*
X677657Y409234D01*
X677645Y409231D01*
X677509Y409134D01*
X606866Y338491D01*
X606859Y338480D01*
X606849Y338473D01*
X606804Y338398D01*
X606756Y338325D01*
X606754Y338312D01*
X606747Y338302D01*
X606720Y338138D01*
X606720Y331788D01*
X606721Y331779D01*
X606720Y331771D01*
X606741Y331683D01*
X606759Y331593D01*
X606764Y331586D01*
X606766Y331578D01*
X606820Y331504D01*
X606872Y331429D01*
X606879Y331424D01*
X606884Y331417D01*
X606962Y331371D01*
X607039Y331322D01*
X607048Y331320D01*
X607055Y331316D01*
X607219Y331288D01*
X652463Y331288D01*
X652475Y331291D01*
X652487Y331289D01*
X652572Y331310D01*
X652657Y331328D01*
X652668Y331335D01*
X652680Y331338D01*
X652816Y331434D01*
X671719Y350338D01*
X715614Y350338D01*
X715626Y350341D01*
X715639Y350339D01*
X715723Y350360D01*
X715809Y350378D01*
X715819Y350385D01*
X715831Y350388D01*
X715967Y350484D01*
X716356Y350874D01*
X720331Y350874D01*
X720721Y350484D01*
X720731Y350477D01*
X720739Y350467D01*
X720814Y350423D01*
X720887Y350375D01*
X720899Y350372D01*
X720910Y350366D01*
X721074Y350338D01*
X727662Y350338D01*
X729309Y348691D01*
X729315Y348687D01*
X729317Y348684D01*
X729322Y348681D01*
X729327Y348674D01*
X729402Y348629D01*
X729475Y348581D01*
X729488Y348579D01*
X729498Y348572D01*
X729663Y348544D01*
X729856Y348544D01*
X732667Y345733D01*
X732667Y345540D01*
X732670Y345527D01*
X732668Y345515D01*
X732690Y345430D01*
X732707Y345345D01*
X732714Y345334D01*
X732717Y345322D01*
X732814Y345186D01*
X734124Y343876D01*
X734135Y343869D01*
X734142Y343859D01*
X734217Y343815D01*
X734290Y343766D01*
X734302Y343764D01*
X734313Y343758D01*
X734477Y343730D01*
X737794Y343730D01*
X740605Y340919D01*
X740605Y337602D01*
X740607Y337590D01*
X740606Y337577D01*
X740627Y337493D01*
X740645Y337407D01*
X740652Y337397D01*
X740655Y337385D01*
X740751Y337249D01*
X742451Y335549D01*
X742451Y328026D01*
X736393Y321968D01*
X721519Y321968D01*
X721511Y321966D01*
X721502Y321968D01*
X721414Y321947D01*
X721324Y321928D01*
X721317Y321924D01*
X721309Y321922D01*
X721236Y321868D01*
X721160Y321816D01*
X721155Y321809D01*
X721149Y321804D01*
X721102Y321726D01*
X721053Y321648D01*
X721052Y321640D01*
X721047Y321633D01*
X721020Y321469D01*
X721020Y313086D01*
X721022Y313074D01*
X721020Y313061D01*
X721042Y312977D01*
X721059Y312891D01*
X721066Y312881D01*
X721069Y312869D01*
X721166Y312733D01*
X721555Y312344D01*
X721555Y308369D01*
X721166Y307979D01*
X721159Y307969D01*
X721149Y307961D01*
X721104Y307886D01*
X721056Y307813D01*
X721054Y307801D01*
X721047Y307790D01*
X721020Y307626D01*
X721020Y307181D01*
X721022Y307169D01*
X721020Y307156D01*
X721042Y307072D01*
X721059Y306986D01*
X721066Y306976D01*
X721069Y306964D01*
X721166Y306828D01*
X726722Y301272D01*
X726733Y301265D01*
X726740Y301255D01*
X726815Y301211D01*
X726888Y301162D01*
X726900Y301160D01*
X726911Y301153D01*
X727075Y301126D01*
X742950Y301126D01*
X742962Y301128D01*
G37*
G36*
X298462Y301128D02*
X298462Y301128D01*
X298475Y301126D01*
X298559Y301148D01*
X298645Y301165D01*
X298655Y301173D01*
X298667Y301176D01*
X298803Y301272D01*
X307534Y310003D01*
X307541Y310014D01*
X307551Y310021D01*
X307596Y310096D01*
X307644Y310169D01*
X307646Y310181D01*
X307653Y310192D01*
X307681Y310356D01*
X307681Y323643D01*
X317853Y333816D01*
X317860Y333826D01*
X317870Y333834D01*
X317915Y333909D01*
X317963Y333982D01*
X317965Y333994D01*
X317972Y334005D01*
X317999Y334169D01*
X317999Y342900D01*
X317997Y342912D01*
X317999Y342925D01*
X317977Y343009D01*
X317960Y343095D01*
X317953Y343105D01*
X317949Y343117D01*
X317853Y343253D01*
X294834Y366272D01*
X294824Y366279D01*
X294816Y366289D01*
X294741Y366333D01*
X294668Y366382D01*
X294656Y366384D01*
X294645Y366390D01*
X294481Y366418D01*
X276432Y366418D01*
X274343Y368507D01*
X274343Y408781D01*
X274341Y408790D01*
X274343Y408798D01*
X274322Y408886D01*
X274303Y408976D01*
X274299Y408983D01*
X274297Y408991D01*
X274243Y409064D01*
X274191Y409140D01*
X274184Y409145D01*
X274179Y409151D01*
X274101Y409198D01*
X274023Y409247D01*
X274015Y409249D01*
X274008Y409253D01*
X273844Y409281D01*
X233363Y409281D01*
X233350Y409278D01*
X233338Y409280D01*
X233253Y409258D01*
X233168Y409241D01*
X233157Y409234D01*
X233145Y409231D01*
X233009Y409134D01*
X162366Y338491D01*
X162359Y338480D01*
X162349Y338473D01*
X162304Y338398D01*
X162256Y338325D01*
X162254Y338312D01*
X162247Y338302D01*
X162220Y338138D01*
X162220Y331788D01*
X162221Y331779D01*
X162220Y331771D01*
X162241Y331683D01*
X162259Y331593D01*
X162264Y331586D01*
X162266Y331578D01*
X162320Y331504D01*
X162372Y331429D01*
X162379Y331424D01*
X162384Y331417D01*
X162462Y331371D01*
X162539Y331322D01*
X162548Y331320D01*
X162555Y331316D01*
X162719Y331288D01*
X207963Y331288D01*
X207975Y331291D01*
X207987Y331289D01*
X208072Y331310D01*
X208157Y331328D01*
X208168Y331335D01*
X208180Y331338D01*
X208316Y331434D01*
X227219Y350338D01*
X271114Y350338D01*
X271126Y350341D01*
X271139Y350339D01*
X271223Y350360D01*
X271309Y350378D01*
X271319Y350385D01*
X271331Y350388D01*
X271467Y350484D01*
X271856Y350874D01*
X275831Y350874D01*
X276221Y350484D01*
X276231Y350477D01*
X276239Y350467D01*
X276314Y350423D01*
X276387Y350375D01*
X276399Y350372D01*
X276410Y350366D01*
X276574Y350338D01*
X283162Y350338D01*
X284809Y348691D01*
X284815Y348687D01*
X284817Y348684D01*
X284822Y348681D01*
X284827Y348674D01*
X284902Y348629D01*
X284975Y348581D01*
X284988Y348579D01*
X284998Y348572D01*
X285163Y348544D01*
X285356Y348544D01*
X288167Y345733D01*
X288167Y345540D01*
X288170Y345527D01*
X288168Y345515D01*
X288190Y345430D01*
X288207Y345345D01*
X288214Y345334D01*
X288217Y345322D01*
X288314Y345186D01*
X289624Y343876D01*
X289635Y343869D01*
X289642Y343859D01*
X289717Y343815D01*
X289790Y343766D01*
X289802Y343764D01*
X289813Y343758D01*
X289977Y343730D01*
X293294Y343730D01*
X296105Y340919D01*
X296105Y337602D01*
X296107Y337590D01*
X296106Y337577D01*
X296127Y337493D01*
X296145Y337407D01*
X296152Y337397D01*
X296155Y337385D01*
X296251Y337249D01*
X297951Y335549D01*
X297951Y328026D01*
X291893Y321968D01*
X277019Y321968D01*
X277011Y321966D01*
X277002Y321968D01*
X276914Y321947D01*
X276824Y321928D01*
X276817Y321924D01*
X276809Y321922D01*
X276736Y321868D01*
X276660Y321816D01*
X276655Y321809D01*
X276649Y321804D01*
X276602Y321726D01*
X276553Y321648D01*
X276552Y321640D01*
X276547Y321633D01*
X276520Y321469D01*
X276520Y313086D01*
X276522Y313074D01*
X276520Y313061D01*
X276542Y312977D01*
X276559Y312891D01*
X276566Y312881D01*
X276569Y312869D01*
X276666Y312733D01*
X277055Y312344D01*
X277055Y308369D01*
X276666Y307979D01*
X276659Y307969D01*
X276649Y307961D01*
X276604Y307886D01*
X276556Y307813D01*
X276554Y307801D01*
X276547Y307790D01*
X276520Y307626D01*
X276520Y307181D01*
X276522Y307169D01*
X276520Y307156D01*
X276542Y307072D01*
X276559Y306986D01*
X276566Y306976D01*
X276569Y306964D01*
X276666Y306828D01*
X282222Y301272D01*
X282233Y301265D01*
X282240Y301255D01*
X282315Y301211D01*
X282388Y301162D01*
X282400Y301160D01*
X282411Y301153D01*
X282575Y301126D01*
X298450Y301126D01*
X298462Y301128D01*
G37*
G36*
X360378Y132059D02*
X360378Y132059D01*
X360387Y132057D01*
X360475Y132078D01*
X360565Y132097D01*
X360572Y132101D01*
X360580Y132103D01*
X360653Y132157D01*
X360729Y132209D01*
X360733Y132216D01*
X360740Y132221D01*
X360787Y132300D01*
X360836Y132377D01*
X360837Y132385D01*
X360842Y132392D01*
X360869Y132556D01*
X360869Y134707D01*
X360869Y137397D01*
X363173Y142959D01*
X363652Y143438D01*
X365159Y144945D01*
X365160Y144945D01*
X365159Y144945D01*
X365301Y145087D01*
X366950Y146736D01*
X419443Y199229D01*
X419455Y199247D01*
X419476Y199265D01*
X420019Y199927D01*
X420038Y199963D01*
X420095Y200053D01*
X420747Y201628D01*
X420755Y201668D01*
X420783Y201770D01*
X420867Y202623D01*
X420865Y202645D01*
X420869Y202672D01*
X420869Y214797D01*
X421041Y214968D01*
X421047Y214979D01*
X421058Y214986D01*
X421102Y215061D01*
X421150Y215134D01*
X421153Y215147D01*
X421159Y215157D01*
X421187Y215321D01*
X421187Y230023D01*
X421184Y230035D01*
X421186Y230047D01*
X421165Y230132D01*
X421147Y230217D01*
X421140Y230228D01*
X421137Y230240D01*
X421041Y230376D01*
X420869Y230547D01*
X420869Y284163D01*
X420868Y284171D01*
X420869Y284179D01*
X420848Y284268D01*
X420830Y284357D01*
X420825Y284364D01*
X420823Y284372D01*
X420769Y284446D01*
X420717Y284521D01*
X420710Y284526D01*
X420705Y284533D01*
X420627Y284579D01*
X420550Y284628D01*
X420541Y284630D01*
X420534Y284634D01*
X420370Y284662D01*
X392113Y284662D01*
X392104Y284660D01*
X392096Y284661D01*
X392008Y284640D01*
X391918Y284622D01*
X391911Y284617D01*
X391903Y284615D01*
X391829Y284562D01*
X391754Y284510D01*
X391749Y284503D01*
X391742Y284498D01*
X391696Y284419D01*
X391647Y284342D01*
X391645Y284334D01*
X391641Y284327D01*
X391613Y284163D01*
X391613Y249444D01*
X386349Y244181D01*
X364331Y244181D01*
X364323Y244179D01*
X364315Y244180D01*
X364226Y244159D01*
X364136Y244141D01*
X364129Y244136D01*
X364121Y244134D01*
X364048Y244080D01*
X363972Y244028D01*
X363968Y244021D01*
X363961Y244016D01*
X363915Y243938D01*
X363865Y243861D01*
X363864Y243853D01*
X363860Y243845D01*
X363832Y243681D01*
X363832Y188326D01*
X360009Y184503D01*
X360002Y184492D01*
X359992Y184485D01*
X359948Y184410D01*
X359900Y184337D01*
X359897Y184325D01*
X359891Y184314D01*
X359863Y184150D01*
X359863Y180388D01*
X350484Y171009D01*
X350477Y170999D01*
X350467Y170991D01*
X350423Y170916D01*
X350375Y170843D01*
X350372Y170831D01*
X350366Y170820D01*
X350338Y170656D01*
X350338Y132556D01*
X350340Y132548D01*
X350339Y132540D01*
X350360Y132451D01*
X350378Y132361D01*
X350383Y132354D01*
X350385Y132346D01*
X350439Y132273D01*
X350490Y132197D01*
X350497Y132193D01*
X350502Y132186D01*
X350581Y132140D01*
X350658Y132090D01*
X350666Y132089D01*
X350673Y132085D01*
X350838Y132057D01*
X360370Y132057D01*
X360378Y132059D01*
G37*
G36*
X804878Y132059D02*
X804878Y132059D01*
X804887Y132057D01*
X804975Y132078D01*
X805065Y132097D01*
X805072Y132101D01*
X805080Y132103D01*
X805153Y132157D01*
X805229Y132209D01*
X805233Y132216D01*
X805240Y132221D01*
X805287Y132300D01*
X805336Y132377D01*
X805337Y132385D01*
X805342Y132392D01*
X805369Y132556D01*
X805369Y134699D01*
X805369Y137397D01*
X807673Y142959D01*
X809801Y145087D01*
X811450Y146736D01*
X863943Y199229D01*
X863955Y199247D01*
X863976Y199265D01*
X864519Y199927D01*
X864538Y199963D01*
X864595Y200053D01*
X865247Y201628D01*
X865255Y201668D01*
X865283Y201770D01*
X865367Y202623D01*
X865365Y202645D01*
X865369Y202672D01*
X865369Y284163D01*
X865368Y284171D01*
X865369Y284179D01*
X865348Y284268D01*
X865330Y284357D01*
X865325Y284364D01*
X865323Y284372D01*
X865269Y284446D01*
X865217Y284521D01*
X865210Y284526D01*
X865205Y284533D01*
X865127Y284579D01*
X865050Y284628D01*
X865041Y284630D01*
X865034Y284634D01*
X864870Y284662D01*
X836613Y284662D01*
X836604Y284660D01*
X836596Y284661D01*
X836508Y284640D01*
X836418Y284622D01*
X836411Y284617D01*
X836403Y284615D01*
X836329Y284562D01*
X836254Y284510D01*
X836249Y284503D01*
X836242Y284498D01*
X836196Y284419D01*
X836147Y284342D01*
X836145Y284334D01*
X836141Y284327D01*
X836113Y284163D01*
X836113Y249444D01*
X830849Y244181D01*
X808831Y244181D01*
X808823Y244179D01*
X808815Y244180D01*
X808726Y244159D01*
X808636Y244141D01*
X808629Y244136D01*
X808621Y244134D01*
X808548Y244080D01*
X808472Y244028D01*
X808468Y244021D01*
X808461Y244016D01*
X808415Y243938D01*
X808365Y243861D01*
X808364Y243853D01*
X808360Y243845D01*
X808332Y243681D01*
X808332Y188326D01*
X804509Y184503D01*
X804502Y184492D01*
X804492Y184485D01*
X804448Y184410D01*
X804400Y184337D01*
X804397Y184325D01*
X804391Y184314D01*
X804363Y184150D01*
X804363Y180388D01*
X794984Y171009D01*
X794977Y170999D01*
X794967Y170991D01*
X794923Y170916D01*
X794875Y170843D01*
X794872Y170831D01*
X794866Y170820D01*
X794838Y170656D01*
X794838Y132556D01*
X794840Y132548D01*
X794839Y132540D01*
X794860Y132451D01*
X794878Y132361D01*
X794883Y132354D01*
X794885Y132346D01*
X794939Y132273D01*
X794990Y132197D01*
X794997Y132193D01*
X795002Y132186D01*
X795081Y132140D01*
X795158Y132090D01*
X795166Y132089D01*
X795173Y132085D01*
X795338Y132057D01*
X804870Y132057D01*
X804878Y132059D01*
G37*
G36*
X767540Y346372D02*
X767540Y346372D01*
X767552Y346370D01*
X767636Y346392D01*
X767722Y346409D01*
X767732Y346416D01*
X767745Y346419D01*
X767880Y346516D01*
X768837Y347473D01*
X769405Y347473D01*
X769418Y347475D01*
X769430Y347473D01*
X769514Y347495D01*
X769600Y347512D01*
X769611Y347519D01*
X769623Y347523D01*
X769758Y347619D01*
X772672Y350532D01*
X772679Y350543D01*
X772689Y350550D01*
X772733Y350625D01*
X772782Y350698D01*
X772784Y350711D01*
X772790Y350721D01*
X772818Y350885D01*
X772818Y376031D01*
X773421Y376633D01*
X773428Y376644D01*
X773438Y376651D01*
X773482Y376726D01*
X773530Y376799D01*
X773533Y376812D01*
X773539Y376822D01*
X773567Y376986D01*
X773567Y383028D01*
X776071Y385532D01*
X788513Y397974D01*
X788520Y397984D01*
X788530Y397992D01*
X788574Y398066D01*
X788622Y398139D01*
X788625Y398152D01*
X788631Y398163D01*
X788659Y398327D01*
X788659Y419134D01*
X788656Y419147D01*
X788658Y419159D01*
X788637Y419243D01*
X788619Y419329D01*
X788612Y419340D01*
X788609Y419352D01*
X788513Y419487D01*
X775847Y432153D01*
X775836Y432160D01*
X775829Y432170D01*
X775754Y432215D01*
X775681Y432263D01*
X775669Y432265D01*
X775658Y432272D01*
X775494Y432299D01*
X756852Y432299D01*
X756840Y432297D01*
X756827Y432299D01*
X756743Y432277D01*
X756657Y432260D01*
X756647Y432253D01*
X756635Y432249D01*
X756499Y432153D01*
X725015Y400669D01*
X725008Y400658D01*
X724998Y400651D01*
X724953Y400576D01*
X724905Y400503D01*
X724903Y400490D01*
X724896Y400480D01*
X724868Y400316D01*
X724868Y397165D01*
X723875Y394767D01*
X721166Y392057D01*
X721159Y392047D01*
X721149Y392039D01*
X721104Y391964D01*
X721056Y391891D01*
X721054Y391879D01*
X721047Y391868D01*
X721020Y391704D01*
X721020Y372269D01*
X721022Y372256D01*
X721020Y372244D01*
X721042Y372160D01*
X721059Y372074D01*
X721066Y372063D01*
X721069Y372051D01*
X721166Y371916D01*
X724341Y368741D01*
X724351Y368734D01*
X724359Y368724D01*
X724434Y368679D01*
X724507Y368631D01*
X724519Y368629D01*
X724530Y368622D01*
X724694Y368595D01*
X739568Y368595D01*
X761647Y346516D01*
X761658Y346509D01*
X761665Y346499D01*
X761740Y346454D01*
X761813Y346406D01*
X761825Y346404D01*
X761836Y346397D01*
X762000Y346370D01*
X767527Y346370D01*
X767540Y346372D01*
G37*
G36*
X323040Y346372D02*
X323040Y346372D01*
X323052Y346370D01*
X323136Y346392D01*
X323222Y346409D01*
X323232Y346416D01*
X323245Y346419D01*
X323380Y346516D01*
X324337Y347473D01*
X324905Y347473D01*
X324918Y347475D01*
X324930Y347473D01*
X325014Y347495D01*
X325100Y347512D01*
X325111Y347519D01*
X325123Y347523D01*
X325258Y347619D01*
X328172Y350532D01*
X328179Y350543D01*
X328189Y350550D01*
X328233Y350625D01*
X328282Y350698D01*
X328284Y350711D01*
X328290Y350721D01*
X328318Y350885D01*
X328318Y376031D01*
X328921Y376633D01*
X328928Y376644D01*
X328938Y376651D01*
X328982Y376726D01*
X329030Y376799D01*
X329033Y376812D01*
X329039Y376822D01*
X329067Y376986D01*
X329067Y383028D01*
X344013Y397974D01*
X344020Y397984D01*
X344030Y397992D01*
X344074Y398066D01*
X344122Y398139D01*
X344125Y398152D01*
X344131Y398163D01*
X344159Y398327D01*
X344159Y419134D01*
X344156Y419147D01*
X344158Y419159D01*
X344137Y419243D01*
X344119Y419329D01*
X344112Y419340D01*
X344109Y419352D01*
X344013Y419487D01*
X331347Y432153D01*
X331336Y432160D01*
X331329Y432170D01*
X331254Y432215D01*
X331181Y432263D01*
X331169Y432265D01*
X331158Y432272D01*
X330994Y432299D01*
X312352Y432299D01*
X312340Y432297D01*
X312327Y432299D01*
X312243Y432277D01*
X312157Y432260D01*
X312147Y432253D01*
X312135Y432249D01*
X311999Y432153D01*
X280515Y400669D01*
X280508Y400658D01*
X280498Y400651D01*
X280453Y400576D01*
X280405Y400503D01*
X280403Y400490D01*
X280396Y400480D01*
X280368Y400316D01*
X280368Y397165D01*
X279375Y394767D01*
X276666Y392057D01*
X276659Y392047D01*
X276649Y392039D01*
X276604Y391964D01*
X276556Y391891D01*
X276554Y391879D01*
X276547Y391868D01*
X276520Y391704D01*
X276520Y372269D01*
X276522Y372256D01*
X276520Y372244D01*
X276542Y372160D01*
X276559Y372074D01*
X276566Y372063D01*
X276569Y372051D01*
X276666Y371916D01*
X279841Y368741D01*
X279851Y368734D01*
X279859Y368724D01*
X279934Y368679D01*
X280007Y368631D01*
X280019Y368629D01*
X280030Y368622D01*
X280194Y368595D01*
X295068Y368595D01*
X317147Y346516D01*
X317158Y346509D01*
X317165Y346499D01*
X317240Y346454D01*
X317313Y346406D01*
X317325Y346404D01*
X317336Y346397D01*
X317500Y346370D01*
X323027Y346370D01*
X323040Y346372D01*
G37*
G36*
X806462Y254297D02*
X806462Y254297D01*
X806475Y254295D01*
X806559Y254317D01*
X806645Y254334D01*
X806655Y254341D01*
X806667Y254344D01*
X806803Y254441D01*
X813947Y261584D01*
X813954Y261595D01*
X813964Y261602D01*
X814008Y261677D01*
X814057Y261750D01*
X814059Y261763D01*
X814065Y261773D01*
X814093Y261938D01*
X814093Y284956D01*
X814091Y284969D01*
X814092Y284981D01*
X814071Y285065D01*
X814053Y285151D01*
X814046Y285162D01*
X814043Y285174D01*
X813947Y285309D01*
X808391Y290866D01*
X808380Y290873D01*
X808373Y290883D01*
X808298Y290927D01*
X808225Y290975D01*
X808212Y290978D01*
X808202Y290984D01*
X808038Y291012D01*
X800894Y291012D01*
X800881Y291009D01*
X800869Y291011D01*
X800785Y290990D01*
X800699Y290972D01*
X800688Y290965D01*
X800676Y290962D01*
X800541Y290866D01*
X800096Y290421D01*
X800089Y290410D01*
X800079Y290403D01*
X800034Y290328D01*
X799986Y290255D01*
X799984Y290243D01*
X799977Y290232D01*
X799950Y290068D01*
X799950Y261478D01*
X799747Y261276D01*
X799740Y261265D01*
X799730Y261258D01*
X799686Y261183D01*
X799637Y261110D01*
X799635Y261097D01*
X799628Y261087D01*
X799601Y260923D01*
X799601Y255588D01*
X799603Y255575D01*
X799601Y255563D01*
X799623Y255478D01*
X799640Y255393D01*
X799648Y255382D01*
X799651Y255370D01*
X799747Y255234D01*
X800541Y254441D01*
X800551Y254434D01*
X800559Y254424D01*
X800634Y254379D01*
X800707Y254331D01*
X800719Y254329D01*
X800730Y254322D01*
X800894Y254295D01*
X806450Y254295D01*
X806462Y254297D01*
G37*
G36*
X361962Y254297D02*
X361962Y254297D01*
X361975Y254295D01*
X362059Y254317D01*
X362145Y254334D01*
X362155Y254341D01*
X362167Y254344D01*
X362303Y254441D01*
X369447Y261584D01*
X369454Y261595D01*
X369464Y261602D01*
X369508Y261677D01*
X369557Y261750D01*
X369559Y261763D01*
X369565Y261773D01*
X369593Y261938D01*
X369593Y284956D01*
X369591Y284969D01*
X369592Y284981D01*
X369571Y285065D01*
X369553Y285151D01*
X369546Y285162D01*
X369543Y285174D01*
X369447Y285309D01*
X363891Y290866D01*
X363880Y290873D01*
X363873Y290883D01*
X363798Y290927D01*
X363725Y290975D01*
X363712Y290978D01*
X363702Y290984D01*
X363538Y291012D01*
X356394Y291012D01*
X356381Y291009D01*
X356369Y291011D01*
X356285Y290990D01*
X356199Y290972D01*
X356188Y290965D01*
X356176Y290962D01*
X356041Y290866D01*
X355596Y290421D01*
X355589Y290410D01*
X355579Y290403D01*
X355534Y290328D01*
X355486Y290255D01*
X355484Y290243D01*
X355477Y290232D01*
X355450Y290068D01*
X355450Y261478D01*
X355247Y261276D01*
X355240Y261265D01*
X355230Y261258D01*
X355186Y261183D01*
X355137Y261110D01*
X355135Y261097D01*
X355128Y261087D01*
X355101Y260923D01*
X355101Y255588D01*
X355103Y255575D01*
X355101Y255563D01*
X355123Y255478D01*
X355140Y255393D01*
X355148Y255382D01*
X355151Y255370D01*
X355247Y255234D01*
X356041Y254441D01*
X356051Y254434D01*
X356059Y254424D01*
X356134Y254379D01*
X356207Y254331D01*
X356219Y254329D01*
X356230Y254322D01*
X356394Y254295D01*
X361950Y254295D01*
X361962Y254297D01*
G37*
D10*
X104688Y157163D03*
X139788Y157163D03*
D11*
X187650Y274188D03*
X187650Y280688D03*
X187650Y287188D03*
X187650Y293688D03*
X187650Y300188D03*
X187650Y306688D03*
X187650Y313188D03*
X244150Y313188D03*
X244150Y306688D03*
X244150Y300188D03*
X244150Y293688D03*
X244150Y287188D03*
X244150Y280688D03*
X244150Y274188D03*
D12*
X193300Y68600D02*
X181500Y68600D01*
X181500Y72500D01*
X193300Y72500D01*
X193300Y68600D01*
X193300Y69835D02*
X181500Y69835D01*
X181500Y71070D02*
X193300Y71070D01*
X193300Y72305D02*
X181500Y72305D01*
X181500Y76600D02*
X193300Y76600D01*
X181500Y76600D02*
X181500Y80500D01*
X193300Y80500D01*
X193300Y76600D01*
X193300Y77835D02*
X181500Y77835D01*
X181500Y79070D02*
X193300Y79070D01*
X193300Y80305D02*
X181500Y80305D01*
X181500Y84600D02*
X193300Y84600D01*
X181500Y84600D02*
X181500Y88500D01*
X193300Y88500D01*
X193300Y84600D01*
X193300Y85835D02*
X181500Y85835D01*
X181500Y87070D02*
X193300Y87070D01*
X193300Y88305D02*
X181500Y88305D01*
X181500Y92600D02*
X193300Y92600D01*
X181500Y92600D02*
X181500Y96500D01*
X193300Y96500D01*
X193300Y92600D01*
X193300Y93835D02*
X181500Y93835D01*
X181500Y95070D02*
X193300Y95070D01*
X193300Y96305D02*
X181500Y96305D01*
X238500Y92600D02*
X250300Y92600D01*
X238500Y92600D02*
X238500Y96500D01*
X250300Y96500D01*
X250300Y92600D01*
X250300Y93835D02*
X238500Y93835D01*
X238500Y95070D02*
X250300Y95070D01*
X250300Y96305D02*
X238500Y96305D01*
X238500Y84600D02*
X250300Y84600D01*
X238500Y84600D02*
X238500Y88500D01*
X250300Y88500D01*
X250300Y84600D01*
X250300Y85835D02*
X238500Y85835D01*
X238500Y87070D02*
X250300Y87070D01*
X250300Y88305D02*
X238500Y88305D01*
X238500Y76600D02*
X250300Y76600D01*
X238500Y76600D02*
X238500Y80500D01*
X250300Y80500D01*
X250300Y76600D01*
X250300Y77835D02*
X238500Y77835D01*
X238500Y79070D02*
X250300Y79070D01*
X250300Y80305D02*
X238500Y80305D01*
X238500Y68600D02*
X250300Y68600D01*
X238500Y68600D02*
X238500Y72500D01*
X250300Y72500D01*
X250300Y68600D01*
X250300Y69835D02*
X238500Y69835D01*
X238500Y71070D02*
X250300Y71070D01*
X250300Y72305D02*
X238500Y72305D01*
D13*
X226450Y110331D03*
X243450Y110331D03*
D14*
X262731Y70081D03*
X262731Y87081D03*
D13*
X188350Y110331D03*
X205350Y110331D03*
X187094Y53975D03*
X170094Y53975D03*
D14*
X169069Y70081D03*
X169069Y87081D03*
D13*
X224400Y53975D03*
X207400Y53975D03*
X261706Y53975D03*
X244706Y53975D03*
D15*
X122850Y498062D02*
X115850Y498062D01*
X122850Y498062D02*
X122850Y491062D01*
X115850Y491062D01*
X115850Y498062D01*
X115850Y493912D02*
X122850Y493912D01*
X122850Y496762D02*
X115850Y496762D01*
X115850Y480522D02*
X122850Y480522D01*
X122850Y473522D01*
X115850Y473522D01*
X115850Y480522D01*
X115850Y476372D02*
X122850Y476372D01*
X122850Y479222D02*
X115850Y479222D01*
X106975Y498062D02*
X99975Y498062D01*
X106975Y498062D02*
X106975Y491062D01*
X99975Y491062D01*
X99975Y498062D01*
X99975Y493912D02*
X106975Y493912D01*
X106975Y496762D02*
X99975Y496762D01*
X99975Y480522D02*
X106975Y480522D01*
X106975Y473522D01*
X99975Y473522D01*
X99975Y480522D01*
X99975Y476372D02*
X106975Y476372D01*
X106975Y479222D02*
X99975Y479222D01*
D10*
X198350Y157163D03*
X233450Y157163D03*
X291219Y157163D03*
X326319Y157163D03*
D16*
X412433Y275661D03*
X412433Y295661D03*
X412433Y315661D03*
X412433Y335661D03*
X412433Y355661D03*
X412433Y375661D03*
X412433Y395661D03*
D17*
X190500Y37306D03*
X215900Y37306D03*
X241300Y37306D03*
D18*
X203200Y467043D02*
X203200Y482283D01*
X177800Y482283D02*
X177800Y467043D01*
X152400Y467043D02*
X152400Y482283D01*
X228600Y482283D02*
X228600Y467043D01*
X254000Y467043D02*
X254000Y482283D01*
X279400Y482283D02*
X279400Y467043D01*
D10*
X55650Y342106D03*
X20550Y342106D03*
X55650Y311150D03*
X20550Y311150D03*
X55650Y280194D03*
X20550Y280194D03*
X55650Y249238D03*
X20550Y249238D03*
X55650Y218281D03*
X20550Y218281D03*
X55650Y373063D03*
X20550Y373063D03*
X549188Y157163D03*
X584288Y157163D03*
D11*
X632150Y274188D03*
X632150Y280688D03*
X632150Y287188D03*
X632150Y293688D03*
X632150Y300188D03*
X632150Y306688D03*
X632150Y313188D03*
X688650Y313188D03*
X688650Y306688D03*
X688650Y300188D03*
X688650Y293688D03*
X688650Y287188D03*
X688650Y280688D03*
X688650Y274188D03*
D12*
X637800Y68600D02*
X626000Y68600D01*
X626000Y72500D01*
X637800Y72500D01*
X637800Y68600D01*
X637800Y69835D02*
X626000Y69835D01*
X626000Y71070D02*
X637800Y71070D01*
X637800Y72305D02*
X626000Y72305D01*
X626000Y76600D02*
X637800Y76600D01*
X626000Y76600D02*
X626000Y80500D01*
X637800Y80500D01*
X637800Y76600D01*
X637800Y77835D02*
X626000Y77835D01*
X626000Y79070D02*
X637800Y79070D01*
X637800Y80305D02*
X626000Y80305D01*
X626000Y84600D02*
X637800Y84600D01*
X626000Y84600D02*
X626000Y88500D01*
X637800Y88500D01*
X637800Y84600D01*
X637800Y85835D02*
X626000Y85835D01*
X626000Y87070D02*
X637800Y87070D01*
X637800Y88305D02*
X626000Y88305D01*
X626000Y92600D02*
X637800Y92600D01*
X626000Y92600D02*
X626000Y96500D01*
X637800Y96500D01*
X637800Y92600D01*
X637800Y93835D02*
X626000Y93835D01*
X626000Y95070D02*
X637800Y95070D01*
X637800Y96305D02*
X626000Y96305D01*
X683000Y92600D02*
X694800Y92600D01*
X683000Y92600D02*
X683000Y96500D01*
X694800Y96500D01*
X694800Y92600D01*
X694800Y93835D02*
X683000Y93835D01*
X683000Y95070D02*
X694800Y95070D01*
X694800Y96305D02*
X683000Y96305D01*
X683000Y84600D02*
X694800Y84600D01*
X683000Y84600D02*
X683000Y88500D01*
X694800Y88500D01*
X694800Y84600D01*
X694800Y85835D02*
X683000Y85835D01*
X683000Y87070D02*
X694800Y87070D01*
X694800Y88305D02*
X683000Y88305D01*
X683000Y76600D02*
X694800Y76600D01*
X683000Y76600D02*
X683000Y80500D01*
X694800Y80500D01*
X694800Y76600D01*
X694800Y77835D02*
X683000Y77835D01*
X683000Y79070D02*
X694800Y79070D01*
X694800Y80305D02*
X683000Y80305D01*
X683000Y68600D02*
X694800Y68600D01*
X683000Y68600D02*
X683000Y72500D01*
X694800Y72500D01*
X694800Y68600D01*
X694800Y69835D02*
X683000Y69835D01*
X683000Y71070D02*
X694800Y71070D01*
X694800Y72305D02*
X683000Y72305D01*
D13*
X670950Y110331D03*
X687950Y110331D03*
D14*
X707231Y70081D03*
X707231Y87081D03*
D13*
X632850Y110331D03*
X649850Y110331D03*
X631594Y53975D03*
X614594Y53975D03*
D14*
X613569Y70081D03*
X613569Y87081D03*
D13*
X668900Y53975D03*
X651900Y53975D03*
X706206Y53975D03*
X689206Y53975D03*
D15*
X567350Y498062D02*
X560350Y498062D01*
X567350Y498062D02*
X567350Y491062D01*
X560350Y491062D01*
X560350Y498062D01*
X560350Y493912D02*
X567350Y493912D01*
X567350Y496762D02*
X560350Y496762D01*
X560350Y480522D02*
X567350Y480522D01*
X567350Y473522D01*
X560350Y473522D01*
X560350Y480522D01*
X560350Y476372D02*
X567350Y476372D01*
X567350Y479222D02*
X560350Y479222D01*
X551475Y498062D02*
X544475Y498062D01*
X551475Y498062D02*
X551475Y491062D01*
X544475Y491062D01*
X544475Y498062D01*
X544475Y493912D02*
X551475Y493912D01*
X551475Y496762D02*
X544475Y496762D01*
X544475Y480522D02*
X551475Y480522D01*
X551475Y473522D01*
X544475Y473522D01*
X544475Y480522D01*
X544475Y476372D02*
X551475Y476372D01*
X551475Y479222D02*
X544475Y479222D01*
D10*
X642850Y157163D03*
X677950Y157163D03*
X735719Y157163D03*
X770819Y157163D03*
D16*
X856933Y275661D03*
X856933Y295661D03*
X856933Y315661D03*
X856933Y335661D03*
X856933Y355661D03*
X856933Y375661D03*
X856933Y395661D03*
D17*
X635000Y37306D03*
X660400Y37306D03*
X685800Y37306D03*
D18*
X647700Y467043D02*
X647700Y482283D01*
X622300Y482283D02*
X622300Y467043D01*
X596900Y467043D02*
X596900Y482283D01*
X673100Y482283D02*
X673100Y467043D01*
X698500Y467043D02*
X698500Y482283D01*
X723900Y482283D02*
X723900Y467043D01*
D10*
X500150Y342106D03*
X465050Y342106D03*
X500150Y311150D03*
X465050Y311150D03*
X500150Y280194D03*
X465050Y280194D03*
X500150Y249238D03*
X465050Y249238D03*
X500150Y218281D03*
X465050Y218281D03*
X500150Y373063D03*
X465050Y373063D03*
D15*
X188350Y110331D02*
X188350Y95500D01*
X187400Y94550D01*
D19*
X100806Y164306D03*
X106363Y159544D03*
X100806Y154781D03*
X106363Y150019D03*
X288131Y162719D03*
X292894Y158750D03*
X288131Y154781D03*
X292894Y150019D03*
X192881Y162719D03*
X200025Y156369D03*
X192881Y156369D03*
X200025Y150019D03*
D20*
X203200Y444500D02*
X203200Y474663D01*
X203200Y444500D02*
X164306Y405606D01*
X146844Y388144D01*
X69056Y388144D01*
X56356Y375444D01*
X56356Y375000D02*
X56356Y342500D01*
X56356Y375000D02*
X56356Y375444D01*
X56356Y342500D02*
X56356Y282500D01*
X56356Y250000D01*
X56356Y222250D01*
X56356Y219075D01*
X56356Y222250D02*
X92869Y185738D01*
X103894Y185738D01*
D19*
X51845Y365416D03*
X52388Y302419D03*
X52388Y293688D03*
X52388Y284956D03*
X52388Y276225D03*
X328613Y429113D03*
D21*
X119350Y494562D02*
X103475Y494562D01*
X119350Y494562D02*
X121359Y496572D01*
X198753Y496572D01*
X203200Y492125D02*
X203200Y474663D01*
X203200Y492125D02*
X198753Y496572D01*
D15*
X244150Y280688D02*
X248975Y280688D01*
X255050Y274612D01*
D19*
X258763Y270900D03*
D15*
X255050Y274612D01*
D22*
X244706Y53975D02*
X224400Y53975D01*
X224400Y76431D01*
X190151Y108530D02*
X188350Y110331D01*
X190151Y108530D02*
X190151Y96468D01*
X204364Y96468D01*
X224400Y76431D01*
D23*
X256714Y42070D02*
X290489Y42070D01*
X355781Y107362D01*
X244808Y53975D02*
X244706Y53975D01*
X244808Y53975D02*
X256714Y42070D01*
D19*
X164306Y405606D03*
D22*
X194569Y405606D01*
X203531Y396644D01*
D19*
X203531Y396644D03*
D22*
X355600Y166688D02*
X355781Y166506D01*
X355781Y107362D01*
D19*
X336550Y201613D03*
X355600Y166688D03*
D22*
X198350Y157163D02*
X198350Y182650D01*
X197644Y183356D01*
X103894Y185738D02*
X103894Y157956D01*
X104688Y157163D01*
D24*
X219075Y250031D03*
X210344Y250031D03*
D21*
X219075Y250031D01*
X221456Y250031D01*
X223838Y247650D01*
X292100Y242888D02*
X293688Y241300D01*
D24*
X293688Y241300D03*
D21*
X246063Y247650D02*
X223838Y247650D01*
X246063Y247650D02*
X250825Y242888D01*
X292100Y242888D01*
X210344Y250031D02*
X199794Y260581D01*
X181769Y260581D01*
D24*
X181769Y260581D03*
D25*
X323056Y359569D03*
D15*
X102359Y165504D02*
X100806Y164306D01*
X102359Y165504D02*
X102917Y163505D01*
X103881Y160051D01*
X104245Y158748D01*
X104688Y157163D01*
X287925Y164104D02*
X288131Y162719D01*
X287925Y164104D02*
X290743Y158165D01*
X291219Y157163D01*
X55650Y218281D02*
X55000Y220000D01*
X56356Y219075D01*
X55650Y249238D02*
X55000Y250000D01*
X55869Y250000D01*
X56356Y250000D01*
X55499Y280728D02*
X55000Y282500D01*
X55499Y280728D02*
X55650Y280194D01*
X55000Y282500D02*
X56356Y282500D01*
X55650Y342106D02*
X55000Y342500D01*
X56356Y342500D01*
X55650Y373063D02*
X55000Y375000D01*
X56356Y375000D01*
D19*
X52388Y267494D03*
X52388Y258763D03*
X52388Y320675D03*
X52388Y250031D03*
X52388Y311944D03*
X94456Y169069D03*
X106363Y169069D03*
X185738Y169069D03*
X192881Y169069D03*
X200025Y162719D03*
X277813Y168275D03*
X284956Y168275D03*
X292894Y168275D03*
X185738Y162719D03*
X185738Y156369D03*
X185738Y150019D03*
X192881Y150019D03*
X200025Y169069D03*
D15*
X103881Y160051D02*
X102511Y164798D01*
X100806Y164306D01*
X99804Y162842D02*
X103881Y160051D01*
X99804Y162842D02*
X100806Y164306D01*
X102917Y163505D02*
X104709Y158900D01*
X106363Y159544D01*
X107229Y161092D02*
X102917Y163505D01*
X107229Y161092D02*
X106363Y159544D01*
X104245Y158748D02*
X99937Y156328D01*
X100806Y154781D01*
X102461Y154141D02*
X104245Y158748D01*
X102461Y154141D02*
X100806Y154781D01*
X289878Y163029D02*
X290743Y158165D01*
X289878Y163029D02*
X288131Y162719D01*
X286981Y161368D02*
X290743Y158165D01*
X286981Y161368D02*
X288131Y162719D01*
X288867Y162119D02*
X291363Y157854D01*
X292894Y158750D01*
X293505Y160415D02*
X288867Y162119D01*
X293505Y160415D02*
X292894Y158750D01*
X290025Y159678D02*
X286790Y155943D01*
X288131Y154781D01*
X289905Y154738D02*
X290025Y159678D01*
X289905Y154738D02*
X288131Y154781D01*
X55499Y280728D02*
X54088Y285463D01*
X52388Y284956D01*
X51398Y283484D02*
X55499Y280728D01*
X51398Y283484D02*
X52388Y284956D01*
X55598Y280379D02*
X51433Y277720D01*
X52388Y276225D01*
X54075Y275678D02*
X55598Y280379D01*
X54075Y275678D02*
X52388Y276225D01*
X255050Y274612D02*
X257158Y270143D01*
X258763Y270900D01*
X259519Y272504D02*
X255050Y274612D01*
X259519Y272504D02*
X258763Y270900D01*
X60529Y248358D02*
X55869Y250000D01*
X60529Y248358D02*
X61119Y250031D01*
X60509Y251697D02*
X55869Y250000D01*
X60509Y251697D02*
X61119Y250031D01*
X286670Y168733D02*
X287947Y163960D01*
X286670Y168733D02*
X284956Y168275D01*
X283925Y166831D02*
X287947Y163960D01*
X283925Y166831D02*
X284956Y168275D01*
X286666Y168747D02*
X287982Y163985D01*
X286666Y168747D02*
X284956Y168275D01*
X283937Y166823D02*
X287982Y163985D01*
X283937Y166823D02*
X284956Y168275D01*
D25*
X210344Y407988D03*
X203200Y407988D03*
X196056Y407988D03*
X210344Y415131D03*
X203200Y415131D03*
X210344Y422275D03*
X197644Y385763D03*
D19*
X326416Y410384D03*
X310237Y410569D03*
D25*
X321469Y352425D03*
D19*
X318175Y410569D03*
D25*
X281781Y377825D03*
X95250Y248444D03*
X81756Y248444D03*
X78581Y211138D03*
D19*
X316706Y210344D03*
X325438Y210344D03*
X331788Y207169D03*
X164306Y413544D03*
X172244Y413544D03*
X172244Y406400D03*
X172244Y398463D03*
X164306Y398463D03*
X156369Y405606D03*
X156369Y398463D03*
X172244Y420688D03*
X186531Y432594D03*
X192881Y438150D03*
X199231Y444500D03*
X205581Y452438D03*
X164306Y391319D03*
X172244Y391319D03*
D25*
X238919Y440531D03*
X265906Y440531D03*
X289719Y434181D03*
X266700Y415131D03*
X238919Y415131D03*
X222250Y407988D03*
D19*
X106170Y391319D03*
X105918Y340519D03*
X106190Y306930D03*
X120650Y306388D03*
X140257Y322330D03*
X150019Y337985D03*
X150813Y365919D03*
X106190Y373063D03*
X133350Y238919D03*
X148431Y254000D03*
X170656Y259556D03*
X169610Y306100D03*
D15*
X292894Y191294D02*
X292894Y168275D01*
X292894Y191294D02*
X289719Y194469D01*
D19*
X183609Y325438D03*
X53995Y381562D03*
X60325Y388144D03*
X53181Y204788D03*
X52388Y223838D03*
X63500Y194469D03*
X97631Y230188D03*
D25*
X76200Y228600D03*
D19*
X416719Y261938D03*
X404019Y239713D03*
X369094Y239713D03*
X384969Y239713D03*
X384969Y211931D03*
X410369Y196056D03*
X381794Y169069D03*
X396875Y265906D03*
D24*
X296069Y472027D03*
D26*
X296069Y458534D01*
D19*
X53073Y347298D03*
X60123Y328160D03*
D24*
X296356Y463128D03*
D19*
X313684Y428251D03*
X298756Y443179D03*
X269081Y257175D03*
D15*
X229482Y280106D02*
X229394Y280194D01*
D19*
X229394Y280194D03*
X232569Y338931D03*
X216694Y311150D03*
D15*
X216932Y311150D01*
X216932Y316395D02*
X216932Y321277D01*
X216932Y316395D02*
X216932Y311150D01*
D19*
X233450Y293600D03*
D15*
X229738Y289887D01*
X229482Y289631D01*
X229482Y285443D01*
X229482Y280106D01*
X229482Y277725D01*
X255588Y254794D02*
X264402Y254794D01*
X266700Y254794D01*
X269081Y257175D01*
X231719Y275487D02*
X229482Y277725D01*
X231719Y275487D02*
X242094Y265113D01*
X245269Y265113D01*
X255588Y254794D01*
X264402Y254794D02*
X269304Y255415D01*
X269081Y257175D01*
X267790Y258391D02*
X264402Y254794D01*
X267790Y258391D02*
X269081Y257175D01*
X227734Y280821D02*
X229482Y285443D01*
X227734Y280821D02*
X229394Y280194D01*
X231073Y280765D02*
X229482Y285443D01*
X231073Y280765D02*
X229394Y280194D01*
X231156Y280396D02*
X231719Y275487D01*
X231156Y280396D02*
X229394Y280194D01*
X228162Y278917D02*
X231719Y275487D01*
X228162Y278917D02*
X229394Y280194D01*
X232569Y338138D02*
X232569Y338931D01*
X232569Y338138D02*
X223101Y328669D01*
X216932Y321277D01*
X216932Y316395D02*
X215053Y311825D01*
X216694Y311150D01*
X218389Y311673D02*
X216932Y316395D01*
X218389Y311673D02*
X216694Y311150D01*
X229738Y289887D02*
X234207Y291995D01*
X233450Y293600D01*
X231846Y294357D02*
X229738Y289887D01*
X231846Y294357D02*
X233450Y293600D01*
D19*
X261144Y261144D03*
D15*
X297913Y262475D02*
X301625Y258763D01*
X297913Y262475D02*
X296069Y264319D01*
X265325Y264319D01*
X264319Y264319D01*
X261144Y261144D01*
D19*
X301625Y258763D03*
D15*
X265325Y264319D02*
X260611Y262836D01*
X261144Y261144D01*
X262631Y260177D02*
X265325Y264319D01*
X262631Y260177D02*
X261144Y261144D01*
X297913Y262475D02*
X300021Y258006D01*
X301625Y258763D01*
X302382Y260367D02*
X297913Y262475D01*
X302382Y260367D02*
X301625Y258763D01*
D19*
X234548Y262468D03*
D15*
X234548Y265643D01*
X232780Y267411D01*
X218106Y282085D01*
X218106Y282263D01*
D19*
X218106Y287513D03*
D15*
X218106Y282263D01*
D19*
X205581Y311150D03*
D15*
X205581Y316400D01*
X205581Y322263D01*
X228600Y345281D01*
D19*
X273844Y346075D03*
D15*
X270660Y345281D02*
X228600Y345281D01*
X232780Y267411D02*
X232774Y262470D01*
X234548Y262468D01*
X235918Y263595D02*
X232780Y267411D01*
X235918Y263595D02*
X234548Y262468D01*
X218106Y282263D02*
X219775Y286914D01*
X218106Y287513D01*
X216436Y286914D02*
X218106Y282263D01*
X216436Y286914D02*
X218106Y287513D01*
X203912Y311749D02*
X205581Y316400D01*
X203912Y311749D02*
X205581Y311150D01*
X207251Y311749D02*
X205581Y316400D01*
X207251Y311749D02*
X205581Y311150D01*
X272552Y347291D02*
X273844Y346075D01*
D19*
X226837Y211879D03*
D15*
X223124Y208167D01*
X221333Y206375D01*
X163513Y206375D01*
X155575Y214313D01*
X223124Y208167D02*
X227594Y210275D01*
X226837Y211879D01*
X225232Y212636D02*
X223124Y208167D01*
X225232Y212636D02*
X226837Y211879D01*
D25*
X143669Y214313D03*
D15*
X155575Y214313D01*
D19*
X254000Y229327D03*
X165100Y238125D03*
D15*
X175191Y246011D02*
X197644Y246011D01*
X167306Y238125D02*
X165100Y238125D01*
X169748Y240567D02*
X175191Y246011D01*
X169748Y240567D02*
X167306Y238125D01*
X248750Y229394D02*
X252413Y229394D01*
X251053Y230188D02*
X246110Y230188D01*
X252413Y229327D02*
X254000Y229327D01*
X252413Y229327D02*
X252413Y229394D01*
X246110Y230188D02*
X240133Y236165D01*
X207490Y236165D02*
X197644Y246011D01*
X207490Y236165D02*
X240133Y236165D01*
X248750Y229394D02*
X253379Y227665D01*
X254000Y229327D01*
X251053Y230188D02*
X248750Y229394D01*
X251053Y230188D02*
X253422Y231004D01*
X254000Y229327D01*
X169748Y240567D02*
X164854Y239882D01*
X165100Y238125D01*
X166407Y236926D02*
X169748Y240567D01*
X166407Y236926D02*
X165100Y238125D01*
D19*
X233363Y217488D03*
D15*
X235342Y217488D01*
X263037Y203592D02*
X268288Y203592D01*
X263037Y203592D02*
X249238Y203592D01*
X237930Y214899D01*
D19*
X268288Y203592D03*
D15*
X237930Y214899D02*
X235342Y217488D01*
X234707Y218645D02*
X237930Y214899D01*
X234707Y218645D02*
X233363Y217488D01*
X233061Y215739D02*
X237930Y214899D01*
X233061Y215739D02*
X233363Y217488D01*
X263037Y203592D02*
X267688Y201922D01*
X268288Y203592D01*
X267688Y205261D02*
X263037Y203592D01*
X267688Y205261D02*
X268288Y203592D01*
D19*
X323850Y199231D03*
X336796Y186054D03*
D15*
X327445Y195405D02*
X324849Y198001D01*
X327445Y195405D02*
X333084Y189766D01*
X336796Y186054D01*
X324849Y198232D02*
X323850Y199231D01*
X324849Y198232D02*
X324849Y198001D01*
X325477Y199938D02*
X327445Y195405D01*
X325477Y199938D02*
X323850Y199231D01*
X323044Y197651D02*
X327445Y195405D01*
X323044Y197651D02*
X323850Y199231D01*
X333084Y189766D02*
X335192Y185297D01*
X336796Y186054D01*
X337553Y187658D02*
X333084Y189766D01*
X337553Y187658D02*
X336796Y186054D01*
D19*
X159544Y229394D03*
D15*
X245269Y223044D02*
X247650Y223044D01*
X242943Y225369D02*
X236934Y231378D01*
X242943Y225369D02*
X245269Y223044D01*
X196056Y240506D02*
X177006Y240506D01*
X165894Y229394D01*
X164794Y229394D01*
D19*
X247650Y223044D03*
D15*
X164794Y229394D02*
X159544Y229394D01*
X196056Y240506D02*
X205184Y231378D01*
X236934Y231378D01*
X164794Y229394D02*
X160143Y231063D01*
X159544Y229394D01*
X160143Y227724D02*
X164794Y229394D01*
X160143Y227724D02*
X159544Y229394D01*
X242943Y225369D02*
X246373Y221812D01*
X247650Y223044D01*
X247852Y224806D02*
X242943Y225369D01*
X247852Y224806D02*
X247650Y223044D01*
D19*
X218281Y212725D03*
D15*
X227806Y223838D02*
X236703Y223838D01*
X218281Y214313D02*
X218281Y212725D01*
X221114Y217145D02*
X227806Y223838D01*
D19*
X275999Y207561D03*
D15*
X221114Y217145D02*
X218281Y214313D01*
X272286Y211273D02*
X275999Y207561D01*
X272286Y211273D02*
X272030Y211529D01*
X249011Y211529D01*
X236703Y223838D01*
X221114Y217145D02*
X217199Y214131D01*
X218281Y212725D01*
X220010Y212329D02*
X221114Y217145D01*
X220010Y212329D02*
X218281Y212725D01*
X272286Y211273D02*
X274394Y206804D01*
X275999Y207561D01*
X276755Y209165D02*
X272286Y211273D01*
X276755Y209165D02*
X275999Y207561D01*
D19*
X187104Y233584D03*
D15*
X181854Y233584D01*
X177228Y233584D01*
X115631Y215644D02*
X111919Y211931D01*
X115631Y215644D02*
X123031Y223044D01*
X166688Y223044D01*
D19*
X111919Y211931D03*
D15*
X166688Y223044D02*
X177228Y233584D01*
X181854Y233584D02*
X186504Y231914D01*
X187104Y233584D01*
X186504Y235254D02*
X181854Y233584D01*
X186504Y235254D02*
X187104Y233584D01*
X115631Y215644D02*
X111162Y213536D01*
X111919Y211931D01*
X113523Y211174D02*
X115631Y215644D01*
X113523Y211174D02*
X111919Y211931D01*
D19*
X180129Y226785D03*
D15*
X166863Y215106D02*
X165100Y215106D01*
X178542Y226785D02*
X180129Y226785D01*
X178542Y226785D02*
X175709Y223952D01*
D19*
X165100Y215106D03*
D15*
X169588Y217831D02*
X175709Y223952D01*
X169588Y217831D02*
X166863Y215106D01*
X175709Y223952D02*
X180525Y225056D01*
X180129Y226785D01*
X178724Y227867D02*
X175709Y223952D01*
X178724Y227867D02*
X180129Y226785D01*
X169588Y217831D02*
X164746Y216845D01*
X165100Y215106D01*
X166479Y213990D02*
X169588Y217831D01*
X166479Y213990D02*
X165100Y215106D01*
D19*
X329406Y165100D03*
X329406Y157163D03*
X322263Y156369D03*
X329406Y150019D03*
X229394Y163513D03*
X229394Y150019D03*
X229394Y156369D03*
X236538Y150019D03*
X138906Y164306D03*
X142875Y158750D03*
X137319Y153988D03*
X142081Y150019D03*
D20*
X177800Y463550D02*
X177800Y474663D01*
X147638Y433388D02*
X45244Y433388D01*
X23019Y411163D01*
X23019Y209385D02*
X105403Y127000D01*
X141288Y127000D01*
X233363Y127000D01*
X316706Y127000D01*
X147638Y433388D02*
X177800Y463550D01*
X23019Y411163D02*
X23019Y375000D01*
X23019Y342500D01*
X23019Y312500D01*
X23019Y282500D01*
X23019Y250000D01*
X23019Y220000D01*
X23019Y209385D01*
D22*
X138994Y156369D02*
X139788Y157163D01*
X138994Y156369D02*
X138994Y129294D01*
X141288Y127000D01*
X233450Y127088D02*
X233450Y157163D01*
X233450Y127088D02*
X233363Y127000D01*
X326319Y136613D02*
X326319Y157163D01*
X326319Y136613D02*
X316706Y127000D01*
D15*
X20550Y218281D02*
X20000Y220000D01*
X23019Y220000D01*
X139788Y157163D02*
X140000Y150000D01*
X142081Y150019D01*
X20550Y249238D02*
X20000Y250000D01*
X23019Y250000D01*
X20550Y280194D02*
X20000Y282500D01*
X23019Y282500D01*
X20550Y311150D02*
X20000Y312500D01*
X23019Y312500D01*
X20550Y342106D02*
X20000Y342500D01*
X23019Y342500D01*
X20550Y373063D02*
X20000Y375000D01*
X23019Y375000D01*
X244335Y164789D02*
X229394Y150019D01*
X239568Y161449D02*
X244335Y164789D01*
D19*
X322263Y150019D03*
X314325Y163513D03*
X314325Y149225D03*
X314325Y156369D03*
X221456Y156369D03*
X221456Y163513D03*
X221456Y149225D03*
X221456Y142081D03*
X128588Y164306D03*
X133350Y158750D03*
X128588Y153988D03*
X133350Y149225D03*
X134144Y168275D03*
X128588Y142875D03*
X226219Y169069D03*
X236538Y157163D03*
X314325Y142081D03*
X322263Y163513D03*
X318294Y169069D03*
X324644Y169069D03*
X236538Y163513D03*
X233363Y169069D03*
D15*
X239568Y161449D02*
X234431Y157850D01*
X233450Y157163D01*
X233127Y153710D02*
X228646Y151628D01*
X229394Y150019D01*
X230994Y149253D02*
X233127Y153710D01*
X230994Y149253D02*
X229394Y150019D01*
X229498Y158140D02*
X234431Y157850D01*
X229498Y158140D02*
X229394Y156369D01*
X230440Y154936D02*
X234431Y157850D01*
X230440Y154936D02*
X229394Y156369D01*
X143900Y157302D02*
X139868Y154446D01*
X143900Y157302D02*
X142875Y158750D01*
X141163Y159215D02*
X139868Y154446D01*
X141163Y159215D02*
X142875Y158750D01*
X138976Y154622D02*
X140742Y150007D01*
X138976Y154622D02*
X137319Y153988D01*
X136444Y152444D02*
X140742Y150007D01*
X136444Y152444D02*
X137319Y153988D01*
X139858Y154775D02*
X140315Y149855D01*
X142081Y150019D01*
X143340Y151269D02*
X139858Y154775D01*
X143340Y151269D02*
X142081Y150019D01*
X235520Y158616D02*
X239568Y161449D01*
X235520Y158616D02*
X236538Y157163D01*
X238247Y156688D02*
X239568Y161449D01*
X238247Y156688D02*
X236538Y157163D01*
D19*
X209317Y212673D03*
D15*
X208472Y213519D01*
X204136Y213519D01*
D19*
X174625Y213519D03*
D15*
X179875Y213519D02*
X204136Y213519D01*
X179875Y213519D02*
X174625Y213519D01*
X204136Y213519D02*
X208457Y211122D01*
X209317Y212673D01*
X208995Y214417D02*
X204136Y213519D01*
X208995Y214417D02*
X209317Y212673D01*
X179875Y213519D02*
X175224Y215188D01*
X174625Y213519D01*
X175224Y211849D02*
X179875Y213519D01*
X175224Y211849D02*
X174625Y213519D01*
X170094Y53975D02*
X170656Y53413D01*
X170656Y46038D01*
X179388Y37306D01*
X180340Y37306D01*
X190500Y37306D01*
D23*
X187649Y32741D02*
X180340Y37306D01*
X187649Y32741D02*
X190500Y37306D01*
X187649Y41871D02*
X180340Y37306D01*
X187649Y41871D02*
X190500Y37306D01*
D15*
X257175Y87081D02*
X262731Y87081D01*
X257175Y87081D02*
X249706Y94550D01*
X244400Y94550D01*
X262731Y87081D02*
X264319Y85494D01*
X287338Y85494D01*
X312341Y93266D02*
X338138Y119063D01*
X338138Y175419D01*
D25*
X288925Y203200D03*
D15*
X288925Y207169D01*
X292770Y214188D02*
X303213Y224631D01*
X289493Y207737D02*
X288925Y207169D01*
X303213Y224631D02*
X334963Y224631D01*
X347663Y184944D02*
X338138Y175419D01*
X347663Y211931D02*
X334963Y224631D01*
X347663Y211931D02*
X347663Y184944D01*
X292770Y214188D02*
X289493Y207737D01*
X287545Y203901D01*
X288925Y203200D01*
X290435Y203539D02*
X289493Y207737D01*
X290435Y203539D02*
X288925Y203200D01*
X295109Y93266D02*
X287338Y85494D01*
X295109Y93266D02*
X312341Y93266D01*
X230188Y110331D02*
X226450Y110331D01*
X236506Y86550D02*
X244400Y86550D01*
X230188Y92869D02*
X230188Y110331D01*
X230188Y92869D02*
X236506Y86550D01*
D22*
X226450Y110331D02*
X205350Y110331D01*
D15*
X246719Y70550D02*
X261706Y55563D01*
X246719Y70550D02*
X244400Y70550D01*
X261706Y55563D02*
X261706Y53975D01*
D19*
X273844Y398463D03*
D15*
X273613Y398694D01*
D19*
X223838Y379644D03*
X183525Y352425D03*
X360363Y286544D03*
D15*
X253561Y287188D02*
X244150Y287188D01*
X253561Y287188D02*
X258050Y287188D01*
X258763Y287900D01*
D19*
X258763Y287900D03*
D22*
X261706Y53975D02*
X269875Y53975D01*
X285271Y69371D01*
X296384Y69371D01*
X305115Y78103D01*
X313053Y78103D01*
X183525Y352425D02*
X218366Y387266D01*
X218366Y386472D02*
X230356Y398463D01*
X273844Y398463D01*
X273844Y403225D01*
X310356Y439738D01*
X333375Y439738D01*
X273844Y398463D02*
X269875Y394494D01*
X269875Y369094D01*
X277726Y361243D01*
X285233Y361243D01*
X305867Y340609D01*
D19*
X288925Y311944D03*
D22*
X305867Y328886D02*
X305867Y340609D01*
X305867Y328886D02*
X288925Y311944D01*
D24*
X313053Y78103D03*
D22*
X223838Y379644D02*
X218366Y385116D01*
X218366Y386472D01*
X218366Y387266D01*
D15*
X223838Y379644D02*
X227500Y380000D01*
X224322Y381350D02*
X223838Y379644D01*
X224549Y378019D01*
X253561Y287188D02*
X258395Y286164D01*
X258763Y287900D01*
X257942Y289473D02*
X253561Y287188D01*
X257942Y289473D02*
X258763Y287900D01*
D25*
X356163Y244475D03*
D22*
X356163Y254327D01*
X363020Y261185D01*
D19*
X360363Y272256D03*
X365125Y279400D03*
D25*
X268288Y394494D03*
X271463Y388144D03*
X302419Y311944D03*
X280988Y318294D03*
X296069Y318294D03*
D19*
X183356Y344488D03*
X183356Y336550D03*
X175419Y336550D03*
X167481Y336550D03*
X175419Y344488D03*
D25*
X284163Y305374D03*
X296356Y305374D03*
X313531Y334963D03*
D19*
X244475Y359569D03*
X244475Y381794D03*
X235744Y370681D03*
D24*
X350889Y414067D03*
D22*
X350890Y422222D01*
X333375Y439738D01*
D24*
X351464Y422967D03*
D15*
X187400Y86550D02*
X169600Y86550D01*
X169069Y87081D01*
X163928Y83906D02*
X155483Y75462D01*
X120460Y75462D01*
X165894Y83906D02*
X169069Y87081D01*
X165894Y83906D02*
X163928Y83906D01*
D19*
X120460Y75462D03*
D15*
X187400Y78550D02*
X199306Y78550D01*
X207869Y69988D01*
X207869Y54444D01*
X207400Y53975D01*
D22*
X187094Y53975D01*
D19*
X283369Y343746D03*
D15*
X241352Y338190D02*
X223044Y319881D01*
X277813Y338190D02*
X279656Y340033D01*
X283369Y343746D01*
X277813Y338190D02*
X241352Y338190D01*
X197644Y293688D02*
X187650Y293688D01*
X197644Y293688D02*
X208359Y304403D01*
X221059Y304403D01*
X223044Y306388D01*
X223044Y319881D01*
X279656Y340033D02*
X284126Y342141D01*
X283369Y343746D01*
X281764Y344503D02*
X279656Y340033D01*
X281764Y344503D02*
X283369Y343746D01*
D19*
X291306Y338931D03*
D15*
X188305Y286532D02*
X187650Y287188D01*
X188305Y286532D02*
X197632Y286532D01*
X210344Y299244D01*
X287594Y335219D02*
X291306Y338931D01*
X287594Y335219D02*
X284956Y332581D01*
X242888Y332581D01*
X223044Y299244D02*
X210344Y299244D01*
X223044Y299244D02*
X228600Y304800D01*
X228600Y318294D01*
X242888Y332581D01*
X287594Y335219D02*
X292063Y337327D01*
X291306Y338931D01*
X289702Y339688D02*
X287594Y335219D01*
X289702Y339688D02*
X291306Y338931D01*
D19*
X292894Y330200D03*
D15*
X213567Y294481D02*
X199506Y280421D01*
X187917Y280421D02*
X187650Y280688D01*
X187917Y280421D02*
X199506Y280421D01*
X289181Y326488D02*
X292894Y330200D01*
X289181Y326488D02*
X288925Y326231D01*
X244475Y326231D01*
X233759Y315516D01*
X233759Y302816D01*
X225425Y294481D01*
X213567Y294481D01*
X289181Y326488D02*
X293651Y328596D01*
X292894Y330200D01*
X291289Y330957D02*
X289181Y326488D01*
X291289Y330957D02*
X292894Y330200D01*
X187994Y273844D02*
X187650Y274188D01*
X187994Y273844D02*
X211931Y273844D01*
X247650Y255588D02*
X253206Y250031D01*
X311150Y250031D01*
X318547Y257428D01*
X323850Y262731D01*
X230188Y255588D02*
X211931Y273844D01*
X230188Y255588D02*
X247650Y255588D01*
D24*
X323850Y262731D03*
D15*
X324930Y260450D02*
X318547Y257428D01*
X324930Y260450D02*
X323850Y262731D01*
X321569Y263811D02*
X318547Y257428D01*
X321569Y263811D02*
X323850Y262731D01*
X405606Y315661D02*
X412433Y315661D01*
X326231Y328613D02*
X318691Y321072D01*
X318691Y306784D02*
X293852Y281945D01*
X279581Y281962D02*
X277813Y280194D01*
X274638Y280194D01*
D19*
X274638Y280194D03*
D15*
X326231Y328613D02*
X392655Y328613D01*
X404508Y316759D01*
X405606Y315661D01*
X293852Y281945D02*
X279581Y281962D01*
X274640Y281968D01*
X274638Y280194D01*
X275764Y278824D02*
X279581Y281962D01*
X275764Y278824D02*
X274638Y280194D01*
D23*
X404508Y316759D02*
X409855Y312457D01*
X412433Y315661D01*
X410823Y319445D02*
X404508Y316759D01*
X410823Y319445D02*
X412433Y315661D01*
D15*
X318691Y321072D02*
X318691Y306784D01*
X281781Y296863D02*
X272256Y306388D01*
X272256Y310356D01*
D19*
X272256Y310356D03*
D15*
X324549Y335661D02*
X404432Y335661D01*
X412433Y335661D01*
D23*
X410319Y332134D02*
X404432Y335661D01*
X410319Y332134D02*
X412433Y335661D01*
X410319Y339188D02*
X404432Y335661D01*
X410319Y339188D02*
X412433Y335661D01*
D15*
X300038Y296863D02*
X281781Y296863D01*
X300038Y296863D02*
X311785Y308610D01*
X311785Y322898D01*
X324549Y335661D01*
X404432Y395661D02*
X412433Y395661D01*
X404432Y395661D02*
X372739Y395661D01*
D23*
X404432Y395661D02*
X410319Y392134D01*
X412433Y395661D01*
X410319Y399188D02*
X404432Y395661D01*
X410319Y399188D02*
X412433Y395661D01*
D19*
X367175Y392736D03*
D15*
X369815Y392736D01*
X372739Y395661D01*
X187400Y70550D02*
X169538Y70550D01*
X169069Y70081D01*
D19*
X120346Y66844D03*
X142081Y231048D03*
D15*
X162652Y251619D01*
X198438Y251619D01*
X262731Y231775D02*
X309563Y231775D01*
X343694Y265906D01*
X343694Y315930D01*
D19*
X348574Y320810D03*
D15*
X343694Y315930D01*
D19*
X348574Y344623D03*
D15*
X348574Y352766D01*
X243284Y240903D02*
X247889Y236299D01*
X258207Y236299D01*
X262731Y231775D01*
X243284Y240903D02*
X209153Y240903D01*
X198438Y251619D01*
X120035Y68591D02*
X120346Y66844D01*
X121697Y65694D01*
X362829Y367021D02*
X362829Y368523D01*
D19*
X362829Y368523D03*
D15*
X362829Y367021D02*
X348574Y352766D01*
X165832Y66844D02*
X120346Y66844D01*
X165832Y66844D02*
X169069Y70081D01*
D19*
X119350Y455861D03*
D21*
X119350Y477022D01*
X103475Y477022D02*
X88840Y477022D01*
X79066Y467249D01*
D19*
X79066Y467249D03*
X361950Y298450D03*
D15*
X365662Y294738D01*
X374219Y286181D01*
X374219Y255394D01*
D19*
X374219Y250144D03*
D15*
X374219Y255394D01*
X365662Y294738D02*
X363554Y299207D01*
X361950Y298450D01*
X361193Y296846D02*
X365662Y294738D01*
X361193Y296846D02*
X361950Y298450D01*
X374219Y255394D02*
X372549Y250743D01*
X374219Y250144D01*
X375888Y250743D02*
X374219Y255394D01*
X375888Y250743D02*
X374219Y250144D01*
X381794Y252466D02*
X381794Y288726D01*
X364450Y306069D01*
X361156Y309363D01*
X361156Y310157D01*
D19*
X361156Y310157D03*
D15*
X362832Y310738D02*
X364450Y306069D01*
X362832Y310738D02*
X361156Y310157D01*
X360232Y308642D02*
X364450Y306069D01*
X360232Y308642D02*
X361156Y310157D01*
X381794Y252466D02*
X383854Y252466D01*
D19*
X383854Y252466D03*
D24*
X328613Y494813D03*
D27*
X328593Y494813D01*
X323343Y500063D01*
X270669Y500063D01*
X254000Y483394D02*
X254000Y474663D01*
X254000Y483394D02*
X270669Y500063D01*
D24*
X341313Y483394D03*
D27*
X339758Y481840D01*
X286577Y481840D01*
X279400Y474663D01*
D25*
X326835Y295275D03*
X326835Y319088D03*
X326231Y342900D03*
X315913Y451644D03*
D26*
X338113Y451644D01*
X361147Y409416D02*
X333092Y381361D01*
X333092Y349760D02*
X326231Y342900D01*
X333092Y349760D02*
X333092Y381361D01*
X361147Y428610D02*
X338113Y451644D01*
X361147Y428610D02*
X361147Y409416D01*
X326835Y319088D02*
X326835Y295275D01*
D25*
X336550Y298450D03*
X334963Y319088D03*
D19*
X354013Y447675D03*
D26*
X369472Y432216D01*
X369472Y405644D01*
X334963Y300038D02*
X336550Y298450D01*
X334963Y300038D02*
X334963Y319088D01*
D19*
X339616Y343348D03*
D26*
X339616Y375788D01*
X369472Y405644D01*
D15*
X244475Y110331D02*
X243450Y110331D01*
X244475Y110331D02*
X258763Y96044D01*
X275515Y95250D02*
X277813Y95250D01*
X269253Y96044D02*
X258763Y96044D01*
X277813Y95250D02*
X280194Y92869D01*
D19*
X280194Y92869D03*
D15*
X278902Y91653D02*
X275515Y95250D01*
X278902Y91653D02*
X280194Y92869D01*
X275515Y95250D02*
X269253Y96044D01*
X275515Y95250D02*
X280417Y94629D01*
X280194Y92869D01*
X254263Y78550D02*
X244400Y78550D01*
X254263Y78550D02*
X262731Y70081D01*
X265113Y70081D01*
D19*
X357154Y344623D03*
D15*
X360866Y348335D01*
D19*
X357305Y321604D03*
D15*
X357305Y317872D01*
X352425Y312991D01*
X352425Y262731D01*
X345102Y116733D02*
X316194Y87825D01*
X345102Y116733D02*
X345102Y172244D01*
X345194Y255500D02*
X352425Y262731D01*
X345194Y255500D02*
X345194Y228688D01*
X354806Y181948D02*
X345102Y172244D01*
X354806Y219075D02*
X345194Y228688D01*
X354806Y219075D02*
X354806Y181948D01*
X360866Y348335D02*
X360899Y348350D01*
X360866Y348335D02*
X356397Y346227D01*
X357154Y344623D01*
X358759Y343866D02*
X360866Y348335D01*
X358759Y343866D02*
X357154Y344623D01*
D19*
X392906Y367506D03*
D15*
X380055Y367506D01*
X363115Y350566D01*
X360899Y348350D01*
X275316Y80284D02*
X265113Y70081D01*
X275316Y80284D02*
X292100Y80284D01*
X299641Y87825D01*
X316194Y87825D01*
X632850Y95500D02*
X632850Y110331D01*
X632850Y95500D02*
X631900Y94550D01*
D19*
X545306Y164306D03*
X550863Y159544D03*
X545306Y154781D03*
X550863Y150019D03*
X732631Y162719D03*
X737394Y158750D03*
X732631Y154781D03*
X737394Y150019D03*
X637381Y162719D03*
X644525Y156369D03*
X637381Y156369D03*
X644525Y150019D03*
D20*
X647700Y444500D02*
X647700Y474663D01*
X647700Y444500D02*
X608806Y405606D01*
X591344Y388144D01*
X513556Y388144D01*
X500856Y375444D01*
X500856Y375000D02*
X500856Y342500D01*
X500856Y375000D02*
X500856Y375444D01*
X500856Y342500D02*
X500856Y282500D01*
X500856Y250000D01*
X500856Y222250D01*
X500856Y219075D01*
X500856Y222250D02*
X537369Y185738D01*
X548394Y185738D01*
D19*
X496345Y365416D03*
X496888Y302419D03*
X496888Y293688D03*
X496888Y284956D03*
X496888Y276225D03*
X773113Y429113D03*
D21*
X563850Y494562D02*
X547975Y494562D01*
X563850Y494562D02*
X565859Y496572D01*
X643253Y496572D01*
X647700Y492125D02*
X647700Y474663D01*
X647700Y492125D02*
X643253Y496572D01*
D15*
X688650Y280688D02*
X693475Y280688D01*
X699550Y274612D01*
D19*
X703263Y270900D03*
D15*
X699550Y274612D01*
D22*
X689206Y53975D02*
X668900Y53975D01*
X668900Y76431D01*
X634651Y108530D02*
X632850Y110331D01*
X634651Y108530D02*
X634651Y96468D01*
X648864Y96468D01*
X668900Y76431D01*
D23*
X701214Y42070D02*
X734989Y42070D01*
X800281Y107362D01*
X689308Y53975D02*
X689206Y53975D01*
X689308Y53975D02*
X701214Y42070D01*
D19*
X608806Y405606D03*
D22*
X639069Y405606D01*
X648031Y396644D01*
D19*
X648031Y396644D03*
D22*
X800100Y166688D02*
X800281Y166506D01*
X800281Y107362D01*
D19*
X781050Y201613D03*
X800100Y166688D03*
D22*
X642850Y157163D02*
X642850Y182650D01*
X642144Y183356D01*
X548394Y185738D02*
X548394Y157956D01*
X549188Y157163D01*
D24*
X663575Y250031D03*
X654844Y250031D03*
D21*
X663575Y250031D01*
X665956Y250031D01*
X668338Y247650D01*
X736600Y242888D02*
X738188Y241300D01*
D24*
X738188Y241300D03*
D21*
X690563Y247650D02*
X668338Y247650D01*
X690563Y247650D02*
X695325Y242888D01*
X736600Y242888D01*
X654844Y250031D02*
X644294Y260581D01*
X626269Y260581D01*
D24*
X626269Y260581D03*
D25*
X767556Y359569D03*
D15*
X546859Y165504D02*
X545306Y164306D01*
X546859Y165504D02*
X547417Y163505D01*
X548381Y160051D01*
X548745Y158748D01*
X549188Y157163D01*
X732425Y164104D02*
X732631Y162719D01*
X732425Y164104D02*
X735243Y158165D01*
X735719Y157163D01*
X500150Y218281D02*
X499500Y220000D01*
X500856Y219075D01*
X500150Y249238D02*
X499500Y250000D01*
X500369Y250000D01*
X500856Y250000D01*
X499999Y280728D02*
X499500Y282500D01*
X499999Y280728D02*
X500150Y280194D01*
X499500Y282500D02*
X500856Y282500D01*
X500150Y342106D02*
X499500Y342500D01*
X500856Y342500D01*
X500150Y373063D02*
X499500Y375000D01*
X500856Y375000D01*
D19*
X496888Y267494D03*
X496888Y258763D03*
X496888Y320675D03*
X496888Y250031D03*
X496888Y311944D03*
X538956Y169069D03*
X550863Y169069D03*
X630238Y169069D03*
X637381Y169069D03*
X644525Y162719D03*
X722313Y168275D03*
X729456Y168275D03*
X737394Y168275D03*
X630238Y162719D03*
X630238Y156369D03*
X630238Y150019D03*
X637381Y150019D03*
X644525Y169069D03*
D15*
X548381Y160051D02*
X547011Y164798D01*
X545306Y164306D01*
X544304Y162842D02*
X548381Y160051D01*
X544304Y162842D02*
X545306Y164306D01*
X547417Y163505D02*
X549209Y158900D01*
X550863Y159544D01*
X551729Y161092D02*
X547417Y163505D01*
X551729Y161092D02*
X550863Y159544D01*
X548745Y158748D02*
X544437Y156328D01*
X545306Y154781D01*
X546961Y154141D02*
X548745Y158748D01*
X546961Y154141D02*
X545306Y154781D01*
X734378Y163029D02*
X735243Y158165D01*
X734378Y163029D02*
X732631Y162719D01*
X731481Y161368D02*
X735243Y158165D01*
X731481Y161368D02*
X732631Y162719D01*
X733367Y162119D02*
X735863Y157854D01*
X737394Y158750D01*
X738005Y160415D02*
X733367Y162119D01*
X738005Y160415D02*
X737394Y158750D01*
X734525Y159678D02*
X731290Y155943D01*
X732631Y154781D01*
X734405Y154738D02*
X734525Y159678D01*
X734405Y154738D02*
X732631Y154781D01*
X499999Y280728D02*
X498588Y285463D01*
X496888Y284956D01*
X495898Y283484D02*
X499999Y280728D01*
X495898Y283484D02*
X496888Y284956D01*
X500098Y280379D02*
X495933Y277720D01*
X496888Y276225D01*
X498575Y275678D02*
X500098Y280379D01*
X498575Y275678D02*
X496888Y276225D01*
X699550Y274612D02*
X701658Y270143D01*
X703263Y270900D01*
X704019Y272504D02*
X699550Y274612D01*
X704019Y272504D02*
X703263Y270900D01*
X505029Y248358D02*
X500369Y250000D01*
X505029Y248358D02*
X505619Y250031D01*
X505009Y251697D02*
X500369Y250000D01*
X505009Y251697D02*
X505619Y250031D01*
X731170Y168733D02*
X732447Y163960D01*
X731170Y168733D02*
X729456Y168275D01*
X728425Y166831D02*
X732447Y163960D01*
X728425Y166831D02*
X729456Y168275D01*
X731166Y168747D02*
X732482Y163985D01*
X731166Y168747D02*
X729456Y168275D01*
X728437Y166823D02*
X732482Y163985D01*
X728437Y166823D02*
X729456Y168275D01*
D25*
X654844Y407988D03*
X647700Y407988D03*
X640556Y407988D03*
X654844Y415131D03*
X647700Y415131D03*
X654844Y422275D03*
X642144Y385763D03*
D19*
X770916Y410384D03*
X754737Y410569D03*
D25*
X765969Y352425D03*
D19*
X762675Y410569D03*
D25*
X726281Y377825D03*
X539750Y248444D03*
X526256Y248444D03*
X523081Y211138D03*
D19*
X761206Y210344D03*
X769938Y210344D03*
X776288Y207169D03*
X608806Y413544D03*
X616744Y413544D03*
X616744Y406400D03*
X616744Y398463D03*
X608806Y398463D03*
X600869Y405606D03*
X600869Y398463D03*
X616744Y420688D03*
X631031Y432594D03*
X637381Y438150D03*
X643731Y444500D03*
X650081Y452438D03*
X608806Y391319D03*
X616744Y391319D03*
D25*
X683419Y440531D03*
X710406Y440531D03*
X734219Y434181D03*
X711200Y415131D03*
X683419Y415131D03*
X666750Y407988D03*
D19*
X550670Y391319D03*
X550418Y340519D03*
X550690Y306930D03*
X565150Y306388D03*
X584757Y322330D03*
X594519Y337985D03*
X595313Y365919D03*
X550690Y373063D03*
X577850Y238919D03*
X592931Y254000D03*
X615156Y259556D03*
X614110Y306100D03*
D15*
X737394Y191294D02*
X737394Y168275D01*
X737394Y191294D02*
X734219Y194469D01*
D19*
X628109Y325438D03*
X498495Y381562D03*
X504825Y388144D03*
X497681Y204788D03*
X496888Y223838D03*
X508000Y194469D03*
X542131Y230188D03*
D25*
X520700Y228600D03*
D19*
X861219Y261938D03*
X848519Y239713D03*
X813594Y239713D03*
X829469Y239713D03*
X829469Y211931D03*
X854869Y196056D03*
X826294Y169069D03*
X841375Y265906D03*
D24*
X740569Y472027D03*
D26*
X740569Y458534D01*
D19*
X497573Y347298D03*
X504623Y328160D03*
D24*
X740856Y463128D03*
D19*
X758184Y428251D03*
X743256Y443179D03*
X713581Y257175D03*
D15*
X673982Y280106D02*
X673894Y280194D01*
D19*
X673894Y280194D03*
X677069Y338931D03*
X661194Y311150D03*
D15*
X661432Y311150D01*
X661432Y316395D02*
X661432Y321277D01*
X661432Y316395D02*
X661432Y311150D01*
D19*
X677950Y293600D03*
D15*
X674238Y289887D01*
X673982Y289631D01*
X673982Y285443D01*
X673982Y280106D01*
X673982Y277725D01*
X700088Y254794D02*
X708902Y254794D01*
X711200Y254794D01*
X713581Y257175D01*
X676219Y275487D02*
X673982Y277725D01*
X676219Y275487D02*
X686594Y265113D01*
X689769Y265113D01*
X700088Y254794D01*
X708902Y254794D02*
X713804Y255415D01*
X713581Y257175D01*
X712290Y258391D02*
X708902Y254794D01*
X712290Y258391D02*
X713581Y257175D01*
X672234Y280821D02*
X673982Y285443D01*
X672234Y280821D02*
X673894Y280194D01*
X675573Y280765D02*
X673982Y285443D01*
X675573Y280765D02*
X673894Y280194D01*
X675656Y280396D02*
X676219Y275487D01*
X675656Y280396D02*
X673894Y280194D01*
X672662Y278917D02*
X676219Y275487D01*
X672662Y278917D02*
X673894Y280194D01*
X677069Y338138D02*
X677069Y338931D01*
X677069Y338138D02*
X667601Y328669D01*
X661432Y321277D01*
X661432Y316395D02*
X659553Y311825D01*
X661194Y311150D01*
X662889Y311673D02*
X661432Y316395D01*
X662889Y311673D02*
X661194Y311150D01*
X674238Y289887D02*
X678707Y291995D01*
X677950Y293600D01*
X676346Y294357D02*
X674238Y289887D01*
X676346Y294357D02*
X677950Y293600D01*
D19*
X705644Y261144D03*
D15*
X742413Y262475D02*
X746125Y258763D01*
X742413Y262475D02*
X740569Y264319D01*
X709825Y264319D01*
X708819Y264319D01*
X705644Y261144D01*
D19*
X746125Y258763D03*
D15*
X709825Y264319D02*
X705111Y262836D01*
X705644Y261144D01*
X707131Y260177D02*
X709825Y264319D01*
X707131Y260177D02*
X705644Y261144D01*
X742413Y262475D02*
X744521Y258006D01*
X746125Y258763D01*
X746882Y260367D02*
X742413Y262475D01*
X746882Y260367D02*
X746125Y258763D01*
D19*
X679048Y262468D03*
D15*
X679048Y265643D01*
X677280Y267411D01*
X662606Y282085D01*
X662606Y282263D01*
D19*
X662606Y287513D03*
D15*
X662606Y282263D01*
D19*
X650081Y311150D03*
D15*
X650081Y316400D01*
X650081Y322263D01*
X673100Y345281D01*
D19*
X718344Y346075D03*
D15*
X715160Y345281D02*
X673100Y345281D01*
X677280Y267411D02*
X677274Y262470D01*
X679048Y262468D01*
X680418Y263595D02*
X677280Y267411D01*
X680418Y263595D02*
X679048Y262468D01*
X662606Y282263D02*
X664275Y286914D01*
X662606Y287513D01*
X660936Y286914D02*
X662606Y282263D01*
X660936Y286914D02*
X662606Y287513D01*
X648412Y311749D02*
X650081Y316400D01*
X648412Y311749D02*
X650081Y311150D01*
X651751Y311749D02*
X650081Y316400D01*
X651751Y311749D02*
X650081Y311150D01*
X717052Y347291D02*
X718344Y346075D01*
D19*
X671337Y211879D03*
D15*
X667624Y208167D01*
X665833Y206375D01*
X608013Y206375D01*
X600075Y214313D01*
X667624Y208167D02*
X672094Y210275D01*
X671337Y211879D01*
X669732Y212636D02*
X667624Y208167D01*
X669732Y212636D02*
X671337Y211879D01*
D25*
X588169Y214313D03*
D15*
X600075Y214313D01*
D19*
X698500Y229327D03*
X609600Y238125D03*
D15*
X619691Y246011D02*
X642144Y246011D01*
X611806Y238125D02*
X609600Y238125D01*
X614248Y240567D02*
X619691Y246011D01*
X614248Y240567D02*
X611806Y238125D01*
X693250Y229394D02*
X696913Y229394D01*
X695553Y230188D02*
X690610Y230188D01*
X696913Y229327D02*
X698500Y229327D01*
X696913Y229327D02*
X696913Y229394D01*
X690610Y230188D02*
X684633Y236165D01*
X651990Y236165D02*
X642144Y246011D01*
X651990Y236165D02*
X684633Y236165D01*
X693250Y229394D02*
X697879Y227665D01*
X698500Y229327D01*
X695553Y230188D02*
X693250Y229394D01*
X695553Y230188D02*
X697922Y231004D01*
X698500Y229327D01*
X614248Y240567D02*
X609354Y239882D01*
X609600Y238125D01*
X610907Y236926D02*
X614248Y240567D01*
X610907Y236926D02*
X609600Y238125D01*
D19*
X677863Y217488D03*
D15*
X679842Y217488D01*
X707537Y203592D02*
X712788Y203592D01*
X707537Y203592D02*
X693738Y203592D01*
X682430Y214899D01*
D19*
X712788Y203592D03*
D15*
X682430Y214899D02*
X679842Y217488D01*
X679207Y218645D02*
X682430Y214899D01*
X679207Y218645D02*
X677863Y217488D01*
X677561Y215739D02*
X682430Y214899D01*
X677561Y215739D02*
X677863Y217488D01*
X707537Y203592D02*
X712188Y201922D01*
X712788Y203592D01*
X712188Y205261D02*
X707537Y203592D01*
X712188Y205261D02*
X712788Y203592D01*
D19*
X768350Y199231D03*
X781296Y186054D03*
D15*
X771945Y195405D02*
X769349Y198001D01*
X771945Y195405D02*
X777584Y189766D01*
X781296Y186054D01*
X769349Y198232D02*
X768350Y199231D01*
X769349Y198232D02*
X769349Y198001D01*
X769977Y199938D02*
X771945Y195405D01*
X769977Y199938D02*
X768350Y199231D01*
X767544Y197651D02*
X771945Y195405D01*
X767544Y197651D02*
X768350Y199231D01*
X777584Y189766D02*
X779692Y185297D01*
X781296Y186054D01*
X782053Y187658D02*
X777584Y189766D01*
X782053Y187658D02*
X781296Y186054D01*
D19*
X604044Y229394D03*
D15*
X689769Y223044D02*
X692150Y223044D01*
X687443Y225369D02*
X681434Y231378D01*
X687443Y225369D02*
X689769Y223044D01*
X640556Y240506D02*
X621506Y240506D01*
X610394Y229394D01*
X609294Y229394D01*
D19*
X692150Y223044D03*
D15*
X609294Y229394D02*
X604044Y229394D01*
X640556Y240506D02*
X649684Y231378D01*
X681434Y231378D01*
X609294Y229394D02*
X604643Y231063D01*
X604044Y229394D01*
X604643Y227724D02*
X609294Y229394D01*
X604643Y227724D02*
X604044Y229394D01*
X687443Y225369D02*
X690873Y221812D01*
X692150Y223044D01*
X692352Y224806D02*
X687443Y225369D01*
X692352Y224806D02*
X692150Y223044D01*
D19*
X662781Y212725D03*
D15*
X672306Y223838D02*
X681203Y223838D01*
X662781Y214313D02*
X662781Y212725D01*
X665614Y217145D02*
X672306Y223838D01*
D19*
X720499Y207561D03*
D15*
X665614Y217145D02*
X662781Y214313D01*
X716786Y211273D02*
X720499Y207561D01*
X716786Y211273D02*
X716530Y211529D01*
X693511Y211529D01*
X681203Y223838D01*
X665614Y217145D02*
X661699Y214131D01*
X662781Y212725D01*
X664510Y212329D02*
X665614Y217145D01*
X664510Y212329D02*
X662781Y212725D01*
X716786Y211273D02*
X718894Y206804D01*
X720499Y207561D01*
X721255Y209165D02*
X716786Y211273D01*
X721255Y209165D02*
X720499Y207561D01*
D19*
X631604Y233584D03*
D15*
X626354Y233584D01*
X621728Y233584D01*
X560131Y215644D02*
X556419Y211931D01*
X560131Y215644D02*
X567531Y223044D01*
X611188Y223044D01*
D19*
X556419Y211931D03*
D15*
X611188Y223044D02*
X621728Y233584D01*
X626354Y233584D02*
X631004Y231914D01*
X631604Y233584D01*
X631004Y235254D02*
X626354Y233584D01*
X631004Y235254D02*
X631604Y233584D01*
X560131Y215644D02*
X555662Y213536D01*
X556419Y211931D01*
X558023Y211174D02*
X560131Y215644D01*
X558023Y211174D02*
X556419Y211931D01*
D19*
X624629Y226785D03*
D15*
X611363Y215106D02*
X609600Y215106D01*
X623042Y226785D02*
X624629Y226785D01*
X623042Y226785D02*
X620209Y223952D01*
D19*
X609600Y215106D03*
D15*
X614088Y217831D02*
X620209Y223952D01*
X614088Y217831D02*
X611363Y215106D01*
X620209Y223952D02*
X625025Y225056D01*
X624629Y226785D01*
X623224Y227867D02*
X620209Y223952D01*
X623224Y227867D02*
X624629Y226785D01*
X614088Y217831D02*
X609246Y216845D01*
X609600Y215106D01*
X610979Y213990D02*
X614088Y217831D01*
X610979Y213990D02*
X609600Y215106D01*
D19*
X773906Y165100D03*
X773906Y157163D03*
X766763Y156369D03*
X773906Y150019D03*
X673894Y163513D03*
X673894Y150019D03*
X673894Y156369D03*
X681038Y150019D03*
X583406Y164306D03*
X587375Y158750D03*
X581819Y153988D03*
X586581Y150019D03*
D20*
X622300Y463550D02*
X622300Y474663D01*
X592138Y433388D02*
X489744Y433388D01*
X467519Y411163D01*
X467519Y209385D02*
X549903Y127000D01*
X585788Y127000D01*
X677863Y127000D01*
X761206Y127000D01*
X592138Y433388D02*
X622300Y463550D01*
X467519Y411163D02*
X467519Y375000D01*
X467519Y342500D01*
X467519Y312500D01*
X467519Y282500D01*
X467519Y250000D01*
X467519Y220000D01*
X467519Y209385D01*
D22*
X583494Y156369D02*
X584288Y157163D01*
X583494Y156369D02*
X583494Y129294D01*
X585788Y127000D01*
X677950Y127088D02*
X677950Y157163D01*
X677950Y127088D02*
X677863Y127000D01*
X770819Y136613D02*
X770819Y157163D01*
X770819Y136613D02*
X761206Y127000D01*
D15*
X465050Y218281D02*
X464500Y220000D01*
X467519Y220000D01*
X584288Y157163D02*
X584500Y150000D01*
X586581Y150019D01*
X465050Y249238D02*
X464500Y250000D01*
X467519Y250000D01*
X465050Y280194D02*
X464500Y282500D01*
X467519Y282500D01*
X465050Y311150D02*
X464500Y312500D01*
X467519Y312500D01*
X465050Y342106D02*
X464500Y342500D01*
X467519Y342500D01*
X465050Y373063D02*
X464500Y375000D01*
X467519Y375000D01*
X688835Y164789D02*
X673894Y150019D01*
X684068Y161449D02*
X688835Y164789D01*
D19*
X766763Y150019D03*
X758825Y163513D03*
X758825Y149225D03*
X758825Y156369D03*
X665956Y156369D03*
X665956Y163513D03*
X665956Y149225D03*
X665956Y142081D03*
X573088Y164306D03*
X577850Y158750D03*
X573088Y153988D03*
X577850Y149225D03*
X578644Y168275D03*
X573088Y142875D03*
X670719Y169069D03*
X681038Y157163D03*
X758825Y142081D03*
X766763Y163513D03*
X762794Y169069D03*
X769144Y169069D03*
X681038Y163513D03*
X677863Y169069D03*
D15*
X684068Y161449D02*
X678931Y157850D01*
X677950Y157163D01*
X677627Y153710D02*
X673146Y151628D01*
X673894Y150019D01*
X675494Y149253D02*
X677627Y153710D01*
X675494Y149253D02*
X673894Y150019D01*
X673998Y158140D02*
X678931Y157850D01*
X673998Y158140D02*
X673894Y156369D01*
X674940Y154936D02*
X678931Y157850D01*
X674940Y154936D02*
X673894Y156369D01*
X588400Y157302D02*
X584368Y154446D01*
X588400Y157302D02*
X587375Y158750D01*
X585663Y159215D02*
X584368Y154446D01*
X585663Y159215D02*
X587375Y158750D01*
X583476Y154622D02*
X585242Y150007D01*
X583476Y154622D02*
X581819Y153988D01*
X580944Y152444D02*
X585242Y150007D01*
X580944Y152444D02*
X581819Y153988D01*
X584358Y154775D02*
X584815Y149855D01*
X586581Y150019D01*
X587840Y151269D02*
X584358Y154775D01*
X587840Y151269D02*
X586581Y150019D01*
X680020Y158616D02*
X684068Y161449D01*
X680020Y158616D02*
X681038Y157163D01*
X682747Y156688D02*
X684068Y161449D01*
X682747Y156688D02*
X681038Y157163D01*
D19*
X653817Y212673D03*
D15*
X652972Y213519D01*
X648636Y213519D01*
D19*
X619125Y213519D03*
D15*
X624375Y213519D02*
X648636Y213519D01*
X624375Y213519D02*
X619125Y213519D01*
X648636Y213519D02*
X652957Y211122D01*
X653817Y212673D01*
X653495Y214417D02*
X648636Y213519D01*
X653495Y214417D02*
X653817Y212673D01*
X624375Y213519D02*
X619724Y215188D01*
X619125Y213519D01*
X619724Y211849D02*
X624375Y213519D01*
X619724Y211849D02*
X619125Y213519D01*
X614594Y53975D02*
X615156Y53413D01*
X615156Y46038D01*
X623888Y37306D01*
X624840Y37306D01*
X635000Y37306D01*
D23*
X632149Y32741D02*
X624840Y37306D01*
X632149Y32741D02*
X635000Y37306D01*
X632149Y41871D02*
X624840Y37306D01*
X632149Y41871D02*
X635000Y37306D01*
D15*
X701675Y87081D02*
X707231Y87081D01*
X701675Y87081D02*
X694206Y94550D01*
X688900Y94550D01*
X707231Y87081D02*
X708819Y85494D01*
X731838Y85494D01*
X756841Y93266D02*
X782638Y119063D01*
X782638Y175419D01*
D25*
X733425Y203200D03*
D15*
X733425Y207169D01*
X737270Y214188D02*
X747713Y224631D01*
X733993Y207737D02*
X733425Y207169D01*
X747713Y224631D02*
X779463Y224631D01*
X792163Y184944D02*
X782638Y175419D01*
X792163Y211931D02*
X779463Y224631D01*
X792163Y211931D02*
X792163Y184944D01*
X737270Y214188D02*
X733993Y207737D01*
X732045Y203901D01*
X733425Y203200D01*
X734935Y203539D02*
X733993Y207737D01*
X734935Y203539D02*
X733425Y203200D01*
X739609Y93266D02*
X731838Y85494D01*
X739609Y93266D02*
X756841Y93266D01*
X674688Y110331D02*
X670950Y110331D01*
X681006Y86550D02*
X688900Y86550D01*
X674688Y92869D02*
X674688Y110331D01*
X674688Y92869D02*
X681006Y86550D01*
D22*
X670950Y110331D02*
X649850Y110331D01*
D15*
X691219Y70550D02*
X706206Y55563D01*
X691219Y70550D02*
X688900Y70550D01*
X706206Y55563D02*
X706206Y53975D01*
D19*
X718344Y398463D03*
D15*
X718113Y398694D01*
D19*
X668338Y379644D03*
X628025Y352425D03*
X804863Y286544D03*
D15*
X698061Y287188D02*
X688650Y287188D01*
X698061Y287188D02*
X702550Y287188D01*
X703263Y287900D01*
D19*
X703263Y287900D03*
D22*
X706206Y53975D02*
X714375Y53975D01*
X729771Y69371D01*
X740884Y69371D01*
X749615Y78103D01*
X757553Y78103D01*
X628025Y352425D02*
X662866Y387266D01*
X662866Y386472D02*
X674856Y398463D01*
X718344Y398463D01*
X718344Y403225D01*
X754856Y439738D01*
X777875Y439738D01*
X718344Y398463D02*
X714375Y394494D01*
X714375Y369094D01*
X722226Y361243D01*
X729733Y361243D01*
X750367Y340609D01*
D19*
X733425Y311944D03*
D22*
X750367Y328886D02*
X750367Y340609D01*
X750367Y328886D02*
X733425Y311944D01*
D24*
X757553Y78103D03*
D22*
X668338Y379644D02*
X662866Y385116D01*
X662866Y386472D01*
X662866Y387266D01*
D15*
X668338Y379644D02*
X672000Y380000D01*
X668822Y381350D02*
X668338Y379644D01*
X669049Y378019D01*
X698061Y287188D02*
X702895Y286164D01*
X703263Y287900D01*
X702442Y289473D02*
X698061Y287188D01*
X702442Y289473D02*
X703263Y287900D01*
D25*
X800663Y244475D03*
D22*
X800663Y254327D01*
X807520Y261185D01*
D19*
X804863Y272256D03*
X809625Y279400D03*
D25*
X712788Y394494D03*
X715963Y388144D03*
X746919Y311944D03*
X725488Y318294D03*
X740569Y318294D03*
D19*
X627856Y344488D03*
X627856Y336550D03*
X619919Y336550D03*
X611981Y336550D03*
X619919Y344488D03*
D25*
X728663Y305374D03*
X740856Y305374D03*
X758031Y334963D03*
D19*
X688975Y359569D03*
X688975Y381794D03*
X680244Y370681D03*
D24*
X795389Y414067D03*
D22*
X795390Y422222D01*
X777875Y439738D01*
D24*
X795964Y422967D03*
D15*
X631900Y86550D02*
X614100Y86550D01*
X613569Y87081D01*
X608428Y83906D02*
X599983Y75462D01*
X564960Y75462D01*
X610394Y83906D02*
X613569Y87081D01*
X610394Y83906D02*
X608428Y83906D01*
D19*
X564960Y75462D03*
D15*
X631900Y78550D02*
X643806Y78550D01*
X652369Y69988D01*
X652369Y54444D01*
X651900Y53975D01*
D22*
X631594Y53975D01*
D19*
X727869Y343746D03*
D15*
X685852Y338190D02*
X667544Y319881D01*
X722313Y338190D02*
X724156Y340033D01*
X727869Y343746D01*
X722313Y338190D02*
X685852Y338190D01*
X642144Y293688D02*
X632150Y293688D01*
X642144Y293688D02*
X652859Y304403D01*
X665559Y304403D01*
X667544Y306388D01*
X667544Y319881D01*
X724156Y340033D02*
X728626Y342141D01*
X727869Y343746D01*
X726264Y344503D02*
X724156Y340033D01*
X726264Y344503D02*
X727869Y343746D01*
D19*
X735806Y338931D03*
D15*
X632805Y286532D02*
X632150Y287188D01*
X632805Y286532D02*
X642132Y286532D01*
X654844Y299244D01*
X732094Y335219D02*
X735806Y338931D01*
X732094Y335219D02*
X729456Y332581D01*
X687388Y332581D01*
X667544Y299244D02*
X654844Y299244D01*
X667544Y299244D02*
X673100Y304800D01*
X673100Y318294D01*
X687388Y332581D01*
X732094Y335219D02*
X736563Y337327D01*
X735806Y338931D01*
X734202Y339688D02*
X732094Y335219D01*
X734202Y339688D02*
X735806Y338931D01*
D19*
X737394Y330200D03*
D15*
X658067Y294481D02*
X644006Y280421D01*
X632417Y280421D02*
X632150Y280688D01*
X632417Y280421D02*
X644006Y280421D01*
X733681Y326488D02*
X737394Y330200D01*
X733681Y326488D02*
X733425Y326231D01*
X688975Y326231D01*
X678259Y315516D01*
X678259Y302816D01*
X669925Y294481D01*
X658067Y294481D01*
X733681Y326488D02*
X738151Y328596D01*
X737394Y330200D01*
X735789Y330957D02*
X733681Y326488D01*
X735789Y330957D02*
X737394Y330200D01*
X632494Y273844D02*
X632150Y274188D01*
X632494Y273844D02*
X656431Y273844D01*
X692150Y255588D02*
X697706Y250031D01*
X755650Y250031D01*
X763047Y257428D01*
X768350Y262731D01*
X674688Y255588D02*
X656431Y273844D01*
X674688Y255588D02*
X692150Y255588D01*
D24*
X768350Y262731D03*
D15*
X769430Y260450D02*
X763047Y257428D01*
X769430Y260450D02*
X768350Y262731D01*
X766069Y263811D02*
X763047Y257428D01*
X766069Y263811D02*
X768350Y262731D01*
X850106Y315661D02*
X856933Y315661D01*
X770731Y328613D02*
X763191Y321072D01*
X763191Y306784D02*
X738352Y281945D01*
X724081Y281962D02*
X722313Y280194D01*
X719138Y280194D01*
D19*
X719138Y280194D03*
D15*
X770731Y328613D02*
X837155Y328613D01*
X849008Y316759D01*
X850106Y315661D01*
X738352Y281945D02*
X724081Y281962D01*
X719140Y281968D01*
X719138Y280194D01*
X720264Y278824D02*
X724081Y281962D01*
X720264Y278824D02*
X719138Y280194D01*
D23*
X849008Y316759D02*
X854355Y312457D01*
X856933Y315661D01*
X855323Y319445D02*
X849008Y316759D01*
X855323Y319445D02*
X856933Y315661D01*
D15*
X763191Y321072D02*
X763191Y306784D01*
X726281Y296863D02*
X716756Y306388D01*
X716756Y310356D01*
D19*
X716756Y310356D03*
D15*
X769049Y335661D02*
X848932Y335661D01*
X856933Y335661D01*
D23*
X854819Y332134D02*
X848932Y335661D01*
X854819Y332134D02*
X856933Y335661D01*
X854819Y339188D02*
X848932Y335661D01*
X854819Y339188D02*
X856933Y335661D01*
D15*
X744538Y296863D02*
X726281Y296863D01*
X744538Y296863D02*
X756285Y308610D01*
X756285Y322898D01*
X769049Y335661D01*
X848932Y395661D02*
X856933Y395661D01*
X848932Y395661D02*
X817239Y395661D01*
D23*
X848932Y395661D02*
X854819Y392134D01*
X856933Y395661D01*
X854819Y399188D02*
X848932Y395661D01*
X854819Y399188D02*
X856933Y395661D01*
D19*
X811675Y392736D03*
D15*
X814315Y392736D01*
X817239Y395661D01*
X631900Y70550D02*
X614038Y70550D01*
X613569Y70081D01*
D19*
X564846Y66844D03*
X586581Y231048D03*
D15*
X607152Y251619D01*
X642938Y251619D01*
X707231Y231775D02*
X754063Y231775D01*
X788194Y265906D01*
X788194Y315930D01*
D19*
X793074Y320810D03*
D15*
X788194Y315930D01*
D19*
X793074Y344623D03*
D15*
X793074Y352766D01*
X687784Y240903D02*
X692389Y236299D01*
X702707Y236299D01*
X707231Y231775D01*
X687784Y240903D02*
X653653Y240903D01*
X642938Y251619D01*
X564535Y68591D02*
X564846Y66844D01*
X566197Y65694D01*
X807329Y367021D02*
X807329Y368523D01*
D19*
X807329Y368523D03*
D15*
X807329Y367021D02*
X793074Y352766D01*
X610332Y66844D02*
X564846Y66844D01*
X610332Y66844D02*
X613569Y70081D01*
D19*
X563850Y455861D03*
D21*
X563850Y477022D01*
X547975Y477022D02*
X533340Y477022D01*
X523566Y467249D01*
D19*
X523566Y467249D03*
X806450Y298450D03*
D15*
X810162Y294738D01*
X818719Y286181D01*
X818719Y255394D01*
D19*
X818719Y250144D03*
D15*
X818719Y255394D01*
X810162Y294738D02*
X808054Y299207D01*
X806450Y298450D01*
X805693Y296846D02*
X810162Y294738D01*
X805693Y296846D02*
X806450Y298450D01*
X818719Y255394D02*
X817049Y250743D01*
X818719Y250144D01*
X820388Y250743D02*
X818719Y255394D01*
X820388Y250743D02*
X818719Y250144D01*
X826294Y252466D02*
X826294Y288726D01*
X808950Y306069D01*
X805656Y309363D01*
X805656Y310157D01*
D19*
X805656Y310157D03*
D15*
X807332Y310738D02*
X808950Y306069D01*
X807332Y310738D02*
X805656Y310157D01*
X804732Y308642D02*
X808950Y306069D01*
X804732Y308642D02*
X805656Y310157D01*
X826294Y252466D02*
X828354Y252466D01*
D19*
X828354Y252466D03*
D24*
X773113Y494813D03*
D27*
X773093Y494813D01*
X767843Y500063D01*
X715169Y500063D01*
X698500Y483394D02*
X698500Y474663D01*
X698500Y483394D02*
X715169Y500063D01*
D24*
X785813Y483394D03*
D27*
X784258Y481840D01*
X731077Y481840D01*
X723900Y474663D01*
D25*
X771335Y295275D03*
X771335Y319088D03*
X770731Y342900D03*
X760413Y451644D03*
D26*
X782613Y451644D01*
X805647Y409416D02*
X777592Y381361D01*
X777592Y349760D02*
X770731Y342900D01*
X777592Y349760D02*
X777592Y381361D01*
X805647Y428610D02*
X782613Y451644D01*
X805647Y428610D02*
X805647Y409416D01*
X771335Y319088D02*
X771335Y295275D01*
D25*
X781050Y298450D03*
X779463Y319088D03*
D19*
X798513Y447675D03*
D26*
X813972Y432216D01*
X813972Y405644D01*
X779463Y300038D02*
X781050Y298450D01*
X779463Y300038D02*
X779463Y319088D01*
D19*
X784116Y343348D03*
D26*
X784116Y375788D01*
X813972Y405644D01*
D15*
X688975Y110331D02*
X687950Y110331D01*
X688975Y110331D02*
X703263Y96044D01*
X720015Y95250D02*
X722313Y95250D01*
X713753Y96044D02*
X703263Y96044D01*
X722313Y95250D02*
X724694Y92869D01*
D19*
X724694Y92869D03*
D15*
X723402Y91653D02*
X720015Y95250D01*
X723402Y91653D02*
X724694Y92869D01*
X720015Y95250D02*
X713753Y96044D01*
X720015Y95250D02*
X724917Y94629D01*
X724694Y92869D01*
X698763Y78550D02*
X688900Y78550D01*
X698763Y78550D02*
X707231Y70081D01*
X709613Y70081D01*
D19*
X801654Y344623D03*
D15*
X805366Y348335D01*
D19*
X801805Y321604D03*
D15*
X801805Y317872D01*
X796925Y312991D01*
X796925Y262731D01*
X789602Y116733D02*
X760694Y87825D01*
X789602Y116733D02*
X789602Y172244D01*
X789694Y255500D02*
X796925Y262731D01*
X789694Y255500D02*
X789694Y228688D01*
X799306Y181948D02*
X789602Y172244D01*
X799306Y219075D02*
X789694Y228688D01*
X799306Y219075D02*
X799306Y181948D01*
X805366Y348335D02*
X805399Y348350D01*
X805366Y348335D02*
X800897Y346227D01*
X801654Y344623D01*
X803259Y343866D02*
X805366Y348335D01*
X803259Y343866D02*
X801654Y344623D01*
D19*
X837406Y367506D03*
D15*
X824555Y367506D01*
X807615Y350566D01*
X805399Y348350D01*
X719816Y80284D02*
X709613Y70081D01*
X719816Y80284D02*
X736600Y80284D01*
X744141Y87825D01*
X760694Y87825D01*
M02*
