G04 EAGLE Gerber RS-274X export*
G75*
%MOMM*%
%FSLAX34Y34*%
%LPD*%
%INSolderpaste Top*%
%IPPOS*%
%AMOC8*
5,1,8,0,0,1.08239X$1,22.5*%
G01*
%ADD10R,1.000000X1.100000*%
%ADD11R,2.060000X1.270000*%
%ADD12R,1.260000X1.260000*%
%ADD13C,0.067500*%
%ADD14R,2.000000X1.900000*%
%ADD15R,0.600000X1.900000*%
%ADD16R,2.100000X2.800000*%
%ADD17R,3.100000X3.500000*%
%ADD18R,1.100000X1.000000*%
%ADD19R,1.500000X0.300000*%
%ADD20R,0.300000X1.500000*%
%ADD21R,0.650000X1.050000*%
%ADD22C,0.300000*%
%ADD23R,0.620000X0.440000*%
%ADD24R,0.935000X2.800000*%
%ADD25R,1.005000X2.800000*%
%ADD26R,0.600000X1.500000*%
%ADD27C,0.147500*%
%ADD28C,3.000000*%


D10*
X181769Y277581D03*
X181769Y260581D03*
D11*
X151606Y257088D03*
X151606Y292188D03*
X89694Y257088D03*
X89694Y292188D03*
D10*
X153988Y157725D03*
X153988Y140725D03*
X86519Y157725D03*
X86519Y140725D03*
X281781Y256944D03*
X281781Y239944D03*
D12*
X215900Y245269D03*
D13*
X200513Y256756D02*
X192587Y256756D01*
X192587Y258782D01*
X200513Y258782D01*
X200513Y256756D01*
X200513Y257397D02*
X192587Y257397D01*
X192587Y258038D02*
X200513Y258038D01*
X200513Y258679D02*
X192587Y258679D01*
X192587Y251756D02*
X200513Y251756D01*
X192587Y251756D02*
X192587Y253782D01*
X200513Y253782D01*
X200513Y251756D01*
X200513Y252397D02*
X192587Y252397D01*
X192587Y253038D02*
X200513Y253038D01*
X200513Y253679D02*
X192587Y253679D01*
X192587Y246756D02*
X200513Y246756D01*
X192587Y246756D02*
X192587Y248782D01*
X200513Y248782D01*
X200513Y246756D01*
X200513Y247397D02*
X192587Y247397D01*
X192587Y248038D02*
X200513Y248038D01*
X200513Y248679D02*
X192587Y248679D01*
X192587Y241756D02*
X200513Y241756D01*
X192587Y241756D02*
X192587Y243782D01*
X200513Y243782D01*
X200513Y241756D01*
X200513Y242397D02*
X192587Y242397D01*
X192587Y243038D02*
X200513Y243038D01*
X200513Y243679D02*
X192587Y243679D01*
X192587Y236756D02*
X200513Y236756D01*
X192587Y236756D02*
X192587Y238782D01*
X200513Y238782D01*
X200513Y236756D01*
X200513Y237397D02*
X192587Y237397D01*
X192587Y238038D02*
X200513Y238038D01*
X200513Y238679D02*
X192587Y238679D01*
X192587Y231756D02*
X200513Y231756D01*
X192587Y231756D02*
X192587Y233782D01*
X200513Y233782D01*
X200513Y231756D01*
X200513Y232397D02*
X192587Y232397D01*
X192587Y233038D02*
X200513Y233038D01*
X200513Y233679D02*
X192587Y233679D01*
X231287Y231756D02*
X239213Y231756D01*
X231287Y231756D02*
X231287Y233782D01*
X239213Y233782D01*
X239213Y231756D01*
X239213Y232397D02*
X231287Y232397D01*
X231287Y233038D02*
X239213Y233038D01*
X239213Y233679D02*
X231287Y233679D01*
X231287Y236756D02*
X239213Y236756D01*
X231287Y236756D02*
X231287Y238782D01*
X239213Y238782D01*
X239213Y236756D01*
X239213Y237397D02*
X231287Y237397D01*
X231287Y238038D02*
X239213Y238038D01*
X239213Y238679D02*
X231287Y238679D01*
X231287Y241756D02*
X239213Y241756D01*
X231287Y241756D02*
X231287Y243782D01*
X239213Y243782D01*
X239213Y241756D01*
X239213Y242397D02*
X231287Y242397D01*
X231287Y243038D02*
X239213Y243038D01*
X239213Y243679D02*
X231287Y243679D01*
X231287Y246756D02*
X239213Y246756D01*
X231287Y246756D02*
X231287Y248782D01*
X239213Y248782D01*
X239213Y246756D01*
X239213Y247397D02*
X231287Y247397D01*
X231287Y248038D02*
X239213Y248038D01*
X239213Y248679D02*
X231287Y248679D01*
X231287Y251756D02*
X239213Y251756D01*
X231287Y251756D02*
X231287Y253782D01*
X239213Y253782D01*
X239213Y251756D01*
X239213Y252397D02*
X231287Y252397D01*
X231287Y253038D02*
X239213Y253038D01*
X239213Y253679D02*
X231287Y253679D01*
X231287Y256756D02*
X239213Y256756D01*
X231287Y256756D02*
X231287Y258782D01*
X239213Y258782D01*
X239213Y256756D01*
X239213Y257397D02*
X231287Y257397D01*
X231287Y258038D02*
X239213Y258038D01*
X239213Y258679D02*
X231287Y258679D01*
X227387Y260656D02*
X227387Y268582D01*
X229413Y268582D01*
X229413Y260656D01*
X227387Y260656D01*
X227387Y261297D02*
X229413Y261297D01*
X229413Y261938D02*
X227387Y261938D01*
X227387Y262579D02*
X229413Y262579D01*
X229413Y263220D02*
X227387Y263220D01*
X227387Y263861D02*
X229413Y263861D01*
X229413Y264502D02*
X227387Y264502D01*
X227387Y265143D02*
X229413Y265143D01*
X229413Y265784D02*
X227387Y265784D01*
X227387Y266425D02*
X229413Y266425D01*
X229413Y267066D02*
X227387Y267066D01*
X227387Y267707D02*
X229413Y267707D01*
X229413Y268348D02*
X227387Y268348D01*
X222387Y268582D02*
X222387Y260656D01*
X222387Y268582D02*
X224413Y268582D01*
X224413Y260656D01*
X222387Y260656D01*
X222387Y261297D02*
X224413Y261297D01*
X224413Y261938D02*
X222387Y261938D01*
X222387Y262579D02*
X224413Y262579D01*
X224413Y263220D02*
X222387Y263220D01*
X222387Y263861D02*
X224413Y263861D01*
X224413Y264502D02*
X222387Y264502D01*
X222387Y265143D02*
X224413Y265143D01*
X224413Y265784D02*
X222387Y265784D01*
X222387Y266425D02*
X224413Y266425D01*
X224413Y267066D02*
X222387Y267066D01*
X222387Y267707D02*
X224413Y267707D01*
X224413Y268348D02*
X222387Y268348D01*
X217387Y268582D02*
X217387Y260656D01*
X217387Y268582D02*
X219413Y268582D01*
X219413Y260656D01*
X217387Y260656D01*
X217387Y261297D02*
X219413Y261297D01*
X219413Y261938D02*
X217387Y261938D01*
X217387Y262579D02*
X219413Y262579D01*
X219413Y263220D02*
X217387Y263220D01*
X217387Y263861D02*
X219413Y263861D01*
X219413Y264502D02*
X217387Y264502D01*
X217387Y265143D02*
X219413Y265143D01*
X219413Y265784D02*
X217387Y265784D01*
X217387Y266425D02*
X219413Y266425D01*
X219413Y267066D02*
X217387Y267066D01*
X217387Y267707D02*
X219413Y267707D01*
X219413Y268348D02*
X217387Y268348D01*
X212387Y268582D02*
X212387Y260656D01*
X212387Y268582D02*
X214413Y268582D01*
X214413Y260656D01*
X212387Y260656D01*
X212387Y261297D02*
X214413Y261297D01*
X214413Y261938D02*
X212387Y261938D01*
X212387Y262579D02*
X214413Y262579D01*
X214413Y263220D02*
X212387Y263220D01*
X212387Y263861D02*
X214413Y263861D01*
X214413Y264502D02*
X212387Y264502D01*
X212387Y265143D02*
X214413Y265143D01*
X214413Y265784D02*
X212387Y265784D01*
X212387Y266425D02*
X214413Y266425D01*
X214413Y267066D02*
X212387Y267066D01*
X212387Y267707D02*
X214413Y267707D01*
X214413Y268348D02*
X212387Y268348D01*
X207387Y268582D02*
X207387Y260656D01*
X207387Y268582D02*
X209413Y268582D01*
X209413Y260656D01*
X207387Y260656D01*
X207387Y261297D02*
X209413Y261297D01*
X209413Y261938D02*
X207387Y261938D01*
X207387Y262579D02*
X209413Y262579D01*
X209413Y263220D02*
X207387Y263220D01*
X207387Y263861D02*
X209413Y263861D01*
X209413Y264502D02*
X207387Y264502D01*
X207387Y265143D02*
X209413Y265143D01*
X209413Y265784D02*
X207387Y265784D01*
X207387Y266425D02*
X209413Y266425D01*
X209413Y267066D02*
X207387Y267066D01*
X207387Y267707D02*
X209413Y267707D01*
X209413Y268348D02*
X207387Y268348D01*
X202387Y268582D02*
X202387Y260656D01*
X202387Y268582D02*
X204413Y268582D01*
X204413Y260656D01*
X202387Y260656D01*
X202387Y261297D02*
X204413Y261297D01*
X204413Y261938D02*
X202387Y261938D01*
X202387Y262579D02*
X204413Y262579D01*
X204413Y263220D02*
X202387Y263220D01*
X202387Y263861D02*
X204413Y263861D01*
X204413Y264502D02*
X202387Y264502D01*
X202387Y265143D02*
X204413Y265143D01*
X204413Y265784D02*
X202387Y265784D01*
X202387Y266425D02*
X204413Y266425D01*
X204413Y267066D02*
X202387Y267066D01*
X202387Y267707D02*
X204413Y267707D01*
X204413Y268348D02*
X202387Y268348D01*
X202387Y229882D02*
X202387Y221956D01*
X202387Y229882D02*
X204413Y229882D01*
X204413Y221956D01*
X202387Y221956D01*
X202387Y222597D02*
X204413Y222597D01*
X204413Y223238D02*
X202387Y223238D01*
X202387Y223879D02*
X204413Y223879D01*
X204413Y224520D02*
X202387Y224520D01*
X202387Y225161D02*
X204413Y225161D01*
X204413Y225802D02*
X202387Y225802D01*
X202387Y226443D02*
X204413Y226443D01*
X204413Y227084D02*
X202387Y227084D01*
X202387Y227725D02*
X204413Y227725D01*
X204413Y228366D02*
X202387Y228366D01*
X202387Y229007D02*
X204413Y229007D01*
X204413Y229648D02*
X202387Y229648D01*
X207387Y229882D02*
X207387Y221956D01*
X207387Y229882D02*
X209413Y229882D01*
X209413Y221956D01*
X207387Y221956D01*
X207387Y222597D02*
X209413Y222597D01*
X209413Y223238D02*
X207387Y223238D01*
X207387Y223879D02*
X209413Y223879D01*
X209413Y224520D02*
X207387Y224520D01*
X207387Y225161D02*
X209413Y225161D01*
X209413Y225802D02*
X207387Y225802D01*
X207387Y226443D02*
X209413Y226443D01*
X209413Y227084D02*
X207387Y227084D01*
X207387Y227725D02*
X209413Y227725D01*
X209413Y228366D02*
X207387Y228366D01*
X207387Y229007D02*
X209413Y229007D01*
X209413Y229648D02*
X207387Y229648D01*
X212387Y229882D02*
X212387Y221956D01*
X212387Y229882D02*
X214413Y229882D01*
X214413Y221956D01*
X212387Y221956D01*
X212387Y222597D02*
X214413Y222597D01*
X214413Y223238D02*
X212387Y223238D01*
X212387Y223879D02*
X214413Y223879D01*
X214413Y224520D02*
X212387Y224520D01*
X212387Y225161D02*
X214413Y225161D01*
X214413Y225802D02*
X212387Y225802D01*
X212387Y226443D02*
X214413Y226443D01*
X214413Y227084D02*
X212387Y227084D01*
X212387Y227725D02*
X214413Y227725D01*
X214413Y228366D02*
X212387Y228366D01*
X212387Y229007D02*
X214413Y229007D01*
X214413Y229648D02*
X212387Y229648D01*
X217387Y229882D02*
X217387Y221956D01*
X217387Y229882D02*
X219413Y229882D01*
X219413Y221956D01*
X217387Y221956D01*
X217387Y222597D02*
X219413Y222597D01*
X219413Y223238D02*
X217387Y223238D01*
X217387Y223879D02*
X219413Y223879D01*
X219413Y224520D02*
X217387Y224520D01*
X217387Y225161D02*
X219413Y225161D01*
X219413Y225802D02*
X217387Y225802D01*
X217387Y226443D02*
X219413Y226443D01*
X219413Y227084D02*
X217387Y227084D01*
X217387Y227725D02*
X219413Y227725D01*
X219413Y228366D02*
X217387Y228366D01*
X217387Y229007D02*
X219413Y229007D01*
X219413Y229648D02*
X217387Y229648D01*
X222387Y229882D02*
X222387Y221956D01*
X222387Y229882D02*
X224413Y229882D01*
X224413Y221956D01*
X222387Y221956D01*
X222387Y222597D02*
X224413Y222597D01*
X224413Y223238D02*
X222387Y223238D01*
X222387Y223879D02*
X224413Y223879D01*
X224413Y224520D02*
X222387Y224520D01*
X222387Y225161D02*
X224413Y225161D01*
X224413Y225802D02*
X222387Y225802D01*
X222387Y226443D02*
X224413Y226443D01*
X224413Y227084D02*
X222387Y227084D01*
X222387Y227725D02*
X224413Y227725D01*
X224413Y228366D02*
X222387Y228366D01*
X222387Y229007D02*
X224413Y229007D01*
X224413Y229648D02*
X222387Y229648D01*
X227387Y229882D02*
X227387Y221956D01*
X227387Y229882D02*
X229413Y229882D01*
X229413Y221956D01*
X227387Y221956D01*
X227387Y222597D02*
X229413Y222597D01*
X229413Y223238D02*
X227387Y223238D01*
X227387Y223879D02*
X229413Y223879D01*
X229413Y224520D02*
X227387Y224520D01*
X227387Y225161D02*
X229413Y225161D01*
X229413Y225802D02*
X227387Y225802D01*
X227387Y226443D02*
X229413Y226443D01*
X229413Y227084D02*
X227387Y227084D01*
X227387Y227725D02*
X229413Y227725D01*
X229413Y228366D02*
X227387Y228366D01*
X227387Y229007D02*
X229413Y229007D01*
X229413Y229648D02*
X227387Y229648D01*
D14*
X265400Y74088D03*
X166400Y74088D03*
D15*
X165900Y90088D03*
X175900Y90088D03*
X185900Y90088D03*
X195900Y90088D03*
X205900Y90088D03*
X215900Y90088D03*
X225900Y90088D03*
X235900Y90088D03*
X245900Y90088D03*
X255900Y90088D03*
X265900Y90088D03*
D16*
X136600Y64788D03*
X295350Y64788D03*
D17*
X288893Y103981D03*
X325469Y103981D03*
D18*
X282806Y184150D03*
X299806Y184150D03*
D17*
X142907Y103981D03*
X106331Y103981D03*
D18*
X96275Y184944D03*
X113275Y184944D03*
X356163Y244475D03*
X339163Y244475D03*
D10*
X223044Y379644D03*
X223044Y396644D03*
D18*
X323619Y244475D03*
X306619Y244475D03*
D10*
X162719Y365688D03*
X162719Y348688D03*
X380905Y391995D03*
X380905Y408995D03*
D18*
X256499Y397034D03*
X239499Y397034D03*
D10*
X258763Y288694D03*
X258763Y271694D03*
D19*
X376500Y300638D03*
X376500Y305638D03*
X376500Y310638D03*
X376500Y315638D03*
X376500Y320638D03*
X376500Y325638D03*
X376500Y330638D03*
X376500Y335638D03*
X376500Y340638D03*
X376500Y345638D03*
X376500Y350638D03*
X376500Y355638D03*
X376500Y360638D03*
X376500Y365638D03*
X376500Y370638D03*
X376500Y375638D03*
D20*
X355000Y397138D03*
X350000Y397138D03*
X345000Y397138D03*
X340000Y397138D03*
X335000Y397138D03*
X330000Y397138D03*
X325000Y397138D03*
X320000Y397138D03*
X315000Y397138D03*
X310000Y397138D03*
X305000Y397138D03*
X300000Y397138D03*
X295000Y397138D03*
X290000Y397138D03*
X285000Y397138D03*
X280000Y397138D03*
D19*
X258500Y375638D03*
X258500Y370638D03*
X258500Y365638D03*
X258500Y360638D03*
X258500Y355638D03*
X258500Y350638D03*
X258500Y345638D03*
X258500Y340638D03*
X258500Y335638D03*
X258500Y330638D03*
X258500Y325638D03*
X258500Y320638D03*
X258500Y315638D03*
X258500Y310638D03*
X258500Y305638D03*
X258500Y300638D03*
D20*
X280000Y279138D03*
X285000Y279138D03*
X290000Y279138D03*
X295000Y279138D03*
X300000Y279138D03*
X305000Y279138D03*
X310000Y279138D03*
X315000Y279138D03*
X320000Y279138D03*
X325000Y279138D03*
X330000Y279138D03*
X335000Y279138D03*
X340000Y279138D03*
X345000Y279138D03*
X350000Y279138D03*
X355000Y279138D03*
D11*
X120650Y257088D03*
X120650Y292188D03*
D10*
X119350Y449511D03*
X119350Y466511D03*
D18*
X79641Y467249D03*
X96641Y467249D03*
D21*
X374219Y211819D03*
X395719Y211819D03*
X374219Y253319D03*
X395719Y253319D03*
D22*
X410838Y252920D02*
X417838Y252920D01*
X410838Y252920D02*
X410838Y259920D01*
X417838Y259920D01*
X417838Y252920D01*
X417838Y255770D02*
X410838Y255770D01*
X410838Y258620D02*
X417838Y258620D01*
X417838Y235380D02*
X410838Y235380D01*
X410838Y242380D01*
X417838Y242380D01*
X417838Y235380D01*
X417838Y238230D02*
X410838Y238230D01*
X410838Y241080D02*
X417838Y241080D01*
D10*
X414338Y224400D03*
X414338Y207400D03*
D23*
X138638Y149150D03*
X138638Y142650D03*
X138638Y155650D03*
X138638Y162150D03*
X105838Y149150D03*
X105838Y142650D03*
X105838Y155650D03*
X105838Y162150D03*
D24*
X128863Y152400D03*
D25*
X116663Y152400D03*
D18*
X147406Y184944D03*
X130406Y184944D03*
D10*
X247650Y157725D03*
X247650Y140725D03*
X174625Y157725D03*
X174625Y140725D03*
D23*
X232300Y149150D03*
X232300Y142650D03*
X232300Y155650D03*
X232300Y162150D03*
X199500Y149150D03*
X199500Y142650D03*
X199500Y155650D03*
X199500Y162150D03*
D24*
X222525Y152400D03*
D25*
X210325Y152400D03*
D18*
X224400Y179388D03*
X207400Y179388D03*
D10*
X340519Y157725D03*
X340519Y140725D03*
X265906Y157725D03*
X265906Y140725D03*
D23*
X325169Y149150D03*
X325169Y142650D03*
X325169Y155650D03*
X325169Y162150D03*
X292369Y149150D03*
X292369Y142650D03*
X292369Y155650D03*
X292369Y162150D03*
D24*
X315394Y152400D03*
D25*
X303194Y152400D03*
D18*
X334731Y184150D03*
X317731Y184150D03*
D22*
X166219Y393414D02*
X159219Y393414D01*
X159219Y400414D01*
X166219Y400414D01*
X166219Y393414D01*
X166219Y396264D02*
X159219Y396264D01*
X159219Y399114D02*
X166219Y399114D01*
X166219Y375874D02*
X159219Y375874D01*
X159219Y382874D01*
X166219Y382874D01*
X166219Y375874D01*
X166219Y378724D02*
X159219Y378724D01*
X159219Y381574D02*
X166219Y381574D01*
D26*
X315913Y441813D03*
X328613Y441813D03*
X341313Y441813D03*
X354013Y441813D03*
X354013Y494813D03*
X341313Y494813D03*
X328613Y494813D03*
X315913Y494813D03*
D27*
X190182Y377968D02*
X178456Y377968D01*
X178456Y382394D01*
X190182Y382394D01*
X190182Y377968D01*
X190182Y379369D02*
X178456Y379369D01*
X178456Y380770D02*
X190182Y380770D01*
X190182Y382171D02*
X178456Y382171D01*
X178456Y358968D02*
X190182Y358968D01*
X178456Y358968D02*
X178456Y363394D01*
X190182Y363394D01*
X190182Y358968D01*
X190182Y360369D02*
X178456Y360369D01*
X178456Y361770D02*
X190182Y361770D01*
X190182Y363171D02*
X178456Y363171D01*
X198756Y368468D02*
X210482Y368468D01*
X198756Y368468D02*
X198756Y372894D01*
X210482Y372894D01*
X210482Y368468D01*
X210482Y369869D02*
X198756Y369869D01*
X198756Y371270D02*
X210482Y371270D01*
X210482Y372671D02*
X198756Y372671D01*
D18*
X185969Y396081D03*
X202969Y396081D03*
X185969Y345281D03*
X202969Y345281D03*
D10*
X395288Y313763D03*
X395288Y330763D03*
D18*
X337906Y419894D03*
X320906Y419894D03*
D28*
X396000Y480000D03*
X36000Y480000D03*
X96000Y40000D03*
X336000Y40000D03*
D10*
X626269Y277581D03*
X626269Y260581D03*
D11*
X596106Y257088D03*
X596106Y292188D03*
X534194Y257088D03*
X534194Y292188D03*
D10*
X598488Y157725D03*
X598488Y140725D03*
X531019Y157725D03*
X531019Y140725D03*
X726281Y256944D03*
X726281Y239944D03*
D12*
X660400Y245269D03*
D13*
X645013Y256756D02*
X637087Y256756D01*
X637087Y258782D01*
X645013Y258782D01*
X645013Y256756D01*
X645013Y257397D02*
X637087Y257397D01*
X637087Y258038D02*
X645013Y258038D01*
X645013Y258679D02*
X637087Y258679D01*
X637087Y251756D02*
X645013Y251756D01*
X637087Y251756D02*
X637087Y253782D01*
X645013Y253782D01*
X645013Y251756D01*
X645013Y252397D02*
X637087Y252397D01*
X637087Y253038D02*
X645013Y253038D01*
X645013Y253679D02*
X637087Y253679D01*
X637087Y246756D02*
X645013Y246756D01*
X637087Y246756D02*
X637087Y248782D01*
X645013Y248782D01*
X645013Y246756D01*
X645013Y247397D02*
X637087Y247397D01*
X637087Y248038D02*
X645013Y248038D01*
X645013Y248679D02*
X637087Y248679D01*
X637087Y241756D02*
X645013Y241756D01*
X637087Y241756D02*
X637087Y243782D01*
X645013Y243782D01*
X645013Y241756D01*
X645013Y242397D02*
X637087Y242397D01*
X637087Y243038D02*
X645013Y243038D01*
X645013Y243679D02*
X637087Y243679D01*
X637087Y236756D02*
X645013Y236756D01*
X637087Y236756D02*
X637087Y238782D01*
X645013Y238782D01*
X645013Y236756D01*
X645013Y237397D02*
X637087Y237397D01*
X637087Y238038D02*
X645013Y238038D01*
X645013Y238679D02*
X637087Y238679D01*
X637087Y231756D02*
X645013Y231756D01*
X637087Y231756D02*
X637087Y233782D01*
X645013Y233782D01*
X645013Y231756D01*
X645013Y232397D02*
X637087Y232397D01*
X637087Y233038D02*
X645013Y233038D01*
X645013Y233679D02*
X637087Y233679D01*
X675787Y231756D02*
X683713Y231756D01*
X675787Y231756D02*
X675787Y233782D01*
X683713Y233782D01*
X683713Y231756D01*
X683713Y232397D02*
X675787Y232397D01*
X675787Y233038D02*
X683713Y233038D01*
X683713Y233679D02*
X675787Y233679D01*
X675787Y236756D02*
X683713Y236756D01*
X675787Y236756D02*
X675787Y238782D01*
X683713Y238782D01*
X683713Y236756D01*
X683713Y237397D02*
X675787Y237397D01*
X675787Y238038D02*
X683713Y238038D01*
X683713Y238679D02*
X675787Y238679D01*
X675787Y241756D02*
X683713Y241756D01*
X675787Y241756D02*
X675787Y243782D01*
X683713Y243782D01*
X683713Y241756D01*
X683713Y242397D02*
X675787Y242397D01*
X675787Y243038D02*
X683713Y243038D01*
X683713Y243679D02*
X675787Y243679D01*
X675787Y246756D02*
X683713Y246756D01*
X675787Y246756D02*
X675787Y248782D01*
X683713Y248782D01*
X683713Y246756D01*
X683713Y247397D02*
X675787Y247397D01*
X675787Y248038D02*
X683713Y248038D01*
X683713Y248679D02*
X675787Y248679D01*
X675787Y251756D02*
X683713Y251756D01*
X675787Y251756D02*
X675787Y253782D01*
X683713Y253782D01*
X683713Y251756D01*
X683713Y252397D02*
X675787Y252397D01*
X675787Y253038D02*
X683713Y253038D01*
X683713Y253679D02*
X675787Y253679D01*
X675787Y256756D02*
X683713Y256756D01*
X675787Y256756D02*
X675787Y258782D01*
X683713Y258782D01*
X683713Y256756D01*
X683713Y257397D02*
X675787Y257397D01*
X675787Y258038D02*
X683713Y258038D01*
X683713Y258679D02*
X675787Y258679D01*
X671887Y260656D02*
X671887Y268582D01*
X673913Y268582D01*
X673913Y260656D01*
X671887Y260656D01*
X671887Y261297D02*
X673913Y261297D01*
X673913Y261938D02*
X671887Y261938D01*
X671887Y262579D02*
X673913Y262579D01*
X673913Y263220D02*
X671887Y263220D01*
X671887Y263861D02*
X673913Y263861D01*
X673913Y264502D02*
X671887Y264502D01*
X671887Y265143D02*
X673913Y265143D01*
X673913Y265784D02*
X671887Y265784D01*
X671887Y266425D02*
X673913Y266425D01*
X673913Y267066D02*
X671887Y267066D01*
X671887Y267707D02*
X673913Y267707D01*
X673913Y268348D02*
X671887Y268348D01*
X666887Y268582D02*
X666887Y260656D01*
X666887Y268582D02*
X668913Y268582D01*
X668913Y260656D01*
X666887Y260656D01*
X666887Y261297D02*
X668913Y261297D01*
X668913Y261938D02*
X666887Y261938D01*
X666887Y262579D02*
X668913Y262579D01*
X668913Y263220D02*
X666887Y263220D01*
X666887Y263861D02*
X668913Y263861D01*
X668913Y264502D02*
X666887Y264502D01*
X666887Y265143D02*
X668913Y265143D01*
X668913Y265784D02*
X666887Y265784D01*
X666887Y266425D02*
X668913Y266425D01*
X668913Y267066D02*
X666887Y267066D01*
X666887Y267707D02*
X668913Y267707D01*
X668913Y268348D02*
X666887Y268348D01*
X661887Y268582D02*
X661887Y260656D01*
X661887Y268582D02*
X663913Y268582D01*
X663913Y260656D01*
X661887Y260656D01*
X661887Y261297D02*
X663913Y261297D01*
X663913Y261938D02*
X661887Y261938D01*
X661887Y262579D02*
X663913Y262579D01*
X663913Y263220D02*
X661887Y263220D01*
X661887Y263861D02*
X663913Y263861D01*
X663913Y264502D02*
X661887Y264502D01*
X661887Y265143D02*
X663913Y265143D01*
X663913Y265784D02*
X661887Y265784D01*
X661887Y266425D02*
X663913Y266425D01*
X663913Y267066D02*
X661887Y267066D01*
X661887Y267707D02*
X663913Y267707D01*
X663913Y268348D02*
X661887Y268348D01*
X656887Y268582D02*
X656887Y260656D01*
X656887Y268582D02*
X658913Y268582D01*
X658913Y260656D01*
X656887Y260656D01*
X656887Y261297D02*
X658913Y261297D01*
X658913Y261938D02*
X656887Y261938D01*
X656887Y262579D02*
X658913Y262579D01*
X658913Y263220D02*
X656887Y263220D01*
X656887Y263861D02*
X658913Y263861D01*
X658913Y264502D02*
X656887Y264502D01*
X656887Y265143D02*
X658913Y265143D01*
X658913Y265784D02*
X656887Y265784D01*
X656887Y266425D02*
X658913Y266425D01*
X658913Y267066D02*
X656887Y267066D01*
X656887Y267707D02*
X658913Y267707D01*
X658913Y268348D02*
X656887Y268348D01*
X651887Y268582D02*
X651887Y260656D01*
X651887Y268582D02*
X653913Y268582D01*
X653913Y260656D01*
X651887Y260656D01*
X651887Y261297D02*
X653913Y261297D01*
X653913Y261938D02*
X651887Y261938D01*
X651887Y262579D02*
X653913Y262579D01*
X653913Y263220D02*
X651887Y263220D01*
X651887Y263861D02*
X653913Y263861D01*
X653913Y264502D02*
X651887Y264502D01*
X651887Y265143D02*
X653913Y265143D01*
X653913Y265784D02*
X651887Y265784D01*
X651887Y266425D02*
X653913Y266425D01*
X653913Y267066D02*
X651887Y267066D01*
X651887Y267707D02*
X653913Y267707D01*
X653913Y268348D02*
X651887Y268348D01*
X646887Y268582D02*
X646887Y260656D01*
X646887Y268582D02*
X648913Y268582D01*
X648913Y260656D01*
X646887Y260656D01*
X646887Y261297D02*
X648913Y261297D01*
X648913Y261938D02*
X646887Y261938D01*
X646887Y262579D02*
X648913Y262579D01*
X648913Y263220D02*
X646887Y263220D01*
X646887Y263861D02*
X648913Y263861D01*
X648913Y264502D02*
X646887Y264502D01*
X646887Y265143D02*
X648913Y265143D01*
X648913Y265784D02*
X646887Y265784D01*
X646887Y266425D02*
X648913Y266425D01*
X648913Y267066D02*
X646887Y267066D01*
X646887Y267707D02*
X648913Y267707D01*
X648913Y268348D02*
X646887Y268348D01*
X646887Y229882D02*
X646887Y221956D01*
X646887Y229882D02*
X648913Y229882D01*
X648913Y221956D01*
X646887Y221956D01*
X646887Y222597D02*
X648913Y222597D01*
X648913Y223238D02*
X646887Y223238D01*
X646887Y223879D02*
X648913Y223879D01*
X648913Y224520D02*
X646887Y224520D01*
X646887Y225161D02*
X648913Y225161D01*
X648913Y225802D02*
X646887Y225802D01*
X646887Y226443D02*
X648913Y226443D01*
X648913Y227084D02*
X646887Y227084D01*
X646887Y227725D02*
X648913Y227725D01*
X648913Y228366D02*
X646887Y228366D01*
X646887Y229007D02*
X648913Y229007D01*
X648913Y229648D02*
X646887Y229648D01*
X651887Y229882D02*
X651887Y221956D01*
X651887Y229882D02*
X653913Y229882D01*
X653913Y221956D01*
X651887Y221956D01*
X651887Y222597D02*
X653913Y222597D01*
X653913Y223238D02*
X651887Y223238D01*
X651887Y223879D02*
X653913Y223879D01*
X653913Y224520D02*
X651887Y224520D01*
X651887Y225161D02*
X653913Y225161D01*
X653913Y225802D02*
X651887Y225802D01*
X651887Y226443D02*
X653913Y226443D01*
X653913Y227084D02*
X651887Y227084D01*
X651887Y227725D02*
X653913Y227725D01*
X653913Y228366D02*
X651887Y228366D01*
X651887Y229007D02*
X653913Y229007D01*
X653913Y229648D02*
X651887Y229648D01*
X656887Y229882D02*
X656887Y221956D01*
X656887Y229882D02*
X658913Y229882D01*
X658913Y221956D01*
X656887Y221956D01*
X656887Y222597D02*
X658913Y222597D01*
X658913Y223238D02*
X656887Y223238D01*
X656887Y223879D02*
X658913Y223879D01*
X658913Y224520D02*
X656887Y224520D01*
X656887Y225161D02*
X658913Y225161D01*
X658913Y225802D02*
X656887Y225802D01*
X656887Y226443D02*
X658913Y226443D01*
X658913Y227084D02*
X656887Y227084D01*
X656887Y227725D02*
X658913Y227725D01*
X658913Y228366D02*
X656887Y228366D01*
X656887Y229007D02*
X658913Y229007D01*
X658913Y229648D02*
X656887Y229648D01*
X661887Y229882D02*
X661887Y221956D01*
X661887Y229882D02*
X663913Y229882D01*
X663913Y221956D01*
X661887Y221956D01*
X661887Y222597D02*
X663913Y222597D01*
X663913Y223238D02*
X661887Y223238D01*
X661887Y223879D02*
X663913Y223879D01*
X663913Y224520D02*
X661887Y224520D01*
X661887Y225161D02*
X663913Y225161D01*
X663913Y225802D02*
X661887Y225802D01*
X661887Y226443D02*
X663913Y226443D01*
X663913Y227084D02*
X661887Y227084D01*
X661887Y227725D02*
X663913Y227725D01*
X663913Y228366D02*
X661887Y228366D01*
X661887Y229007D02*
X663913Y229007D01*
X663913Y229648D02*
X661887Y229648D01*
X666887Y229882D02*
X666887Y221956D01*
X666887Y229882D02*
X668913Y229882D01*
X668913Y221956D01*
X666887Y221956D01*
X666887Y222597D02*
X668913Y222597D01*
X668913Y223238D02*
X666887Y223238D01*
X666887Y223879D02*
X668913Y223879D01*
X668913Y224520D02*
X666887Y224520D01*
X666887Y225161D02*
X668913Y225161D01*
X668913Y225802D02*
X666887Y225802D01*
X666887Y226443D02*
X668913Y226443D01*
X668913Y227084D02*
X666887Y227084D01*
X666887Y227725D02*
X668913Y227725D01*
X668913Y228366D02*
X666887Y228366D01*
X666887Y229007D02*
X668913Y229007D01*
X668913Y229648D02*
X666887Y229648D01*
X671887Y229882D02*
X671887Y221956D01*
X671887Y229882D02*
X673913Y229882D01*
X673913Y221956D01*
X671887Y221956D01*
X671887Y222597D02*
X673913Y222597D01*
X673913Y223238D02*
X671887Y223238D01*
X671887Y223879D02*
X673913Y223879D01*
X673913Y224520D02*
X671887Y224520D01*
X671887Y225161D02*
X673913Y225161D01*
X673913Y225802D02*
X671887Y225802D01*
X671887Y226443D02*
X673913Y226443D01*
X673913Y227084D02*
X671887Y227084D01*
X671887Y227725D02*
X673913Y227725D01*
X673913Y228366D02*
X671887Y228366D01*
X671887Y229007D02*
X673913Y229007D01*
X673913Y229648D02*
X671887Y229648D01*
D14*
X709900Y74088D03*
X610900Y74088D03*
D15*
X610400Y90088D03*
X620400Y90088D03*
X630400Y90088D03*
X640400Y90088D03*
X650400Y90088D03*
X660400Y90088D03*
X670400Y90088D03*
X680400Y90088D03*
X690400Y90088D03*
X700400Y90088D03*
X710400Y90088D03*
D16*
X581100Y64788D03*
X739850Y64788D03*
D17*
X733393Y103981D03*
X769969Y103981D03*
D18*
X727306Y184150D03*
X744306Y184150D03*
D17*
X587407Y103981D03*
X550831Y103981D03*
D18*
X540775Y184944D03*
X557775Y184944D03*
X800663Y244475D03*
X783663Y244475D03*
D10*
X667544Y379644D03*
X667544Y396644D03*
D18*
X768119Y244475D03*
X751119Y244475D03*
D10*
X607219Y365688D03*
X607219Y348688D03*
X825405Y391995D03*
X825405Y408995D03*
D18*
X700999Y397034D03*
X683999Y397034D03*
D10*
X703263Y288694D03*
X703263Y271694D03*
D19*
X821000Y300638D03*
X821000Y305638D03*
X821000Y310638D03*
X821000Y315638D03*
X821000Y320638D03*
X821000Y325638D03*
X821000Y330638D03*
X821000Y335638D03*
X821000Y340638D03*
X821000Y345638D03*
X821000Y350638D03*
X821000Y355638D03*
X821000Y360638D03*
X821000Y365638D03*
X821000Y370638D03*
X821000Y375638D03*
D20*
X799500Y397138D03*
X794500Y397138D03*
X789500Y397138D03*
X784500Y397138D03*
X779500Y397138D03*
X774500Y397138D03*
X769500Y397138D03*
X764500Y397138D03*
X759500Y397138D03*
X754500Y397138D03*
X749500Y397138D03*
X744500Y397138D03*
X739500Y397138D03*
X734500Y397138D03*
X729500Y397138D03*
X724500Y397138D03*
D19*
X703000Y375638D03*
X703000Y370638D03*
X703000Y365638D03*
X703000Y360638D03*
X703000Y355638D03*
X703000Y350638D03*
X703000Y345638D03*
X703000Y340638D03*
X703000Y335638D03*
X703000Y330638D03*
X703000Y325638D03*
X703000Y320638D03*
X703000Y315638D03*
X703000Y310638D03*
X703000Y305638D03*
X703000Y300638D03*
D20*
X724500Y279138D03*
X729500Y279138D03*
X734500Y279138D03*
X739500Y279138D03*
X744500Y279138D03*
X749500Y279138D03*
X754500Y279138D03*
X759500Y279138D03*
X764500Y279138D03*
X769500Y279138D03*
X774500Y279138D03*
X779500Y279138D03*
X784500Y279138D03*
X789500Y279138D03*
X794500Y279138D03*
X799500Y279138D03*
D11*
X565150Y257088D03*
X565150Y292188D03*
D10*
X563850Y449511D03*
X563850Y466511D03*
D18*
X524141Y467249D03*
X541141Y467249D03*
D21*
X818719Y211819D03*
X840219Y211819D03*
X818719Y253319D03*
X840219Y253319D03*
D22*
X855338Y252920D02*
X862338Y252920D01*
X855338Y252920D02*
X855338Y259920D01*
X862338Y259920D01*
X862338Y252920D01*
X862338Y255770D02*
X855338Y255770D01*
X855338Y258620D02*
X862338Y258620D01*
X862338Y235380D02*
X855338Y235380D01*
X855338Y242380D01*
X862338Y242380D01*
X862338Y235380D01*
X862338Y238230D02*
X855338Y238230D01*
X855338Y241080D02*
X862338Y241080D01*
D10*
X858838Y224400D03*
X858838Y207400D03*
D23*
X583138Y149150D03*
X583138Y142650D03*
X583138Y155650D03*
X583138Y162150D03*
X550338Y149150D03*
X550338Y142650D03*
X550338Y155650D03*
X550338Y162150D03*
D24*
X573363Y152400D03*
D25*
X561163Y152400D03*
D18*
X591906Y184944D03*
X574906Y184944D03*
D10*
X692150Y157725D03*
X692150Y140725D03*
X619125Y157725D03*
X619125Y140725D03*
D23*
X676800Y149150D03*
X676800Y142650D03*
X676800Y155650D03*
X676800Y162150D03*
X644000Y149150D03*
X644000Y142650D03*
X644000Y155650D03*
X644000Y162150D03*
D24*
X667025Y152400D03*
D25*
X654825Y152400D03*
D18*
X668900Y179388D03*
X651900Y179388D03*
D10*
X785019Y157725D03*
X785019Y140725D03*
X710406Y157725D03*
X710406Y140725D03*
D23*
X769669Y149150D03*
X769669Y142650D03*
X769669Y155650D03*
X769669Y162150D03*
X736869Y149150D03*
X736869Y142650D03*
X736869Y155650D03*
X736869Y162150D03*
D24*
X759894Y152400D03*
D25*
X747694Y152400D03*
D18*
X779231Y184150D03*
X762231Y184150D03*
D22*
X610719Y393414D02*
X603719Y393414D01*
X603719Y400414D01*
X610719Y400414D01*
X610719Y393414D01*
X610719Y396264D02*
X603719Y396264D01*
X603719Y399114D02*
X610719Y399114D01*
X610719Y375874D02*
X603719Y375874D01*
X603719Y382874D01*
X610719Y382874D01*
X610719Y375874D01*
X610719Y378724D02*
X603719Y378724D01*
X603719Y381574D02*
X610719Y381574D01*
D26*
X760413Y441813D03*
X773113Y441813D03*
X785813Y441813D03*
X798513Y441813D03*
X798513Y494813D03*
X785813Y494813D03*
X773113Y494813D03*
X760413Y494813D03*
D27*
X634682Y377968D02*
X622956Y377968D01*
X622956Y382394D01*
X634682Y382394D01*
X634682Y377968D01*
X634682Y379369D02*
X622956Y379369D01*
X622956Y380770D02*
X634682Y380770D01*
X634682Y382171D02*
X622956Y382171D01*
X622956Y358968D02*
X634682Y358968D01*
X622956Y358968D02*
X622956Y363394D01*
X634682Y363394D01*
X634682Y358968D01*
X634682Y360369D02*
X622956Y360369D01*
X622956Y361770D02*
X634682Y361770D01*
X634682Y363171D02*
X622956Y363171D01*
X643256Y368468D02*
X654982Y368468D01*
X643256Y368468D02*
X643256Y372894D01*
X654982Y372894D01*
X654982Y368468D01*
X654982Y369869D02*
X643256Y369869D01*
X643256Y371270D02*
X654982Y371270D01*
X654982Y372671D02*
X643256Y372671D01*
D18*
X630469Y396081D03*
X647469Y396081D03*
X630469Y345281D03*
X647469Y345281D03*
D10*
X839788Y313763D03*
X839788Y330763D03*
D18*
X782406Y419894D03*
X765406Y419894D03*
D28*
X840500Y480000D03*
X480500Y480000D03*
X540500Y40000D03*
X780500Y40000D03*
M02*
