M48
;GenerationSoftware,Autodesk,EAGLE,9.6.2*%
;CreationDate,2022-11-13T05:54:13Z*%
FMAT,2
ICI,OFF
METRIC,TZ,000.000
T5C0.305
T4C0.350
T3C0.500
T2C0.800
T1C1.016
%
G90
M71
T1
X72390Y47466
X69850Y47466
X67310Y47466
X59690Y47466
X62230Y47466
X64770Y47466
X68580Y3731
X66040Y3731
X63500Y3731
X19050Y3731
X21590Y3731
X24130Y3731
X20320Y47466
X17780Y47466
X15240Y47466
X22860Y47466
X27940Y47466
X25400Y47466
T2
X85693Y27566
X85693Y29566
X85693Y31566
X85693Y33566
X85693Y35566
X41243Y27566
X41243Y29566
X41243Y31566
X41243Y33566
X85693Y37566
X85693Y39566
X41243Y39566
X41243Y37566
X41243Y35566
T3
X18177Y26058
X29369Y24130
X21034Y25003
X21907Y25003
X78581Y48339
X77311Y49481
X76835Y26273
X79596Y42297
X79539Y41407
X75755Y7810
X74086Y46313
X74057Y47203
X62627Y26058
X73819Y24130
X65484Y25003
X66358Y25003
X34131Y48339
X32861Y49481
X32385Y26273
X35146Y42297
X35089Y41407
X31305Y7810
X29636Y46313
X29607Y47203
T4
X31817Y41057
X63738Y15002
X10636Y15954
X10081Y15478
X10636Y15002
X31671Y21034
X32544Y21034
X33179Y20717
X16431Y41354
X17224Y41354
X17224Y40640
X17224Y39846
X16431Y39846
X15637Y40561
X15637Y39846
X17224Y42069
X18653Y43259
X19288Y43815
X19923Y44450
X20558Y45244
X16431Y39132
X17224Y39132
X28813Y16272
X29289Y15875
X28813Y15478
X29289Y15002
X19288Y16272
X20003Y15637
X10617Y39132
X10592Y34052
X10619Y30693
X12065Y30639
X14026Y32233
X15002Y33799
X15081Y36592
X10619Y37306
X13335Y23892
X14843Y25400
X17066Y25956
X16961Y30610
X18361Y32544
X5399Y38156
X6032Y38814
X5318Y20479
X5239Y22384
X6350Y19447
X9763Y23019
X19288Y15637
X41672Y26194
X40402Y23971
X36909Y23971
X38497Y23971
X38497Y21193
X41037Y19606
X38179Y16907
X39688Y26591
X20003Y15002
X5307Y34730
X6012Y32816
X31024Y41057
X31368Y42825
X29876Y44318
X26908Y25717
X22939Y28019
X23257Y33893
X21669Y31115
X23345Y29360
X26114Y26114
X30162Y25876
X23455Y26247
X21811Y28751
X20558Y31115
X27384Y34608
X22684Y21188
X5185Y36542
X25400Y22933
X16510Y23812
X23336Y21749
X26829Y20359
X32385Y19923
X33680Y18605
X15954Y22939
X24765Y22304
X21828Y21273
X27600Y20756
X18710Y23358
X11192Y21193
X18013Y22678
X16510Y21511
X32941Y16510
X32941Y15716
X32226Y15637
X32941Y15002
X22939Y16351
X22939Y15002
X22939Y15637
X23654Y15002
X13891Y16431
X14287Y15875
X13732Y15399
X14208Y15002
X32226Y15002
X31432Y16351
X31432Y14922
X31432Y15637
X22146Y15637
X22146Y16351
X22146Y14922
X22146Y14208
X12859Y16431
X13335Y15875
X12859Y15399
X13335Y14922
X13414Y16828
X12859Y14287
X22622Y16907
X23654Y15716
X31432Y14208
X32226Y16351
X31829Y16907
X32464Y16907
X23654Y16351
X23336Y16907
X20932Y21267
X17463Y21352
X5239Y30242
X27384Y39846
X22384Y37964
X18353Y35243
X36036Y28654
X25876Y28790
X28892Y31194
X32642Y41038
X5239Y29369
X36036Y27226
X36513Y27940
X5239Y28496
X5239Y27622
X32861Y42911
X25876Y27090
X16431Y40561
X18336Y34449
X18336Y33655
X17542Y33655
X16748Y33655
X17542Y34449
X20353Y39664
X33655Y20161
X35560Y16669
X24447Y35957
X24447Y38179
X23574Y37068
X5239Y26749
X5239Y25876
X12046Y7546
X28337Y34375
X29131Y33893
X29289Y33020
X5239Y32067
X27464Y28019
X27226Y31036
X36718Y39274
X12035Y6684
X14208Y23105
X34857Y32081
X34857Y34462
X36283Y36852
X11935Y45586
X7907Y46725
X36195Y29845
X37422Y25014
X36116Y31016
X38385Y25247
X5239Y25003
X5239Y31194
X9446Y16907
X10636Y16907
X18574Y16907
X83741Y36751
X80181Y32160
X80165Y34462
X35401Y44767
X33962Y34335
X28019Y9287
X35715Y34462
X35731Y32160
X39291Y36751
X54531Y16431
X55086Y15954
X54531Y15478
X55086Y15002
X73263Y16272
X73739Y15875
X73263Y15478
X73739Y15002
X63738Y16272
X64452Y15637
X63738Y15637
X64452Y15002
X49635Y36542
X49689Y30242
X49689Y29369
X49689Y28496
X10081Y16431
X77311Y42911
X70326Y27090
X60881Y40561
X64803Y39664
X78105Y20161
X80010Y16669
X72469Y9287
X78412Y34335
X20003Y16907
X19288Y15002
X79851Y44767
X49689Y26749
X49689Y25876
X49689Y32067
X49689Y25003
X49689Y31194
X53896Y16907
X55086Y16907
X63024Y16907
X63738Y16907
X64452Y16272
X72231Y16828
X72946Y16828
X73739Y16828
X63024Y16272
X63024Y15637
X63024Y15002
X49689Y27622
X64452Y16907
X19288Y16907
X20003Y16272
X82835Y25247
X80566Y31016
X81872Y25014
X80645Y29845
X52357Y46725
X77092Y41038
X75474Y41057
X56385Y45586
X76267Y41057
X80733Y36852
X79307Y34462
X79307Y32081
X58658Y23105
X76121Y21034
X76994Y21034
X77629Y20717
X60881Y41354
X61674Y41354
X61674Y40640
X61674Y39846
X60881Y39846
X60087Y40561
X60087Y39846
X61674Y42069
X63103Y43259
X63738Y43815
X64373Y44450
X65008Y45244
X60881Y39132
X61674Y39132
X56485Y6684
X81168Y39274
X71676Y31036
X71914Y28019
X27781Y16828
X73739Y33020
X55067Y39132
X55042Y34052
X55069Y30693
X56515Y30639
X58476Y32233
X59452Y33799
X59531Y36592
X55069Y37306
X57785Y23892
X59293Y25400
X61516Y25956
X61411Y30610
X62811Y32544
X49849Y38156
X50482Y38814
X49768Y20479
X49689Y22384
X50800Y19447
X54213Y23019
X73581Y33893
X86122Y26194
X84852Y23971
X81359Y23971
X82947Y23971
X82947Y21193
X85487Y19606
X82629Y16907
X84138Y26591
X18574Y15002
X49757Y34730
X50462Y32816
X18574Y15637
X75818Y42825
X74326Y44318
X71358Y25717
X67389Y28019
X67707Y33893
X66119Y31115
X67795Y29360
X70564Y26114
X74613Y25876
X67905Y26247
X66261Y28751
X65008Y31115
X71834Y34608
X67134Y21188
X72787Y34375
X69850Y22933
X60960Y23812
X67786Y21749
X71279Y20359
X76835Y19923
X78130Y18605
X60404Y22939
X69215Y22304
X66278Y21273
X72050Y20756
X63160Y23358
X55642Y21193
X62463Y22678
X60960Y21511
X77391Y16510
X77391Y15716
X76676Y15637
X77391Y15002
X67389Y16351
X67389Y15002
X67389Y15637
X68104Y15002
X58341Y16431
X58737Y15875
X58182Y15399
X58658Y15002
X76676Y15002
X75883Y16351
X75883Y14922
X75883Y15637
X66596Y15637
X66596Y16351
X66596Y14922
X66596Y14208
X57309Y16431
X57785Y15875
X57309Y15399
X57785Y14922
X57864Y16828
X57309Y14287
X67072Y16907
X68104Y15716
X75883Y14208
X76676Y16351
X76279Y16907
X76914Y16907
X68104Y16351
X67786Y16907
X65382Y21267
X61912Y21352
X56496Y7546
X71834Y39846
X66834Y37964
X62802Y35243
X80486Y28654
X70326Y28790
X73343Y31194
X18574Y16272
X28496Y16828
X80486Y27226
X80963Y27940
X29289Y16828
X68024Y37068
X68898Y38179
X68898Y35957
X61992Y34449
X62786Y34449
X62786Y33655
X61992Y33655
X61198Y33655
T5
X74057Y31829
X72866Y30537
X74086Y30537
X75803Y33496
X72549Y31829
X74692Y31194
X71596Y38814
X71279Y39449
X80066Y24447
X73343Y20320
X58817Y21431
X52070Y22860
X66675Y40799
X68342Y41513
X71120Y41513
X73422Y43418
X71041Y44053
X68342Y44053
X52308Y21114
X52626Y24844
X53975Y24844
X72628Y37783
X76597Y35243
X64214Y38576
X65484Y42228
X64770Y41513
X65484Y41513
X64056Y40799
X64770Y40799
X65484Y40799
X77133Y29527
X77133Y31909
X77073Y34290
X76041Y45164
X78105Y29845
X77946Y31909
X76756Y35957
X21034Y40799
X20320Y40799
X33496Y31909
X33655Y29845
X31591Y45164
X32623Y34290
X32683Y31909
X32683Y29527
X19606Y40799
X21034Y41513
X20320Y41513
X21034Y42228
X19764Y38576
X32306Y35957
X31353Y33496
X29636Y30537
X28416Y30537
X29607Y31829
X28099Y31829
X30242Y31194
X27146Y38814
X26829Y39449
X35616Y24447
X28892Y20320
X14367Y21431
X32147Y35243
X7620Y22860
X22225Y40799
X23892Y41513
X26670Y41513
X28972Y43418
X26591Y44053
X23892Y44053
X7858Y21114
X8176Y24844
X9525Y24844
X28178Y37783
M30